<svg width="133" height="111" viewBox="0 0 133 111" fill="none" xmlns="http://www.w3.org/2000/svg">
<path d="M125.207 21.7305H96.6796L88.4434 5.25795C87.1142 2.60029 84.4433 0.949219 81.4729 0.949219H51.5271C48.5562 0.949219 45.8853 2.60029 44.5566 5.25821L36.3204 21.7305H31.1719V19.1328C31.1719 14.8358 27.6759 11.3398 23.3789 11.3398H18.1836C13.8866 11.3398 10.3906 14.8358 10.3906 19.1328V21.7305H7.79297C3.49593 21.7305 0 25.2264 0 29.5234C0 36.5826 0 99.5118 0 102.258C0 106.555 3.49593 110.051 7.79297 110.051H125.207C129.504 110.051 133 106.555 133 102.258C133 95.1987 133 32.2694 133 29.5234C133 25.2264 129.504 21.7305 125.207 21.7305ZM49.2035 7.58155C49.6467 6.69523 50.5369 6.14453 51.5271 6.14453H81.4729C82.4631 6.14453 83.3536 6.69523 83.7968 7.58155L90.8712 21.7305H42.1288L49.2035 7.58155ZM15.5859 19.1328C15.5859 17.7005 16.7512 16.5352 18.1836 16.5352H23.3789C24.8113 16.5352 25.9766 17.7005 25.9766 19.1328V21.7305H15.5859V19.1328ZM5.19531 47.6811H38.0429C34.5907 53.074 32.7305 59.3944 32.7305 65.8906C32.7305 72.3874 34.5909 78.6823 38.0427 84.0742H5.19531V47.6811ZM66.5 37.3164C82.1205 37.3164 95.0742 49.9719 95.0742 65.8906C95.0742 81.7914 82.1387 94.4648 66.5 94.4648C50.8473 94.4648 37.9258 81.7774 37.9258 65.8906C37.9258 49.9917 50.8595 37.3164 66.5 37.3164ZM127.805 102.258C127.805 103.69 126.639 104.855 125.207 104.855H7.79297C6.36062 104.855 5.19531 103.69 5.19531 102.258V89.2695H42.1407C48.4881 95.8863 57.2978 99.6602 66.5 99.6602C75.7038 99.6602 84.5142 95.8852 90.8595 89.2695H127.805V102.258ZM127.805 84.0742H94.9571C98.4094 78.6812 100.27 72.3871 100.27 65.8906C100.27 59.3941 98.4094 53.1 94.9571 47.707H127.805V84.0742ZM127.805 42.5117H90.8593C84.5121 35.895 75.7025 32.1211 66.5 32.1211C57.2965 32.1211 48.486 35.896 42.1405 42.5117H5.19531V29.5234C5.19531 28.0911 6.36062 26.9258 7.79297 26.9258C10.1519 26.9258 121.555 26.9258 125.207 26.9258C126.639 26.9258 127.805 28.0911 127.805 29.5234V42.5117Z" fill="#705F5F"/>
</svg>
