<?xml version="1.0" encoding="iso-8859-1"?>
<!-- Generator: Adobe Illustrator 19.0.0, SVG Export Plug-In . SVG Version: 6.00 Build 0)  -->
<svg version="1.1" id="Capa_1" xmlns="http://www.w3.org/2000/svg" xmlns:xlink="http://www.w3.org/1999/xlink" x="0px" y="0px"
	 viewBox="0 0 512 512" style="enable-background:new 0 0 512 512;" xml:space="preserve">
<g>
	<g>
		<path fill="#fff" d="M507.862,173.898L458,137.819V97.983c-0.008-0.001-0.016-0.003-0.024-0.004c-0.002-2.6-0.994-5.157-2.906-7.068
			l-88-87.983c-1.91-1.91-4.463-2.902-7.062-2.904C360.005,0.015,360.003,0.009,360,0H84C67.458,0,54,13.458,54,30v107.819
			L4.138,173.898C1.539,175.779,0,178.792,0,182v280c0,27.57,22.43,50,50,50h412c27.57,0,50-22.43,50-50V182
			C512,178.792,510.461,175.779,507.862,173.898z M458,162.505l28.633,20.719L458,211.857V162.505z M370,34.139l53.854,53.844H380
			c-5.514,0-10-4.486-10-10V34.139z M74,30c0-5.514,4.486-10,10-10h266v57.983c0,16.542,13.458,30,30,30h58v123.875L328.472,341.385
			l-14.429-14.429c-32.005-32.005-84.082-32.005-116.087,0l-14.429,14.429L74,231.857V30z M54,162.506v49.351l-28.633-28.633
			L54,162.506z M36.983,487.929c-0.241,0.241-0.466,0.491-0.678,0.75C26.634,483.693,20,473.61,20,462V206.143l149.385,149.385
			L36.983,487.929z M61.197,492l34-34h175.549c5.523,0,10-4.477,10-10s-4.477-10-10-10H115.197l28-28H212c5.523,0,10-4.477,10-10
			s-4.477-10-10-10h-48.803l48.901-48.901c24.208-24.208,63.596-24.208,87.804,0L450.803,492H61.197z M492,462
			c0,11.61-6.634,21.693-16.306,26.678c-0.211-0.258-0.437-0.509-0.678-0.75L464,476.912v-106.08c0-5.523-4.477-10-10-10
			s-10,4.477-10,10v86.08L342.615,355.528L492,206.143V462z"/>
	</g>
</g>
<g>
	<g>
		<path fill="#fff"
			d="M368,132H144c-5.523,0-10,4.477-10,10s4.477,10,10,10h224c5.523,0,10-4.477,10-10S373.523,132,368,132z" />
	</g>
</g>
<g>
	<g>
		<path fill="#fff"
			d="M368,184H144c-5.523,0-10,4.477-10,10s4.477,10,10,10h224c5.523,0,10-4.477,10-10S373.523,184,368,184z" />
	</g>
</g>
<g>
	<g>
		<path fill="#fff"
			d="M308.65,238.93c-1.86-1.86-4.44-2.93-7.07-2.93c-2.64,0-5.22,1.07-7.08,2.93s-2.92,4.44-2.92,7.07s1.06,5.21,2.92,7.07
			c1.87,1.86,4.44,2.93,7.08,2.93c2.63,0,5.2-1.07,7.07-2.93c1.86-1.86,2.93-4.44,2.93-7.07S310.51,240.79,308.65,238.93z"/>
	</g>
</g>
<g>
	<g>
		<path fill="#fff"
			d="M256,236H144c-5.523,0-10,4.477-10,10s4.477,10,10,10h112c5.523,0,10-4.477,10-10S261.523,236,256,236z" />
	</g>
</g>
<g>
	<g>
		<path fill="#fff"
			d="M461.07,322.84c-1.86-1.86-4.44-2.93-7.07-2.93s-5.21,1.07-7.07,2.93c-1.86,1.86-2.93,4.44-2.93,7.07s1.07,5.21,2.93,7.07
			s4.44,2.93,7.07,2.93s5.21-1.07,7.07-2.93s2.93-4.44,2.93-7.07S462.93,324.7,461.07,322.84z"/>
	</g>
</g>
<g>
</g>
<g>
</g>
<g>
</g>
<g>
</g>
<g>
</g>
<g>
</g>
<g>
</g>
<g>
</g>
<g>
</g>
<g>
</g>
<g>
</g>
<g>
</g>
<g>
</g>
<g>
</g>
<g>
</g>
</svg>
