<svg width="175" height="160" viewBox="0 0 175 160" fill="none" xmlns="http://www.w3.org/2000/svg">
<g filter="url(#filter0_d)">
<path fill-rule="evenodd" clip-rule="evenodd" d="M69.0067 16.2882C74.9606 15.7988 80.996 15.8804 86.8684 16.9407C99.4286 19.0612 111.336 24.852 120.797 33.4157C134.581 45.8128 142.982 64.1638 142.982 82.6779C143.389 99.4792 137.028 116.281 125.772 128.678C115.822 139.851 102.038 147.518 87.2762 150.046C80.7514 151.188 73.9819 151.351 67.3756 150.617C54.6522 149.149 42.3367 143.848 32.4679 135.692C17.7872 123.702 8.57092 105.107 8 86.1034C8 83.7382 8 81.2914 8 78.9261C8.97872 65.1425 14.2801 51.6851 23.007 40.9193C34.2623 26.9725 51.2267 17.8378 69.0067 16.2882ZM43.7232 28.5222C43.6416 30.0718 43.7232 31.6214 43.6416 33.0895C43.6416 50.2986 43.6416 67.5078 43.6416 84.7169C37.9325 84.7169 32.2233 84.7169 26.4325 84.7169C26.4325 97.6033 26.4325 110.49 26.4325 123.376C26.4325 123.539 26.5141 123.866 26.5141 123.947C38.0956 138.057 56.0387 146.947 74.3897 146.865C74.3897 126.149 74.3897 105.352 74.3897 84.6353C68.6805 84.6353 62.9713 84.6353 57.1806 84.6353C57.1806 64.0007 57.1806 43.2845 57.1806 22.6498C52.4501 24.1179 47.9643 26.1569 43.7232 28.5222ZM93.23 84.7169C87.5208 84.7169 81.8116 84.7169 76.0209 84.7169C76.0209 105.433 76.0209 126.231 76.0209 146.947C94.1272 147.192 111.989 138.709 123.733 124.926C124.06 124.518 123.897 123.866 123.978 123.376C123.978 110.49 123.978 97.6033 123.978 84.7169C118.269 84.7169 112.56 84.7169 106.769 84.7169C106.769 66.0397 106.769 47.3625 106.769 28.6853C106.769 28.5222 106.687 28.2775 106.606 28.1959C102.365 25.8307 97.8789 23.8732 93.23 22.5683C93.1485 43.2845 93.23 64.0007 93.23 84.7169ZM12.1596 84.7169C12.078 97.6033 16.5638 110.327 24.0673 120.766C24.312 121.093 24.5566 121.419 24.8829 121.663C24.9644 109.348 24.8829 97.0324 24.8829 84.7169C20.5602 84.7169 16.3191 84.7169 12.1596 84.7169ZM125.609 84.7169C125.609 97.3587 125.528 110 125.691 122.642C134.01 111.876 138.985 98.3374 138.985 84.7169C134.499 84.7169 130.014 84.7169 125.609 84.7169Z" fill="black"/>
</g>
<g clip-path="url(#clip0)" filter="url(#filter1_d)">
<path d="M80.8696 44.584C80.8668 37.0188 83.7698 29.4339 89.542 23.6618C101.081 12.1232 119.788 12.1232 131.327 23.6618C142.866 35.2004 142.866 53.9083 131.327 65.4469C125.545 71.2285 117.964 74.113 110.387 74.101L80.8696 44.584Z" fill="#685E68"/>
<path d="M131.346 65.4673C125.565 71.2478 117.983 74.1324 110.404 74.1209L105.813 69.5302C113.392 69.5417 120.975 66.6572 126.755 60.8766C137.517 50.1149 138.242 33.1119 128.924 21.5107C129.762 22.1801 130.569 22.9034 131.346 23.6798C142.884 35.2179 142.884 53.9292 131.346 65.4673Z" fill="#554E56"/>
<path d="M129.281 67.9931L86.9964 25.7082C86.1015 24.8133 86.1015 23.3622 86.9964 22.4675L92.1492 17.3148C93.0441 16.4198 94.4952 16.4198 95.3899 17.3148L137.675 59.5997C138.57 60.4946 138.57 61.9457 137.675 62.8404L132.522 67.9931C131.627 68.8881 130.176 68.8881 129.281 67.9931Z" fill="#26A6FE"/>
<path d="M137.619 62.8948L132.575 67.939C131.651 68.863 130.149 68.8648 129.226 67.9408L125.442 64.1571C126.368 65.083 127.869 65.0811 128.793 64.1571L133.837 59.1129C134.761 58.1889 134.761 56.6895 133.836 55.7637L137.619 59.5473C138.543 60.4713 138.543 61.971 137.619 62.8948V62.8948Z" fill="#0593FC"/>
<path d="M31.2521 123.735L23.8682 116.352L7.02583 135.595C5.58868 137.237 5.67085 139.712 7.21398 141.255L10.4732 144.515L13.7325 147.774C15.2756 149.317 17.7509 149.399 19.3929 147.962L38.6362 131.12L31.2521 123.735Z" fill="#E2DEE2"/>
<path d="M38.6348 131.119L19.3917 147.964C17.7486 149.4 15.2752 149.318 13.7315 147.774L9.18848 143.231C10.7303 144.773 13.2053 144.857 14.8466 143.419L34.0914 126.576L38.6348 131.119Z" fill="#CBC4CC"/>
<path d="M95.638 59.353L80.9674 44.6826L72.4899 57.8269L72.1081 58.1085L71.4385 59.1421L23.8691 116.354L31.253 123.738L38.6369 131.122L95.8492 83.5526L96.8826 82.883L96.9355 82.654L110.271 73.9855L95.638 59.353Z" fill="#685E68"/>
<path d="M110.366 74.0805L96.9196 82.8107L96.8832 82.8816L95.8499 83.5513L38.637 131.12L34.0942 126.576L91.305 79.0064L105.862 69.5762L110.366 74.0805Z" fill="#554E56"/>
<path d="M95.6388 59.3527L80.8711 44.585L72.1089 58.1082L84.4961 70.4954L96.8834 82.8827L110.407 74.1205L95.6388 59.3527Z" fill="#E2DEE2"/>
<path d="M110.406 74.122L96.882 82.8828L92.3374 78.3379L105.815 69.5312L110.406 74.122Z" fill="#CBC4CC"/>
<path d="M61.1114 94.1233L60.867 93.8789C58.8685 91.8805 58.8685 88.6403 60.867 86.6421L68.1685 79.3406C70.1669 77.3422 73.4071 77.3422 75.4053 79.3406L75.6497 79.5851C77.6482 81.5835 77.6482 84.8237 75.6497 86.8219L68.3482 94.1233C66.35 96.1218 63.1099 96.1218 61.1114 94.1233Z" fill="#E2DEE2"/>
<path d="M75.6483 86.9688L68.5164 94.1006C66.4284 96.1886 63.0415 96.1886 60.9535 94.1006C60.2653 93.4124 59.8031 92.5831 59.5713 91.7052C61.3539 92.1807 63.3353 91.7188 64.7351 90.3191L71.867 83.1872C72.9108 82.1434 73.4329 80.7745 73.4329 79.4056C73.4329 78.9417 73.3729 78.4756 73.2531 78.0234C74.1308 78.2555 74.96 78.7174 75.6485 79.4056C76.6924 80.4495 77.2144 81.8183 77.2144 83.1872C77.2144 84.5561 76.6924 85.9247 75.6483 86.9688V86.9688Z" fill="#CBC4CC"/>
<path d="M61.8804 85.6133L67.1256 80.3681L74.6776 87.9202L69.4324 93.1654L61.8804 85.6133Z" fill="#433F43"/>
<path d="M65.6528 89.3857L70.898 84.1406L74.6788 87.9214L69.4337 93.1666L65.6528 89.3857Z" fill="#333133"/>
<path d="M49.2501 23.2973C48.0239 27.2108 44.8392 34.323 37.4137 37.0995C36.8074 37.3261 36.8074 38.1985 37.4137 38.4252C44.8392 41.2016 48.0239 48.3139 49.2501 52.2273C49.4576 52.8894 50.3984 52.8894 50.6056 52.2273C51.8319 48.3139 55.0165 41.2016 62.442 38.4252C63.0483 38.1985 63.0483 37.3261 62.442 37.0995C55.0165 34.323 51.8319 27.2108 50.6056 23.2973C50.3984 22.6353 49.4576 22.6353 49.2501 23.2973Z" fill="#FDB441"/>
<path d="M62.4423 38.425C55.0166 41.2004 51.8327 48.3124 50.6072 52.2266C50.3989 52.8894 49.4577 52.8894 49.2494 52.2266C48.703 50.4817 47.7696 48.1093 46.2466 45.7612C47.6181 42.8395 48.9191 39.9642 53.0393 38.425C53.6454 38.1978 53.6454 37.3267 53.0393 37.0995C48.9194 35.5577 47.6183 32.6821 46.2466 29.7604C47.7696 27.415 48.7027 25.0399 49.2494 23.2979C49.4577 22.6351 50.3989 22.6351 50.6072 23.2979C51.8327 27.2095 55.0166 34.3213 62.4423 37.0995C63.0481 37.3267 63.0481 38.1978 62.4423 38.425Z" fill="#FEA613"/>
<path d="M91.7966 108.531C90.9004 111.391 88.573 116.589 83.1462 118.618C82.7032 118.784 82.7032 119.422 83.1462 119.587C88.573 121.616 90.9006 126.814 91.7966 129.674C91.9481 130.158 92.6358 130.158 92.7874 129.674C93.6836 126.814 96.011 121.616 101.438 119.587C101.881 119.422 101.881 118.784 101.438 118.618C96.011 116.589 93.6833 111.391 92.7874 108.531C92.6358 108.047 91.9484 108.047 91.7966 108.531Z" fill="#FDB441"/>
<path d="M101.437 119.587C96.0102 121.616 93.6834 126.813 92.7876 129.674C92.6353 130.158 91.9474 130.158 91.7951 129.674C91.3957 128.399 90.7135 126.665 89.6006 124.949C90.6028 122.813 90.4641 120.712 93.4753 119.587C93.9181 119.421 93.9181 118.784 93.4753 118.618C90.4641 117.491 90.6031 115.389 89.6006 113.254C90.7138 111.54 91.3957 109.804 91.7951 108.531C91.9474 108.047 92.6353 108.047 92.7876 108.531C93.6831 111.39 96.0102 116.588 101.437 118.618C101.88 118.784 101.88 119.421 101.437 119.587V119.587Z" fill="#FEA613"/>
<path d="M121.258 83.2796C120.129 86.8834 117.196 93.4333 110.357 95.9902C109.799 96.1991 109.799 97.0024 110.357 97.2112C117.196 99.7681 120.129 106.318 121.258 109.922C121.449 110.532 122.315 110.532 122.506 109.922C123.635 106.318 126.568 99.7681 133.406 97.2112C133.965 97.0024 133.965 96.1991 133.406 95.9902C126.568 93.4333 123.636 86.8834 122.506 83.2796C122.315 82.6698 121.449 82.6698 121.258 83.2796V83.2796Z" fill="#FDB441"/>
<path d="M133.406 97.2109C126.568 99.767 123.636 106.316 122.507 109.921C122.316 110.531 121.449 110.531 121.257 109.921C120.754 108.314 119.894 106.13 118.492 103.967C119.755 101.276 119.58 98.6284 123.374 97.2109C123.932 97.0015 123.932 96.1995 123.374 95.9901C119.58 94.5702 119.755 91.922 118.492 89.2314C119.894 87.0715 120.754 84.8843 121.257 83.2799C121.449 82.6697 122.316 82.6697 122.507 83.2799C123.636 86.8823 126.568 93.4316 133.406 95.9901C133.965 96.1995 133.965 97.0018 133.406 97.2109V97.2109Z" fill="#FEA613"/>
</g>
<defs>
<filter id="filter0_d" x="4" y="16" width="143" height="143.062" filterUnits="userSpaceOnUse" color-interpolation-filters="sRGB">
<feFlood flood-opacity="0" result="BackgroundImageFix"/>
<feColorMatrix in="SourceAlpha" type="matrix" values="0 0 0 0 0 0 0 0 0 0 0 0 0 0 0 0 0 0 127 0"/>
<feOffset dy="4"/>
<feGaussianBlur stdDeviation="2"/>
<feColorMatrix type="matrix" values="0 0 0 0 0 0 0 0 0 0 0 0 0 0 0 0 0 0 0.05 0"/>
<feBlend mode="normal" in2="BackgroundImageFix" result="effect1_dropShadow"/>
<feBlend mode="normal" in="SourceGraphic" in2="effect1_dropShadow" result="shape"/>
</filter>
<filter id="filter1_d" x="2" y="15" width="142" height="142" filterUnits="userSpaceOnUse" color-interpolation-filters="sRGB">
<feFlood flood-opacity="0" result="BackgroundImageFix"/>
<feColorMatrix in="SourceAlpha" type="matrix" values="0 0 0 0 0 0 0 0 0 0 0 0 0 0 0 0 0 0 127 0"/>
<feOffset dy="4"/>
<feGaussianBlur stdDeviation="2"/>
<feColorMatrix type="matrix" values="0 0 0 0 0 0 0 0 0 0 0 0 0 0 0 0 0 0 0.25 0"/>
<feBlend mode="normal" in2="BackgroundImageFix" result="effect1_dropShadow"/>
<feBlend mode="normal" in="SourceGraphic" in2="effect1_dropShadow" result="shape"/>
</filter>
<clipPath id="clip0">
<rect width="134" height="134" fill="white" transform="translate(6 15)"/>
</clipPath>
</defs>
</svg>
