<svg width="175" height="160" viewBox="0 0 175 160" fill="none" xmlns="http://www.w3.org/2000/svg">
<g clip-path="url(#clip0)">
<g filter="url(#filter0_d)">
<path fill-rule="evenodd" clip-rule="evenodd" d="M69.0067 16.2882C74.9606 15.7988 80.996 15.8804 86.8684 16.9407C99.4286 19.0612 111.336 24.852 120.797 33.4157C134.581 45.8128 142.982 64.1638 142.982 82.6779C143.389 99.4792 137.028 116.281 125.772 128.678C115.822 139.851 102.038 147.518 87.2762 150.046C80.7514 151.188 73.9819 151.351 67.3756 150.617C54.6522 149.149 42.3367 143.848 32.4679 135.692C17.7872 123.702 8.57092 105.107 8 86.1034C8 83.7382 8 81.2914 8 78.9261C8.97872 65.1425 14.2801 51.6851 23.007 40.9193C34.2623 26.9725 51.2267 17.8378 69.0067 16.2882ZM43.7232 28.5222C43.6416 30.0718 43.7232 31.6214 43.6416 33.0895C43.6416 50.2986 43.6416 67.5078 43.6416 84.7169C37.9325 84.7169 32.2233 84.7169 26.4325 84.7169C26.4325 97.6033 26.4325 110.49 26.4325 123.376C26.4325 123.539 26.5141 123.866 26.5141 123.947C38.0956 138.057 56.0387 146.947 74.3897 146.865C74.3897 126.149 74.3897 105.352 74.3897 84.6353C68.6805 84.6353 62.9713 84.6353 57.1806 84.6353C57.1806 64.0007 57.1806 43.2845 57.1806 22.6498C52.4501 24.1179 47.9643 26.1569 43.7232 28.5222ZM93.23 84.7169C87.5208 84.7169 81.8116 84.7169 76.0209 84.7169C76.0209 105.433 76.0209 126.231 76.0209 146.947C94.1272 147.192 111.989 138.709 123.733 124.926C124.06 124.518 123.897 123.866 123.978 123.376C123.978 110.49 123.978 97.6033 123.978 84.7169C118.269 84.7169 112.56 84.7169 106.769 84.7169C106.769 66.0397 106.769 47.3625 106.769 28.6853C106.769 28.5222 106.687 28.2775 106.606 28.1959C102.365 25.8307 97.8789 23.8732 93.23 22.5683C93.1485 43.2845 93.23 64.0007 93.23 84.7169ZM12.1596 84.7169C12.078 97.6033 16.5638 110.327 24.0673 120.766C24.312 121.093 24.5566 121.419 24.8829 121.663C24.9644 109.348 24.8829 97.0324 24.8829 84.7169C20.5602 84.7169 16.3191 84.7169 12.1596 84.7169ZM125.609 84.7169C125.609 97.3587 125.528 110 125.691 122.642C134.01 111.876 138.985 98.3374 138.985 84.7169C134.499 84.7169 130.014 84.7169 125.609 84.7169Z" fill="black"/>
</g>
<g filter="url(#filter1_d)">
<path d="M61.1761 129.67H27.5371C25.0289 129.67 22.9961 127.637 22.9961 125.129V88.0283C22.9961 85.5213 25.0289 83.4873 27.5371 83.4873H61.1761C63.6843 83.4873 65.7171 85.5213 65.7171 88.0283V125.129C65.7171 127.637 63.6843 129.67 61.1761 129.67Z" fill="#7393D8"/>
<path d="M61.1761 83.4873H27.5371C25.0289 83.4873 22.9961 85.5213 22.9961 88.0283V92.0348H65.7171V88.0283C65.7171 85.5213 63.6843 83.4873 61.1761 83.4873Z" fill="#C8EBFF"/>
<path d="M120.119 107.82H86.48C83.9718 107.82 81.939 105.787 81.939 103.279V88.0283C81.939 85.5213 83.9718 83.4873 86.48 83.4873H120.119C122.627 83.4873 124.66 85.5213 124.66 88.0283V103.279C124.66 105.787 122.627 107.82 120.119 107.82Z" fill="#7393D8"/>
<path d="M120.119 83.4873H112.454C114.961 83.4873 116.995 85.5213 116.995 88.0283V103.279C116.995 105.787 114.961 107.82 112.454 107.82H120.119C122.628 107.82 124.66 105.787 124.66 103.279V88.0283C124.66 85.5213 122.628 83.4873 120.119 83.4873V83.4873Z" fill="#3D6FB7"/>
<path d="M120.119 83.4873H86.48C83.9718 83.4873 81.939 85.5213 81.939 88.0283V92.0348H124.66V88.0283C124.66 85.5213 122.627 83.4873 120.119 83.4873Z" fill="#C8EBFF"/>
<path d="M116.995 88.0283V92.0348H124.66V88.0283C124.66 85.5213 122.628 83.4873 120.119 83.4873H112.454C114.962 83.4873 116.995 85.5213 116.995 88.0283Z" fill="#92CFEA"/>
<path d="M82.4727 62.7881V81.8722C82.4727 84.3804 84.5055 86.4132 87.0137 86.4132H110.361C112.868 86.4132 114.902 84.3804 114.902 81.8722V62.7881C114.902 60.2799 112.868 58.2471 110.361 58.2471H87.0137C84.5055 58.2471 82.4727 60.2799 82.4727 62.7881V62.7881Z" fill="#7393D8"/>
<path d="M110.361 58.2471H103.3C105.808 58.2471 107.841 60.2799 107.841 62.7881V81.8722C107.841 84.3804 105.808 86.4132 103.3 86.4132H110.361C112.868 86.4132 114.902 84.3804 114.902 81.8722V62.7881C114.902 60.2799 112.868 58.2471 110.361 58.2471Z" fill="#3D6FB7"/>
<path d="M110.361 58.2471H87.0137C84.5055 58.2471 82.4727 60.2799 82.4727 62.7881V66.6208H114.902V62.7881C114.902 60.2799 112.868 58.2471 110.361 58.2471Z" fill="#C8EBFF"/>
<path d="M110.361 58.2471H103.3C105.808 58.2471 107.841 60.2799 107.841 62.7881V66.6208H114.902V62.7881C114.902 60.2799 112.868 58.2471 110.361 58.2471Z" fill="#92CFEA"/>
<path d="M40.1006 62.7881V81.8722C40.1006 84.3804 42.1334 86.4132 44.6416 86.4132H67.9888C70.4958 86.4132 72.5298 84.3804 72.5298 81.8722V62.7881C72.5298 60.2799 70.4958 58.2471 67.9888 58.2471H44.6416C42.1334 58.2471 40.1006 60.2799 40.1006 62.7881Z" fill="#7393D8"/>
<path d="M67.9868 58.2471H60.9258C63.434 58.2471 65.4668 60.2799 65.4668 62.7881V81.8722C65.4668 84.3804 63.434 86.4132 60.9258 86.4132H67.9868C70.4938 86.4132 72.5278 84.3804 72.5278 81.8722V62.7881C72.5278 60.2799 70.495 58.2471 67.9868 58.2471Z" fill="#3D6FB7"/>
<path d="M67.9888 58.2471H44.6416C42.1334 58.2471 40.1006 60.2799 40.1006 62.7881V66.6208H72.5298V62.7881C72.5298 60.2799 70.497 58.2471 67.9888 58.2471Z" fill="#C8EBFF"/>
<path d="M67.9868 58.2471H60.9258C63.434 58.2471 65.4668 60.2799 65.4668 62.7881V66.6208H72.5278V62.7881C72.5278 60.2799 70.495 58.2471 67.9868 58.2471Z" fill="#92CFEA"/>
<path d="M106.571 147.52C105.666 147.52 104.828 147.044 104.364 146.267L92.3223 126.098H103.829L109.041 144.239C109.513 145.882 108.28 147.52 106.571 147.52V147.52Z" fill="#4A4A68"/>
<path d="M48.4322 147.52C49.3368 147.52 50.1752 147.044 50.64 146.267L62.6808 126.098H51.1745L45.9618 144.239C45.49 145.882 46.7234 147.52 48.4322 147.52Z" fill="#4A4A68"/>
<path d="M111.042 113.978C111.042 132.503 96.026 147.519 77.5013 147.519C58.9777 147.519 43.9604 132.503 43.9604 113.978C43.9604 95.4548 58.9777 80.4375 77.5013 80.4375C96.026 80.4375 111.042 95.4548 111.042 113.978V113.978Z" fill="#EDEDED"/>
<path d="M111.042 113.978C111.042 132.503 96.026 147.519 77.5013 147.519C58.9777 147.519 43.9604 132.503 43.9604 113.978C43.9604 95.4548 58.9777 80.4375 77.5013 80.4375C96.026 80.4375 111.042 95.4548 111.042 113.978V113.978Z" fill="#EDEDED"/>
<path d="M93.2139 84.3428C100.476 90.4956 105.087 99.6805 105.087 109.944C105.087 128.467 90.0706 143.485 71.5459 143.485C65.8684 143.485 60.5209 142.072 55.832 139.581C61.6774 144.533 69.2399 147.521 77.5 147.521C96.0248 147.521 111.041 132.505 111.041 113.98C111.041 101.134 103.819 89.9777 93.2139 84.3428V84.3428Z" fill="#C9C9C9"/>
<path d="M149.597 43.8146H136.1C135.802 41.5748 133.889 39.8447 131.566 39.8447C129.245 39.8447 127.332 41.5748 127.032 43.8146H113.536C111.806 43.8146 110.403 45.2171 110.403 46.9472C110.403 48.6772 111.806 50.0798 113.536 50.0798H149.597C151.327 50.0798 152.729 48.6772 152.729 46.9472C152.729 45.2171 151.327 43.8146 149.597 43.8146V43.8146Z" fill="#EFD76F"/>
<path d="M51.655 35.7118L39.9666 28.963C40.8287 26.8746 40.0364 24.4196 38.0249 23.2583C36.0145 22.0982 33.4921 22.6387 32.1144 24.4302L20.4261 17.6814C18.9278 16.8158 17.012 17.329 16.1464 18.8273C15.2819 20.3256 15.7952 22.2413 17.2935 23.107L48.5224 41.1362C50.0207 42.0018 51.9365 41.4886 52.8021 39.9903C53.6665 38.492 53.1533 36.5763 51.655 35.7118Z" fill="#EFD76F"/>
<path d="M113.102 110.09H120.119C123.875 110.09 126.931 107.035 126.931 103.279V88.0297C126.931 84.2739 123.875 81.2182 120.119 81.2182H117.171V66.7C117.171 66.674 117.173 66.6479 117.173 66.6219C117.173 66.5947 117.171 66.5699 117.171 66.5439V62.7881C117.171 59.0311 114.116 55.9766 110.36 55.9766H100.569C99.3147 55.9766 98.2989 56.9924 98.2989 58.2471C98.2989 59.5006 99.3147 60.5176 100.569 60.5176H110.36C111.611 60.5176 112.63 61.5358 112.63 62.7881V64.3514H84.7421V62.7881C84.7421 61.5358 85.7603 60.5176 87.0126 60.5176H91.1574C92.411 60.5176 93.428 59.5006 93.428 58.2471C93.428 56.9924 92.411 55.9766 91.1574 55.9766H87.0126C83.2568 55.9766 80.2011 59.0311 80.2011 62.7881V71.5674H74.8003V62.7881C74.8003 59.0311 71.7446 55.9766 67.9888 55.9766H44.6416C40.8858 55.9766 37.8301 59.0311 37.8301 62.7881V66.5439C37.8289 66.5699 37.8289 66.5947 37.8289 66.6219C37.8289 66.6479 37.8289 66.674 37.8301 66.7V81.2182H27.5371C23.7813 81.2182 20.7256 84.2739 20.7256 88.0297V98.9341C20.7256 100.189 21.7426 101.205 22.9961 101.205C24.2508 101.205 25.2666 100.189 25.2666 98.9341V94.3056H47.5897C43.8611 99.9546 41.6899 106.718 41.6899 113.979C41.6899 118.722 42.6171 123.253 44.2998 127.401H27.5371C26.2848 127.401 25.2666 126.381 25.2666 125.13V108.35C25.2666 107.095 24.2508 106.079 22.9961 106.079C21.7426 106.079 20.7256 107.095 20.7256 108.35V125.13C20.7256 128.886 23.7813 131.942 27.5371 131.942H46.529C46.6626 132.17 46.7986 132.398 46.9358 132.624L43.7795 143.611C43.355 145.087 43.6412 146.636 44.5647 147.861C45.4871 149.087 46.8967 149.79 48.4317 149.79C50.1287 149.79 51.7227 148.884 52.5872 147.431L55.637 142.323C61.6893 147.003 69.2754 149.79 77.5001 149.79C85.7248 149.79 93.3109 147.003 99.3632 142.323L102.411 147.427C103.277 148.885 104.87 149.79 106.569 149.79C108.102 149.79 109.513 149.087 110.435 147.862C111.358 146.636 111.645 145.087 111.221 143.611L108.064 132.624C111.392 127.19 113.311 120.804 113.311 113.979C113.311 112.665 113.241 111.367 113.102 110.09V110.09ZM120.119 105.549H112.31C111.327 101.488 109.649 97.6971 107.412 94.3056H122.39V103.279C122.39 104.531 121.372 105.549 120.119 105.549ZM122.39 88.0297V89.7646H103.863C103.525 89.3968 103.179 89.0373 102.827 88.6837H110.36C112.672 88.6837 114.719 87.526 115.95 85.7592H120.119C121.372 85.7592 122.39 86.7786 122.39 88.0297ZM84.7421 68.8924H112.629V81.8722C112.629 83.1245 111.611 84.1427 110.359 84.1427H97.2866C93.5391 81.6487 89.2973 79.8417 84.7421 78.9028V76.1084H91.2036C92.4571 76.1084 93.4741 75.0914 93.4741 73.8379C93.4741 72.5832 92.4571 71.5674 91.2036 71.5674H84.7421V68.8924ZM80.2011 76.1084V78.2677C79.3094 78.2015 78.4095 78.1672 77.5013 78.1672C76.5919 78.1672 75.692 78.2015 74.8003 78.2677V76.1084H80.2011ZM63.7978 76.1084H70.2593V78.9028C65.7041 79.8429 61.4623 81.6499 57.7148 84.1427H44.6416C43.3893 84.1427 42.3711 83.1245 42.3711 81.8722V68.8924H70.2593V71.5674H63.7978C62.5443 71.5674 61.5273 72.5832 61.5273 73.8379C61.5273 75.0914 62.5443 76.1084 63.7978 76.1084ZM44.6416 60.5176H67.9888C69.2411 60.5176 70.2593 61.5358 70.2593 62.7881V64.3514H42.3711V62.7881C42.3711 61.5358 43.3893 60.5176 44.6416 60.5176ZM25.2666 89.7646V88.0297C25.2666 86.7774 26.2848 85.7592 27.5371 85.7592H39.0517C40.2827 87.526 42.3297 88.6837 44.6416 88.6837H52.1745C51.8221 89.0373 51.4768 89.3968 51.1386 89.7646H25.2666ZM48.6871 145.106C48.5842 145.278 48.3146 145.293 48.1928 145.131C48.1325 145.05 48.116 144.962 48.1443 144.866L50.325 137.276C50.9151 137.964 51.5312 138.629 52.1721 139.27L48.6871 145.106ZM106.857 144.866C106.884 144.962 106.868 145.051 106.809 145.131C106.687 145.293 106.418 145.282 106.312 145.103L102.829 139.271C103.47 138.63 104.086 137.964 104.676 137.276L106.857 144.866ZM77.5013 145.249C60.2584 145.249 46.231 131.221 46.231 113.979C46.231 96.7334 60.262 82.7082 77.5013 82.7082C94.7158 82.7082 108.772 96.7073 108.772 113.979C108.77 131.221 94.743 145.249 77.5013 145.249V145.249Z" fill="black"/>
<path d="M16.0093 126.375V68.7171C16.0093 66.8924 16.4918 65.0926 17.4059 63.5103L33.7382 35.2212L35.7532 36.3848C36.8388 37.0116 38.2271 36.6391 38.8539 35.5535C39.4807 34.4679 39.1093 33.0796 38.0237 32.4516L34.0787 30.1752C34.0669 30.1669 34.0551 30.1598 34.0421 30.1539C34.0303 30.1468 34.0184 30.1397 34.0066 30.1338L18.4276 21.1381C18.1592 20.9832 18.061 20.7443 18.0255 20.6154C17.9912 20.4865 17.957 20.2299 18.1119 19.9615C18.3496 19.5488 18.8782 19.408 19.2897 19.6457L30.9781 26.3946C31.9643 26.9634 33.2178 26.7151 33.912 25.8128C34.6133 24.901 35.8928 24.6479 36.8897 25.2227C37.8854 25.7986 38.3052 27.0332 37.8665 28.0963C37.4325 29.1476 37.8452 30.3585 38.8303 30.9273L50.5186 37.6762C50.7883 37.8311 50.8852 38.07 50.9207 38.2C50.955 38.3278 50.9893 38.5844 50.8344 38.854C50.5955 39.2655 50.0681 39.4062 49.6566 39.1686L46.6481 37.4314C45.5625 36.8046 44.1742 37.1771 43.5463 38.2627C42.9195 39.3483 43.292 40.7378 44.3776 41.3646L47.386 43.1017C48.2351 43.5913 49.1622 43.8243 50.0787 43.8243C51.9472 43.8243 53.7671 42.8546 54.7664 41.1245C55.4889 39.8745 55.6805 38.4176 55.3068 37.0246C54.9331 35.6303 54.0391 34.4655 52.7891 33.743L42.5518 27.8326C42.7138 25.9972 42.1237 24.1619 40.9317 22.7641L41.7618 21.3273C42.3886 20.2406 42.0161 18.8522 40.9293 18.2255C39.8425 17.5987 38.4554 17.9712 37.8286 19.0568L36.9997 20.4936C35.1927 20.159 33.3065 20.5658 31.7976 21.6242L21.5602 15.7126C18.9799 14.2237 15.6687 15.1106 14.1799 17.691C13.4573 18.9409 13.2658 20.3967 13.6406 21.7909C14.0131 23.1839 14.9071 24.3499 16.1571 25.0713L29.8062 32.9507L13.4739 61.2386C12.1612 63.5103 11.4683 66.0965 11.4683 68.7171V126.382L0.288382 146.411C-0.323 147.506 0.0696089 148.89 1.16466 149.5C1.51469 149.696 1.89429 149.788 2.26916 149.788C3.06502 149.788 3.83723 149.37 4.25349 148.625L13.74 131.628L23.2276 148.625C23.839 149.72 25.2214 150.112 26.3164 149.501C27.4115 148.89 27.8029 147.506 27.1927 146.411L16.0093 126.375Z" fill="black"/>
<path d="M149.597 41.5426H137.776C136.998 39.8717 135.568 38.5768 133.836 37.963V36.3027C133.836 35.0492 132.82 34.0322 131.565 34.0322C130.31 34.0322 129.295 35.0492 129.295 36.3027V37.9642C127.563 38.578 126.135 39.8729 125.357 41.5426H113.536C110.557 41.5426 108.133 43.9669 108.133 46.9457C108.133 49.9246 110.557 52.3488 113.536 52.3488H129.295V126.38L118.115 146.411C117.503 147.506 117.895 148.889 118.99 149.499C120.085 150.111 121.469 149.719 122.08 148.623L131.566 131.626L141.054 148.623C141.469 149.368 142.242 149.788 143.038 149.788C143.413 149.788 143.793 149.694 144.143 149.499C145.238 148.888 145.629 147.506 145.019 146.411L133.836 126.374V52.3488H149.597C152.577 52.3488 155 49.9258 155 46.9457C155 43.9669 152.577 41.5426 149.597 41.5426V41.5426ZM149.597 47.8078H131.64C131.615 47.8066 131.59 47.8066 131.565 47.8066C131.54 47.8066 131.515 47.8078 131.491 47.8078H113.536C113.062 47.8078 112.675 47.4211 112.675 46.9457C112.675 46.4704 113.061 46.0848 113.536 46.0848H127.034C128.171 46.0848 129.134 45.2417 129.284 44.1135C129.434 42.9865 130.396 42.1339 131.53 42.115H131.565H131.603C132.737 42.1327 133.7 42.9854 133.85 44.1135C134 45.2417 134.963 46.0837 136.1 46.0837H149.598C150.072 46.0837 150.459 46.4704 150.459 46.9457C150.459 47.4211 150.072 47.8078 149.597 47.8078Z" fill="black"/>
</g>
</g>
<defs>
<filter id="filter0_d" x="4" y="16" width="143" height="143.062" filterUnits="userSpaceOnUse" color-interpolation-filters="sRGB">
<feFlood flood-opacity="0" result="BackgroundImageFix"/>
<feColorMatrix in="SourceAlpha" type="matrix" values="0 0 0 0 0 0 0 0 0 0 0 0 0 0 0 0 0 0 127 0"/>
<feOffset dy="4"/>
<feGaussianBlur stdDeviation="2"/>
<feColorMatrix type="matrix" values="0 0 0 0 0 0 0 0 0 0 0 0 0 0 0 0 0 0 0.05 0"/>
<feBlend mode="normal" in2="BackgroundImageFix" result="effect1_dropShadow"/>
<feBlend mode="normal" in="SourceGraphic" in2="effect1_dropShadow" result="shape"/>
</filter>
<filter id="filter1_d" x="-4" y="5" width="163" height="163" filterUnits="userSpaceOnUse" color-interpolation-filters="sRGB">
<feFlood flood-opacity="0" result="BackgroundImageFix"/>
<feColorMatrix in="SourceAlpha" type="matrix" values="0 0 0 0 0 0 0 0 0 0 0 0 0 0 0 0 0 0 127 0"/>
<feOffset dy="4"/>
<feGaussianBlur stdDeviation="2"/>
<feColorMatrix type="matrix" values="0 0 0 0 0 0 0 0 0 0 0 0 0 0 0 0 0 0 0.25 0"/>
<feBlend mode="normal" in2="BackgroundImageFix" result="effect1_dropShadow"/>
<feBlend mode="normal" in="SourceGraphic" in2="effect1_dropShadow" result="shape"/>
</filter>
<clipPath id="clip0">
<rect width="175" height="160" fill="white"/>
</clipPath>
</defs>
</svg>
