<svg width="635" height="169" viewBox="0 0 635 169" fill="none" xmlns="http://www.w3.org/2000/svg">
<path d="M147.245 41.2812C149.391 43.2226 152.252 44.2445 155.726 44.2445C159.2 44.2445 162.163 43.2226 164.82 41.2812C167.375 39.3397 168.908 36.8873 169.112 34.1283C169.521 31.2672 168.601 28.917 166.353 26.9755C164.105 25.034 161.244 24.0122 157.77 24.0122C154.295 24.0122 151.332 25.034 148.675 26.9755C146.019 28.917 144.588 31.3694 144.384 34.1283C144.077 36.8873 145.099 39.3397 147.245 41.2812Z" fill="black"/>
<path d="M122.21 69.8928C121.903 64.3749 119.757 59.6745 115.772 55.8937C111.378 51.602 105.656 49.354 98.7076 49.0474C90.2264 48.843 81.5408 51.1933 72.753 56.2002L73.3661 54.8719C74.2858 52.5216 74.1836 50.8867 72.9574 49.8649H50.4771C50.988 51.7042 49.5575 56.2002 46.1854 63.3531C43.8352 67.7469 41.485 72.1408 38.9304 76.4325C34.1278 85.7312 24.727 104.942 10.7279 133.962C4.80127 146.53 1.42921 153.683 0.611748 155.522C-0.3079 157.975 -0.205708 159.61 1.02049 160.529H26.5663C26.4641 160.12 26.3619 159.916 26.3619 159.814C25.9532 158.588 26.0554 156.748 26.7706 154.296C29.6318 146.632 32.0842 140.808 34.23 136.618L49.2509 103.204C52.5208 109.335 58.9583 112.708 68.6657 113.321C82.2561 114.036 94.8246 110.051 106.269 101.161C117.714 92.3731 123.027 81.9504 122.21 69.8928ZM85.9347 94.3145C79.8037 100.752 73.4684 103.715 67.0308 103.307C59.5714 102.694 55.995 97.9931 56.0972 89.3076C59.4692 82.6657 61.8194 78.0674 63.0456 75.615L66.1111 69.8928C67.6439 68.1557 68.8701 66.9295 69.7897 66.2142C75.0011 62.4334 80.0081 60.6963 84.6063 61.105C91.9635 61.6159 95.5399 65.9076 95.3355 73.9801C95.2333 81.0307 92.0657 87.877 85.9347 94.3145Z" fill="black"/>
<path d="M436.116 80.6219C435.299 79.9067 434.481 79.4979 433.664 79.4979C432.029 79.4979 430.394 80.9285 428.759 83.7896C428.044 84.9136 427.635 85.6289 427.533 86.0376C423.548 91.8621 419.358 94.7232 414.964 94.9276C413.738 94.9276 412.614 94.8254 411.694 94.5188C415.986 87.9791 418.132 81.5416 418.336 75.2062C418.336 68.9731 416.497 63.5574 412.716 58.9591C407.403 52.7259 399.739 49.5583 389.827 49.5583C380.222 49.5583 371.332 52.6238 363.055 58.6526C351.815 66.9294 346.195 76.4324 346.195 87.2638C346.195 87.5704 346.195 87.8769 346.195 88.2857C344.969 89.6141 343.64 90.8402 342.21 91.8621C339.757 93.9057 337.305 95.0298 334.751 95.0298C330.663 95.0298 328.517 93.2926 328.517 89.8184C328.517 88.5922 329.028 87.0595 329.948 85.2202C331.889 81.4394 333.831 77.5564 335.875 73.5713C338.429 68.2578 339.758 64.3748 339.553 61.9224C338.838 53.9521 333.524 49.8648 323.51 49.7626C314.007 49.6604 305.117 52.6238 296.738 58.7547C297.249 57.5285 297.658 56.5067 297.965 55.5871C299.089 53.2369 298.986 51.6019 297.76 50.5801H275.28C275.791 52.6238 274.156 57.6307 270.171 65.4988C266.186 73.0604 262.711 79.7023 259.646 85.4245C257.807 87.9791 255.763 90.125 253.515 91.8621C251.063 93.8036 248.508 94.8254 245.851 94.8254C241.559 94.8254 239.516 92.4752 239.72 87.7748C239.822 83.7896 244.421 73.4691 253.311 56.6089C254.843 53.7478 254.843 51.8063 253.311 50.6823H230.83C231.137 51.4997 230.932 53.2369 230.217 55.6892C229.502 54.7696 228.684 53.9521 227.765 53.339L227.152 52.9303C223.167 50.4779 218.16 49.2517 212.131 49.2517C209.27 49.2517 206.306 49.5583 203.241 50.1714C191.694 52.4194 182.293 57.4264 174.936 65.1923C168.294 72.2429 164.718 79.9067 164.002 88.1835C162.776 89.5119 161.55 90.7381 160.119 91.8621C157.667 93.8036 155.113 94.8254 152.456 94.8254C148.164 94.8254 146.223 92.4752 146.427 87.7748C146.427 85.118 148.266 79.9067 151.945 72.2429C153.273 69.1774 155.93 63.9661 159.813 56.6089C161.346 53.7478 161.346 51.8063 160.017 50.6823H137.537C138.252 52.9303 134.778 60.9006 127.217 74.7975C121.699 84.9136 118.94 92.373 118.94 97.2778C118.94 102.08 120.881 105.963 124.662 108.927C127.932 111.788 132.121 113.218 137.23 113.218C143.259 113.218 148.879 111.379 154.091 107.905C158.28 105.044 161.857 101.978 164.922 98.8105C166.046 101.876 167.681 104.533 170.133 106.883C174.425 111.175 180.045 113.218 186.891 113.218C191.183 113.218 195.373 112.299 199.562 110.562C203.752 108.824 208.043 105.452 212.437 100.65C213.153 103.818 214.89 106.576 217.751 108.927C221.225 111.788 225.517 113.218 230.728 113.218C236.655 113.218 242.173 111.379 247.384 107.905L247.486 107.803L244.932 112.707H270.273C275.484 101.467 279.367 93.0883 281.82 87.4682C285.498 80.111 288.666 74.7975 291.323 71.6298C296.534 65.0901 301.95 61.8202 307.57 61.8202C311.453 61.8202 313.496 63.2508 313.701 66.2141C313.803 68.1556 312.781 71.1189 310.431 75.0019C308.081 78.8848 305.73 82.7678 303.38 86.5486C300.928 91.249 299.702 95.4385 299.702 99.3215C299.804 103.511 301.439 106.883 304.402 109.438C307.979 112.401 312.781 113.831 318.81 113.729C324.941 113.729 330.357 112.197 334.853 109.131C338.736 106.576 342.721 102.898 347.012 98.0953C347.217 97.8909 347.421 97.5843 347.626 97.38C349.056 100.548 351.1 103.307 353.961 105.861C359.479 110.766 366.529 113.321 374.908 113.423C387.17 113.423 397.491 109.335 405.768 101.263C412.103 102.285 417.621 101.467 422.322 98.8105C427.022 96.1538 431.109 92.0664 434.583 86.5486L435.401 85.118C437.138 82.87 437.24 81.4394 436.116 80.6219ZM224.086 68.7687L216.422 83.1765C214.787 86.242 212.642 89.1031 210.087 91.6577C206.919 94.621 204.263 96.1538 202.015 96.256C193.942 96.6647 189.855 92.7817 189.855 84.6071C189.855 79.8045 191.388 75.0019 194.555 70.0971C197.723 65.1923 201.606 61.6159 206.306 59.2657C209.065 57.8351 212.029 57.1198 215.196 57.1198C217.444 57.1198 219.284 57.5285 220.918 58.4482C223.371 59.6744 224.597 61.7181 224.597 64.477C224.699 65.7032 224.495 67.1338 224.086 68.7687ZM403.111 70.1993C399.228 69.8927 396.06 71.0167 393.506 73.2647C390.951 75.5128 389.521 78.1695 389.316 81.1328C389.01 85.9355 390.849 90.3293 394.63 94.2123C390.951 97.0734 387.171 98.4018 383.492 98.4018C378.178 98.4018 374.602 95.9494 372.967 91.0446C371.434 87.0595 371.434 82.7678 372.763 78.1695C374.091 73.2648 376.748 68.7687 380.529 64.6814C385.025 59.9809 389.827 57.6307 394.936 57.6307C398.819 57.6307 401.783 59.2657 404.031 62.4333C405.666 64.8857 406.585 67.7469 406.687 71.1189C405.768 70.5058 404.542 70.1993 403.111 70.1993Z" fill="black"/>
<path d="M446.131 113.423C443.065 113.423 440.51 112.606 438.262 111.073C436.014 109.438 434.993 107.394 434.993 104.84C434.993 101.672 436.423 98.9133 439.386 96.7674C442.35 94.5194 445.62 93.4976 449.4 93.4976C452.262 93.4976 454.816 94.315 457.064 95.8478C459.21 97.4827 460.334 99.6286 460.334 102.285C460.334 105.351 458.903 108.008 455.94 110.256C452.977 112.299 449.707 113.423 446.131 113.423ZM544.839 71.3238C544.839 75.2068 544.124 78.9876 542.591 82.3596C536.971 94.9281 527.468 103.818 513.98 109.132C507.236 111.788 500.39 113.219 493.339 113.219C485.88 113.219 479.238 111.686 473.311 108.621C465.341 104.533 461.356 98.5045 461.356 90.3299C461.356 87.3666 462.071 84.5055 463.399 81.8487C464.217 80.1116 468.1 72.6522 475.151 59.3684L492.215 26.5676C494.565 22.1737 496.916 17.6777 499.47 13.2838C502.944 6.23317 504.375 1.8393 503.762 0H526.242C527.468 1.02183 527.57 2.65676 526.651 5.00697C524.301 10.0139 520.622 17.2689 515.717 26.5676L501.105 53.7483C507.032 50.6828 513.469 49.1501 520.418 48.9457C527.979 48.9457 533.906 50.9894 538.3 55.0767C542.694 59.3684 544.839 64.6819 544.839 71.3238ZM497.631 104.329C507.236 103.614 514.082 97.7893 518.272 86.9578C519.907 82.6662 520.724 78.3745 520.724 74.185C520.724 65.295 516.943 60.9012 509.178 60.9012C502.638 60.9012 496.916 64.0688 492.113 70.5064L485.471 83.1771C484.347 85.1185 483.836 87.4688 483.836 90.0233C483.836 94.1107 484.96 97.4827 487.31 100.139C489.967 103.409 493.339 104.738 497.631 104.329ZM609.726 55.4854C610.543 53.1352 610.85 51.5003 610.543 50.4785H633.023C634.25 51.5003 634.352 53.1352 633.432 55.4854C631.899 59.0619 629.345 64.3754 625.564 71.5282C620.455 81.9509 612.587 97.3805 601.858 117.817C601.04 119.146 599.916 121.087 598.588 123.744C602.573 124.766 606.149 126.094 609.317 127.831C617.287 132.429 621.272 137.232 621.272 142.443C621.375 145.713 620.046 148.676 617.287 151.129C614.426 153.581 611.258 154.91 607.478 155.012C605.127 155.012 602.777 154.501 600.427 153.377C597.157 151.946 595.318 149.903 594.909 147.246C594.398 144.896 594.603 143.772 595.727 143.772C595.727 143.772 596.544 144.283 598.077 145.202C599.61 146.224 601.347 146.531 603.084 146.326C607.171 145.918 609.317 143.976 609.317 140.297C609.317 136.006 604.719 132.225 595.522 128.853C592.048 133.86 589.8 137.232 588.472 138.969C580.91 148.676 573.246 156.034 565.48 161.041C557.715 166.048 549.642 168.5 541.263 168.5C534.825 168.5 529.41 166.865 525.016 163.697C520.622 160.53 518.476 156.647 518.476 152.253C518.476 146.939 520.826 142.035 525.425 137.334C529.716 133.145 535.132 129.67 541.876 127.014C552.401 122.722 564.152 120.678 576.925 120.883L578.56 117.919C581.217 113.321 583.669 108.621 586.224 103.512L589.085 97.7893C580.604 108.008 571.407 113.117 561.7 113.321C555.773 113.321 551.175 111.891 547.905 109.029C544.226 105.657 542.387 101.161 542.387 95.3369C542.387 90.8408 544.839 84.0967 549.642 75.4112C556.488 62.7404 559.963 54.9745 559.963 52.0112C559.963 51.3981 559.86 50.8872 559.554 50.5807H581.625C583.873 51.7047 583.976 53.8505 582.238 57.0182C579.275 62.5361 575.188 70.9151 570.079 82.0531C568.955 85.2207 568.546 87.9797 568.852 90.1255C569.568 93.8041 571.918 95.6434 575.903 95.6434C578.764 95.6434 582.749 93.2932 587.654 88.4906C598.281 78.1701 605.741 67.1343 609.726 55.4854ZM533.088 153.275C532.782 155.523 533.293 157.566 534.417 159.406C535.541 161.245 537.482 162.062 540.241 161.96C544.533 161.96 549.029 159.917 553.832 155.829C558.225 152.049 562.926 145.815 567.831 137.232C569.363 134.677 571.509 130.692 574.268 125.379C564.969 125.89 556.182 128.853 548.109 134.269C539.219 140.093 534.212 146.428 533.088 153.275Z" fill="#DE1D13"/>
</svg>
