<svg width="175" height="160" viewBox="0 0 175 160" fill="none" xmlns="http://www.w3.org/2000/svg">
<g clip-path="url(#clip0)">
<g filter="url(#filter0_d)">
<path fill-rule="evenodd" clip-rule="evenodd" d="M69.0067 16.2882C74.9606 15.7988 80.996 15.8804 86.8684 16.9407C99.4286 19.0612 111.336 24.852 120.797 33.4157C134.581 45.8128 142.982 64.1638 142.982 82.6779C143.389 99.4792 137.028 116.281 125.772 128.678C115.822 139.851 102.038 147.518 87.2762 150.046C80.7514 151.188 73.9819 151.351 67.3756 150.617C54.6522 149.149 42.3367 143.848 32.4679 135.692C17.7872 123.702 8.57092 105.107 8 86.1034C8 83.7382 8 81.2914 8 78.9261C8.97872 65.1425 14.2801 51.6851 23.007 40.9193C34.2623 26.9725 51.2267 17.8378 69.0067 16.2882ZM43.7232 28.5222C43.6416 30.0718 43.7232 31.6214 43.6416 33.0895C43.6416 50.2986 43.6416 67.5078 43.6416 84.7169C37.9325 84.7169 32.2233 84.7169 26.4325 84.7169C26.4325 97.6033 26.4325 110.49 26.4325 123.376C26.4325 123.539 26.5141 123.866 26.5141 123.947C38.0956 138.057 56.0387 146.947 74.3897 146.865C74.3897 126.149 74.3897 105.352 74.3897 84.6353C68.6805 84.6353 62.9713 84.6353 57.1806 84.6353C57.1806 64.0007 57.1806 43.2845 57.1806 22.6498C52.4501 24.1179 47.9643 26.1569 43.7232 28.5222ZM93.23 84.7169C87.5208 84.7169 81.8116 84.7169 76.0209 84.7169C76.0209 105.433 76.0209 126.231 76.0209 146.947C94.1272 147.192 111.989 138.709 123.733 124.926C124.06 124.518 123.897 123.866 123.978 123.376C123.978 110.49 123.978 97.6033 123.978 84.7169C118.269 84.7169 112.56 84.7169 106.769 84.7169C106.769 66.0397 106.769 47.3625 106.769 28.6853C106.769 28.5222 106.687 28.2775 106.606 28.1959C102.365 25.8307 97.8789 23.8732 93.23 22.5683C93.1485 43.2845 93.23 64.0007 93.23 84.7169ZM12.1596 84.7169C12.078 97.6033 16.5638 110.327 24.0673 120.766C24.312 121.093 24.5566 121.419 24.8829 121.663C24.9644 109.348 24.8829 97.0324 24.8829 84.7169C20.5602 84.7169 16.3191 84.7169 12.1596 84.7169ZM125.609 84.7169C125.609 97.3587 125.528 110 125.691 122.642C134.01 111.876 138.985 98.3374 138.985 84.7169C134.499 84.7169 130.014 84.7169 125.609 84.7169Z" fill="black"/>
</g>
<path d="M105.812 128.649C105.718 125.671 107.492 122.99 110.253 121.869C112.915 120.788 115.24 119.113 117.035 116.84C119.19 114.112 120.33 110.839 120.538 107.348C120.661 105.284 118.686 103.766 116.694 104.322C113.83 105.122 110.635 104.59 108.122 102.605C104.308 99.5924 103.383 94.2767 105.763 90.1954C106.111 89.5987 106.06 88.8263 105.578 88.3315C104.991 87.7278 104.041 87.7204 103.453 88.2889C100.036 91.592 94.6193 91.9409 90.7871 88.9143C88.2739 86.9295 87.0159 83.9455 87.1304 80.9733C87.2099 78.9073 85.2757 77.3375 83.2967 77.9355C79.9488 78.9471 77.0294 80.814 74.8744 83.5426C73.0795 85.8153 71.9888 88.4655 71.554 91.305C71.1029 94.2505 68.9062 96.5973 65.9871 97.196C59.6133 98.5033 52.0678 100.499 47.8667 105.819C37.7881 118.58 42.6007 139.178 56.4958 150.153C70.3908 161.127 91.5443 161.036 101.623 148.274C105.824 142.955 106.017 135.152 105.812 128.649V128.649Z" fill="url(#paint0_linear)"/>
<path d="M93.4821 105.946L100.73 96.7688C98.8263 95.2653 97.644 93.1862 97.232 90.978C97.232 90.9778 97.232 90.9773 97.2319 90.9771C94.9855 91.0879 92.6908 90.4183 90.7874 88.9148C90.1502 88.4115 89.5945 87.8438 89.1207 87.2287L81.6921 96.6346C81.0126 97.495 81.1597 98.7476 82.022 99.4286L90.6895 106.274C91.5518 106.955 92.8025 106.806 93.4821 105.946V105.946Z" fill="url(#paint1_linear)"/>
<path d="M101.623 148.274C91.5447 161.035 70.3908 161.128 56.4958 150.154C55.2549 149.174 54.0853 148.115 52.992 146.994C66.6944 155.174 85.0561 154.058 94.2334 142.438C98.4349 137.118 98.6275 129.316 98.4233 122.813C98.3283 119.835 100.104 117.154 102.864 116.033C105.526 114.951 107.85 113.276 109.646 111.003C111.155 109.092 112.166 106.916 112.706 104.581C114.04 104.774 115.402 104.683 116.694 104.322C118.686 103.766 120.662 105.285 120.537 107.348C120.329 110.839 119.189 114.112 117.035 116.839C115.24 119.113 112.916 120.788 110.253 121.869C107.494 122.991 105.718 125.672 105.813 128.649C106.017 135.152 105.825 142.954 101.623 148.274V148.274Z" fill="url(#paint2_linear)"/>
<path d="M95.3079 109.922L86.6403 103.076C85.7783 102.395 85.6314 101.144 86.3122 100.282L123.332 53.4091C124.013 52.5471 125.263 52.4002 126.126 53.081L134.793 59.9268C135.655 60.6076 135.802 61.8583 135.121 62.7205L98.1014 109.593C97.4206 110.455 96.17 110.602 95.3079 109.922V109.922Z" fill="url(#paint3_linear)"/>
<path d="M135.121 62.7194L98.1018 109.592C97.4201 110.455 96.1692 110.602 95.308 109.922L90.5303 106.149C91.3933 106.83 92.6442 106.683 93.3259 105.82L125.762 64.7504L120.375 60.4959C119.797 60.0389 119.342 59.4844 119.015 58.8729L123.332 53.4079C124.012 52.5466 125.263 52.3997 126.124 53.0799L134.793 59.9269C135.655 60.6073 135.802 61.8582 135.121 62.7194V62.7194Z" fill="url(#paint4_linear)"/>
<path d="M145.583 57.5194L126.328 42.3125L128.516 39.5428L147.77 54.7495L145.583 57.5194Z" fill="url(#paint5_linear)"/>
<path d="M149.573 48.9328L133.756 36.4406L135.944 33.6708L151.761 46.1632L149.573 48.9328Z" fill="url(#paint6_linear)"/>
<path d="M141.776 66.251L118.716 48.0381L120.903 45.2684L143.964 63.4813L141.776 66.251Z" fill="url(#paint7_linear)"/>
<path d="M132.919 62.6467L123.913 55.5341C121.923 53.9625 121.875 50.9613 123.813 49.3264L138.247 37.1511C140.427 35.3117 143.601 35.2604 145.84 37.0288C148.079 38.7971 148.765 41.8964 147.48 44.4438L138.981 61.3057C137.84 63.5701 134.909 64.2182 132.919 62.6467V62.6467Z" fill="url(#paint8_linear)"/>
<path d="M138.981 61.3055L147.48 44.4436C148.764 41.8962 148.079 38.7966 145.84 37.0286C145.007 36.3709 144.045 35.966 143.053 35.8101C143.697 37.379 143.669 39.1962 142.862 40.7963L134.362 57.6582C133.221 59.9223 130.29 60.5707 128.301 58.9991L123.913 55.5339L123.913 55.5341L132.919 62.6467C134.909 64.218 137.84 63.5698 138.981 61.3055V61.3055Z" fill="url(#paint9_linear)"/>
<path d="M136.935 31.6732C135.639 30.6495 133.758 30.8703 132.734 32.1666L131.548 33.6686C130.524 34.9649 130.745 36.8454 132.042 37.8692C133.338 38.893 135.218 38.6721 136.242 37.3758L137.428 35.8738C138.452 34.5775 138.231 32.6968 136.935 31.6732V31.6732Z" fill="url(#paint10_linear)"/>
<path d="M129.507 37.5443C128.211 36.5206 126.33 36.7414 125.306 38.0377L124.12 39.5397C123.096 40.836 123.317 42.7167 124.614 43.7403C125.91 44.7641 127.79 44.5432 128.814 43.2469L130 41.7449C131.024 40.4486 130.803 38.5681 129.507 37.5443V37.5443Z" fill="url(#paint11_linear)"/>
<path d="M122.652 43.8685C121.356 42.8448 119.475 43.0656 118.452 44.3619L117.265 45.864C116.241 47.1602 116.462 49.0407 117.759 50.0645C119.055 51.0883 120.935 50.8674 121.959 49.5711L123.145 48.0691C124.169 46.7728 123.948 44.8923 122.652 43.8685V43.8685Z" fill="url(#paint12_linear)"/>
<path d="M153.114 44.4496C151.818 43.4258 149.937 43.6467 148.913 44.943L147.727 46.445C146.703 47.7413 146.924 49.6218 148.22 50.6455C149.517 51.6693 151.397 51.4485 152.421 50.1522L153.607 48.6501C154.631 47.3541 154.41 45.4734 153.114 44.4496Z" fill="url(#paint13_linear)"/>
<path d="M149.123 53.0365C147.827 52.0127 145.946 52.2336 144.923 53.5299L143.736 55.0319C142.713 56.3282 142.934 58.2089 144.23 59.2325C145.526 60.2562 147.407 60.0354 148.43 58.7391L149.617 57.2371C150.64 55.941 150.42 54.0603 149.123 53.0365V53.0365Z" fill="url(#paint14_linear)"/>
<path d="M144.56 61.1703C143.263 60.1465 141.383 60.3674 140.359 61.6637L139.173 63.1657C138.149 64.462 138.37 66.3425 139.666 67.3663C140.962 68.39 142.843 68.1692 143.867 66.8729L145.053 65.3708C146.077 64.0746 145.856 62.1941 144.56 61.1703Z" fill="url(#paint15_linear)"/>
<path d="M92.2803 120.778L76.7793 108.536C75.9012 107.842 75.7515 106.568 76.4451 105.69L77.7066 104.093C78.4002 103.214 79.6745 103.065 80.5527 103.758L96.0537 116.001C96.9319 116.694 97.0816 117.969 96.388 118.847L95.1264 120.444C94.4328 121.322 93.1585 121.472 92.2803 120.778Z" fill="url(#paint16_linear)"/>
<path d="M86.3986 128.227L70.8976 115.984C70.0194 115.291 69.8698 114.016 70.5634 113.138L71.8249 111.541C72.5185 110.663 73.7928 110.513 74.671 111.206L90.172 123.449C91.0502 124.143 91.1998 125.417 90.5063 126.295L89.2447 127.892C88.5509 128.771 87.2768 128.92 86.3986 128.227Z" fill="url(#paint17_linear)"/>
<path d="M81.4766 151.853C83.7352 151.588 85.3511 149.542 85.0858 147.283C84.8205 145.025 82.7745 143.409 80.5159 143.674C78.2573 143.939 76.6414 145.985 76.9067 148.244C77.172 150.502 79.218 152.118 81.4766 151.853Z" fill="url(#paint18_linear)"/>
<path d="M92.9757 148.492C95.2343 148.226 96.8502 146.18 96.5849 143.922C96.3197 141.663 94.2737 140.047 92.0151 140.313C89.7565 140.578 88.1406 142.624 88.4059 144.883C88.6711 147.141 90.7171 148.757 92.9757 148.492Z" fill="url(#paint19_linear)"/>
<path d="M63.335 142.288L62.5631 141.678C58.0703 138.13 57.3046 131.611 60.853 127.118C61.5136 126.282 62.7274 126.139 63.5638 126.8L77.5765 137.867C78.4129 138.528 78.5555 139.741 77.8949 140.578C74.3463 145.071 67.8278 145.836 63.335 142.288V142.288Z" fill="url(#paint20_linear)"/>
<path d="M77.5763 137.867L72.9581 134.219C73.7946 134.88 73.9371 136.094 73.2765 136.93C70.2516 140.76 65.0688 141.879 60.822 139.928C61.3206 140.565 61.9001 141.155 62.5629 141.678L63.3348 142.288C67.8276 145.836 74.3463 145.07 77.8947 140.578C78.5555 139.741 78.413 138.528 77.5763 137.867Z" fill="url(#paint21_linear)"/>
</g>
<defs>
<filter id="filter0_d" x="4" y="16" width="143" height="143.062" filterUnits="userSpaceOnUse" color-interpolation-filters="sRGB">
<feFlood flood-opacity="0" result="BackgroundImageFix"/>
<feColorMatrix in="SourceAlpha" type="matrix" values="0 0 0 0 0 0 0 0 0 0 0 0 0 0 0 0 0 0 127 0"/>
<feOffset dy="4"/>
<feGaussianBlur stdDeviation="2"/>
<feColorMatrix type="matrix" values="0 0 0 0 0 0 0 0 0 0 0 0 0 0 0 0 0 0 0.05 0"/>
<feBlend mode="normal" in2="BackgroundImageFix" result="effect1_dropShadow"/>
<feBlend mode="normal" in="SourceGraphic" in2="effect1_dropShadow" result="shape"/>
</filter>
<linearGradient id="paint0_linear" x1="45.0612" y1="90.82" x2="111.735" y2="143.478" gradientUnits="userSpaceOnUse">
<stop stop-color="#CC2929"/>
<stop offset="0.593" stop-color="#FB2B3A"/>
<stop offset="1" stop-color="#C41926"/>
</linearGradient>
<linearGradient id="paint1_linear" x1="77.177" y1="85.3742" x2="91.7998" y2="96.9231" gradientUnits="userSpaceOnUse">
<stop stop-color="#FE646F"/>
<stop offset="0.593" stop-color="#FB2B3A"/>
<stop offset="1" stop-color="#C41926"/>
</linearGradient>
<linearGradient id="paint2_linear" x1="56.6131" y1="102.751" x2="94.532" y2="132.699" gradientUnits="userSpaceOnUse">
<stop stop-color="#FE646F"/>
<stop offset="0.593" stop-color="#FB2B3A"/>
<stop offset="1" stop-color="#C41926"/>
</linearGradient>
<linearGradient id="paint3_linear" x1="98.9906" y1="72.2668" x2="121.769" y2="90.2568" gradientUnits="userSpaceOnUse">
<stop stop-color="#537983"/>
<stop offset="0.593" stop-color="#554E56"/>
<stop offset="1" stop-color="#433F43"/>
</linearGradient>
<linearGradient id="paint4_linear" x1="93.4542" y1="67.8944" x2="116.233" y2="85.8845" gradientUnits="userSpaceOnUse">
<stop stop-color="#537983"/>
<stop offset="0.593" stop-color="#554E56"/>
<stop offset="1" stop-color="#433F43"/>
</linearGradient>
<linearGradient id="paint5_linear" x1="127.408" y1="40.9506" x2="146.66" y2="56.1555" gradientUnits="userSpaceOnUse">
<stop stop-color="#537983"/>
<stop offset="0.593" stop-color="#554E56"/>
<stop offset="1" stop-color="#433F43"/>
</linearGradient>
<linearGradient id="paint6_linear" x1="134.835" y1="35.0797" x2="150.65" y2="47.5703" gradientUnits="userSpaceOnUse">
<stop stop-color="#537983"/>
<stop offset="0.593" stop-color="#554E56"/>
<stop offset="1" stop-color="#433F43"/>
</linearGradient>
<linearGradient id="paint7_linear" x1="119.797" y1="46.6755" x2="142.854" y2="64.8857" gradientUnits="userSpaceOnUse">
<stop stop-color="#537983"/>
<stop offset="0.593" stop-color="#554E56"/>
<stop offset="1" stop-color="#433F43"/>
</linearGradient>
<linearGradient id="paint8_linear" x1="121.913" y1="36.0778" x2="151.469" y2="59.4204" gradientUnits="userSpaceOnUse">
<stop stop-color="#CC2929"/>
<stop offset="0.593" stop-color="#FB2B3A"/>
<stop offset="1" stop-color="#C41926"/>
</linearGradient>
<linearGradient id="paint9_linear" x1="120.247" y1="34.7441" x2="143.725" y2="53.2869" gradientUnits="userSpaceOnUse">
<stop stop-color="#FE646F"/>
<stop offset="0.593" stop-color="#FB2B3A"/>
<stop offset="1" stop-color="#C41926"/>
</linearGradient>
<linearGradient id="paint10_linear" x1="131.338" y1="32.3192" x2="136.437" y2="36.3462" gradientUnits="userSpaceOnUse">
<stop stop-color="#F8F6F7"/>
<stop offset="0.1788" stop-color="#F8F6F7"/>
<stop offset="1" stop-color="#E7E6F5"/>
</linearGradient>
<linearGradient id="paint11_linear" x1="123.911" y1="38.1894" x2="129.01" y2="42.2166" gradientUnits="userSpaceOnUse">
<stop stop-color="#F8F6F7"/>
<stop offset="0.1788" stop-color="#F8F6F7"/>
<stop offset="1" stop-color="#E7E6F5"/>
</linearGradient>
<linearGradient id="paint12_linear" x1="117.057" y1="44.5126" x2="122.156" y2="48.5398" gradientUnits="userSpaceOnUse">
<stop stop-color="#F8F6F7"/>
<stop offset="0.1788" stop-color="#F8F6F7"/>
<stop offset="1" stop-color="#E7E6F5"/>
</linearGradient>
<linearGradient id="paint13_linear" x1="148.16" y1="45.6031" x2="153.084" y2="49.4925" gradientUnits="userSpaceOnUse">
<stop stop-color="#F8F6F7"/>
<stop offset="0.1788" stop-color="#F8F6F7"/>
<stop offset="1" stop-color="#E7E6F5"/>
</linearGradient>
<linearGradient id="paint14_linear" x1="144.169" y1="54.1886" x2="149.094" y2="58.078" gradientUnits="userSpaceOnUse">
<stop stop-color="#F8F6F7"/>
<stop offset="0.1788" stop-color="#F8F6F7"/>
<stop offset="1" stop-color="#E7E6F5"/>
</linearGradient>
<linearGradient id="paint15_linear" x1="139.607" y1="62.3212" x2="144.531" y2="66.2106" gradientUnits="userSpaceOnUse">
<stop stop-color="#F8F6F7"/>
<stop offset="0.1788" stop-color="#F8F6F7"/>
<stop offset="1" stop-color="#E7E6F5"/>
</linearGradient>
<linearGradient id="paint16_linear" x1="75.226" y1="103.454" x2="99.2134" y2="122.399" gradientUnits="userSpaceOnUse">
<stop stop-color="#F8F6F7"/>
<stop offset="0.1788" stop-color="#F8F6F7"/>
<stop offset="1" stop-color="#E7E6F5"/>
</linearGradient>
<linearGradient id="paint17_linear" x1="69.3452" y1="110.901" x2="93.3326" y2="129.846" gradientUnits="userSpaceOnUse">
<stop stop-color="#F8F6F7"/>
<stop offset="0.1788" stop-color="#F8F6F7"/>
<stop offset="1" stop-color="#E7E6F5"/>
</linearGradient>
<linearGradient id="paint18_linear" x1="76.6697" y1="144.342" x2="83.7151" y2="149.907" gradientUnits="userSpaceOnUse">
<stop stop-color="#F8F6F7"/>
<stop offset="0.1788" stop-color="#F8F6F7"/>
<stop offset="1" stop-color="#E7E6F5"/>
</linearGradient>
<linearGradient id="paint19_linear" x1="89.275" y1="141.856" x2="95.5691" y2="146.827" gradientUnits="userSpaceOnUse">
<stop stop-color="#F8F6F7"/>
<stop offset="0.1788" stop-color="#F8F6F7"/>
<stop offset="1" stop-color="#E7E6F5"/>
</linearGradient>
<linearGradient id="paint20_linear" x1="15.3566" y1="96.5563" x2="116.497" y2="176.436" gradientUnits="userSpaceOnUse">
<stop stop-color="#537983"/>
<stop offset="0.593" stop-color="#554E56"/>
<stop offset="1" stop-color="#433F43"/>
</linearGradient>
<linearGradient id="paint21_linear" x1="20.213" y1="100.392" x2="84.4877" y2="151.155" gradientUnits="userSpaceOnUse">
<stop stop-color="#537983"/>
<stop offset="0.593" stop-color="#554E56"/>
<stop offset="1" stop-color="#433F43"/>
</linearGradient>
<clipPath id="clip0">
<rect width="175" height="160" fill="white"/>
</clipPath>
</defs>
</svg>
