<svg width="175" height="160" viewBox="0 0 175 160" fill="none" xmlns="http://www.w3.org/2000/svg">
<rect x="5.5" y="5.5" width="149" height="149" rx="74.5" fill="white" stroke="black"/>
<path d="M71.1759 124.682H37.5367C35.0284 124.682 32.9956 122.649 32.9956 120.141V83.0402C32.9956 80.5332 35.0284 78.4991 37.5367 78.4991H71.1759C73.6841 78.4991 75.7169 80.5332 75.7169 83.0402V120.141C75.7169 122.649 73.6841 124.682 71.1759 124.682Z" fill="#7393D8"/>
<path d="M71.1759 78.4991H37.5367C35.0284 78.4991 32.9956 80.5332 32.9956 83.0402V87.0467H75.7169V83.0402C75.7169 80.5332 73.6841 78.4991 71.1759 78.4991Z" fill="#C8EBFF"/>
<path d="M130.121 102.832H96.482C93.9737 102.832 91.9409 100.799 91.9409 98.2906V83.0402C91.9409 80.5332 93.9737 78.4991 96.482 78.4991H130.121C132.629 78.4991 134.662 80.5332 134.662 83.0402V98.2906C134.662 100.799 132.629 102.832 130.121 102.832Z" fill="#7393D8"/>
<path d="M130.119 78.4991H122.454C124.961 78.4991 126.995 80.5332 126.995 83.0402V98.2906C126.995 100.799 124.961 102.832 122.454 102.832H130.119C132.627 102.832 134.66 100.799 134.66 98.2906V83.0402C134.66 80.5332 132.627 78.4991 130.119 78.4991Z" fill="#3D6FB7"/>
<path d="M130.121 78.4991H96.482C93.9737 78.4991 91.9409 80.5332 91.9409 83.0402V87.0467H134.662V83.0402C134.662 80.5332 132.629 78.4991 130.121 78.4991Z" fill="#C8EBFF"/>
<path d="M126.995 83.0402V87.0467H134.66V83.0402C134.66 80.5332 132.627 78.4991 130.119 78.4991H122.454C124.962 78.4991 126.995 80.5332 126.995 83.0402Z" fill="#92CFEA"/>
<path d="M92.4731 57.8022V76.8864C92.4731 79.3946 94.506 81.4275 97.0142 81.4275H120.362C122.869 81.4275 124.903 79.3946 124.903 76.8864V57.8022C124.903 55.2939 122.869 53.2611 120.362 53.2611H97.0142C94.506 53.2611 92.4731 55.2939 92.4731 57.8022Z" fill="#7393D8"/>
<path d="M120.362 53.2611H113.301C115.809 53.2611 117.842 55.2939 117.842 57.8022V76.8864C117.842 79.3946 115.809 81.4275 113.301 81.4275H120.362C122.869 81.4275 124.903 79.3946 124.903 76.8864V57.8022C124.903 55.2939 122.869 53.2611 120.362 53.2611Z" fill="#3D6FB7"/>
<path d="M120.362 53.2611H97.0142C94.506 53.2611 92.4731 55.2939 92.4731 57.8022V61.6349H124.903V57.8022C124.903 55.2939 122.869 53.2611 120.362 53.2611Z" fill="#C8EBFF"/>
<path d="M120.362 53.2611H113.301C115.809 53.2611 117.842 55.2939 117.842 57.8022V61.6349H124.903V57.8022C124.903 55.2939 122.869 53.2611 120.362 53.2611Z" fill="#92CFEA"/>
<path d="M50.1001 57.8022V76.8864C50.1001 79.3946 52.1329 81.4275 54.6411 81.4275H77.9885C80.4956 81.4275 82.5296 79.3946 82.5296 76.8864V57.8022C82.5296 55.2939 80.4956 53.2611 77.9885 53.2611H54.6411C52.1329 53.2611 50.1001 55.2939 50.1001 57.8022Z" fill="#7393D8"/>
<path d="M77.9864 53.2611H70.9253C73.4335 53.2611 75.4663 55.2939 75.4663 57.8022V76.8864C75.4663 79.3946 73.4335 81.4275 70.9253 81.4275H77.9864C80.4934 81.4275 82.5274 79.3946 82.5274 76.8864V57.8022C82.5274 55.2939 80.4946 53.2611 77.9864 53.2611Z" fill="#3D6FB7"/>
<path d="M77.9885 53.2611H54.6411C52.1329 53.2611 50.1001 55.2939 50.1001 57.8022V61.6349H82.5296V57.8022C82.5296 55.2939 80.4968 53.2611 77.9885 53.2611Z" fill="#C8EBFF"/>
<path d="M77.9864 53.2611H70.9253C73.4335 53.2611 75.4663 55.2939 75.4663 57.8022V61.6349H82.5274V57.8022C82.5274 55.2939 80.4946 53.2611 77.9864 53.2611Z" fill="#92CFEA"/>
<path d="M116.57 142.532C115.666 142.532 114.827 142.056 114.364 141.279L102.322 121.11H113.828L119.041 139.251C119.513 140.894 118.279 142.532 116.57 142.532Z" fill="#4A4A68"/>
<path d="M58.4312 142.532C59.3359 142.532 60.1743 142.056 60.6391 141.279L72.6799 121.11H61.1736L55.9608 139.251C55.489 140.894 56.7224 142.532 58.4312 142.532Z" fill="#4A4A68"/>
<path d="M121.042 108.988C121.042 127.513 106.026 142.529 87.5011 142.529C68.9774 142.529 53.96 127.513 53.96 108.988C53.96 90.4642 68.9774 75.4468 87.5011 75.4468C106.026 75.4468 121.042 90.4642 121.042 108.988Z" fill="#EDEDED"/>
<path d="M121.042 108.988C121.042 127.513 106.026 142.529 87.5011 142.529C68.9774 142.529 53.96 127.513 53.96 108.988C53.96 90.4642 68.9774 75.4468 87.5011 75.4468C106.026 75.4468 121.042 90.4642 121.042 108.988Z" fill="#EDEDED"/>
<path d="M103.215 79.3518C110.477 85.5047 115.088 94.6897 115.088 104.953C115.088 123.477 100.071 138.494 81.5465 138.494C75.869 138.494 70.5214 137.081 65.8325 134.591C71.6779 139.542 79.2405 142.53 87.5007 142.53C106.026 142.53 121.042 127.514 121.042 108.989C121.042 96.1431 113.82 84.9867 103.215 79.3518Z" fill="#C9C9C9"/>
<path d="M159.597 38.8246H146.1C145.802 36.5848 143.889 34.8547 141.566 34.8547C139.245 34.8547 137.331 36.5848 137.032 38.8246H123.535C121.805 38.8246 120.403 40.2271 120.403 41.9572C120.403 43.6873 121.805 45.0898 123.535 45.0898H159.597C161.327 45.0898 162.729 43.6873 162.729 41.9572C162.729 40.2271 161.327 38.8246 159.597 38.8246Z" fill="#EFD76F"/>
<path d="M61.6538 30.7217L49.9654 23.9728C50.8274 21.8844 50.0351 19.4294 48.0236 18.2681C46.0132 17.108 43.4908 17.6485 42.1131 19.4401L30.4246 12.6912C28.9263 11.8255 27.0106 12.3388 26.1449 13.8371C25.2805 15.3354 25.7937 17.2511 27.292 18.1168L58.5212 36.1462C60.0195 37.0118 61.9353 36.4986 62.8009 35.0003C63.6654 33.502 63.1521 31.5862 61.6538 30.7217Z" fill="#EFD76F"/>
<path d="M123.102 105.1H130.12C133.876 105.1 136.931 102.044 136.931 98.2883V83.0392C136.931 79.2833 133.876 76.2276 130.12 76.2276H127.172V61.7092C127.172 61.6832 127.173 61.6572 127.173 61.6312C127.173 61.604 127.172 61.5791 127.172 61.5531V57.7973C127.172 54.0403 124.116 50.9857 120.36 50.9857H110.57C109.315 50.9857 108.299 52.0015 108.299 53.2562C108.299 54.5098 109.315 55.5268 110.57 55.5268H120.36C121.611 55.5268 122.631 56.545 122.631 57.7973V59.3606H94.7421V57.7973C94.7421 56.545 95.7603 55.5268 97.0126 55.5268H101.158C102.411 55.5268 103.428 54.5098 103.428 53.2562C103.428 52.0015 102.411 50.9857 101.158 50.9857H97.0126C93.2568 50.9857 90.2011 54.0403 90.2011 57.7973V66.5767H84.8003V57.7973C84.8003 54.0403 81.7445 50.9857 77.9887 50.9857H54.6413C50.8855 50.9857 47.8297 54.0403 47.8297 57.7973V61.5531C47.8285 61.5791 47.8285 61.604 47.8285 61.6312C47.8285 61.6572 47.8285 61.6832 47.8297 61.7092V76.2276H37.5367C33.7808 76.2276 30.7251 79.2833 30.7251 83.0392V93.9436C30.7251 95.1983 31.7421 96.2141 32.9956 96.2141C34.2503 96.2141 35.2661 95.1983 35.2661 93.9436V89.315H57.5894C53.8608 94.9642 51.6896 101.727 51.6896 108.988C51.6896 113.731 52.6168 118.263 54.2995 122.41H37.5367C36.2843 122.41 35.2661 121.391 35.2661 120.14V103.359C35.2661 102.104 34.2503 101.089 32.9956 101.089C31.7421 101.089 30.7251 102.104 30.7251 103.359V120.14C30.7251 123.896 33.7808 126.951 37.5367 126.951H56.5287C56.6623 127.18 56.7983 127.408 56.9355 127.634L53.7792 138.621C53.3547 140.097 53.6409 141.646 54.5644 142.871C55.4868 144.097 56.8965 144.8 58.4314 144.8C60.1284 144.8 61.7225 143.894 62.587 142.441L65.6368 137.333C71.6892 142.013 79.2753 144.8 87.5001 144.8C95.7248 144.8 103.311 142.013 109.363 137.333L112.411 142.437C113.278 143.895 114.871 144.8 116.569 144.8C118.103 144.8 119.513 144.097 120.436 142.872C121.358 141.646 121.645 140.097 121.221 138.621L118.065 127.634C121.392 122.2 123.312 115.814 123.312 108.988C123.312 107.674 123.241 106.377 123.102 105.1ZM130.12 100.559H122.31C121.327 96.4979 119.649 92.7066 117.412 89.315H132.39V98.2883C132.39 99.5407 131.372 100.559 130.12 100.559ZM132.39 83.0392V84.774H113.863C113.525 84.4062 113.179 84.0467 112.827 83.6931H120.36C122.672 83.6931 124.719 82.5354 125.95 80.7686H130.12C131.372 80.7686 132.39 81.788 132.39 83.0392ZM94.7421 63.9017H122.629V76.8815C122.629 78.1339 121.611 79.1521 120.359 79.1521H107.287C103.539 76.658 99.2974 74.8511 94.7421 73.9121V71.1177H101.204C102.457 71.1177 103.474 70.1007 103.474 68.8472C103.474 67.5925 102.457 66.5767 101.204 66.5767H94.7421V63.9017ZM90.2011 71.1177V73.2771C89.3094 73.2109 88.4095 73.1766 87.5013 73.1766C86.5919 73.1766 85.6919 73.2109 84.8003 73.2771V71.1177H90.2011ZM73.7977 71.1177H80.2592V73.9121C75.704 74.8523 71.4621 76.6592 67.7146 79.1521H54.6413C53.389 79.1521 52.3708 78.1339 52.3708 76.8815V63.9017H80.2592V66.5767H73.7977C72.5442 66.5767 71.5272 67.5925 71.5272 68.8472C71.5272 70.1007 72.5442 71.1177 73.7977 71.1177ZM54.6413 55.5268H77.9887C79.241 55.5268 80.2592 56.545 80.2592 57.7973V59.3606H52.3708V57.7973C52.3708 56.545 53.389 55.5268 54.6413 55.5268ZM35.2661 84.774V83.0392C35.2661 81.7868 36.2843 80.7686 37.5367 80.7686H49.0513C50.2824 82.5354 52.3294 83.6931 54.6413 83.6931H62.1742C61.8218 84.0467 61.4765 84.4062 61.1383 84.774H35.2661ZM58.6869 140.116C58.584 140.288 58.3144 140.303 58.1926 140.141C58.1322 140.06 58.1157 139.971 58.1441 139.876L60.3247 132.286C60.9148 132.974 61.5309 133.639 62.1719 134.28L58.6869 140.116ZM116.857 139.876C116.884 139.971 116.868 140.061 116.809 140.141C116.687 140.303 116.419 140.292 116.312 140.113L112.829 134.281C113.47 133.64 114.087 132.974 114.677 132.286L116.857 139.876ZM87.5013 140.259C70.2583 140.259 56.2307 126.231 56.2307 108.988C56.2307 91.7428 70.2618 77.7176 87.5013 77.7176C104.716 77.7176 118.772 91.7168 118.772 108.988C118.771 126.231 104.743 140.259 87.5013 140.259Z" fill="black"/>
<path d="M26.0094 121.386V63.7273C26.0094 61.9026 26.4919 60.1027 27.406 58.5205L43.7384 30.2311L45.7535 31.3948C46.8391 32.0215 48.2275 31.649 48.8542 30.5634C49.481 29.4778 49.1096 28.0895 48.0241 27.4615L44.079 25.1851C44.0672 25.1768 44.0554 25.1697 44.0424 25.1638C44.0305 25.1567 44.0187 25.1496 44.0069 25.1437L28.4278 16.1479C28.1593 15.993 28.0612 15.7541 28.0257 15.6252C27.9914 15.4963 27.9571 15.2397 28.112 14.9713C28.3497 14.5586 28.8783 14.4178 29.2899 14.6555L40.9783 21.4044C41.9646 21.9733 43.2181 21.7249 43.9123 20.8226C44.6135 19.9109 45.8931 19.6578 46.89 20.2325C47.8857 20.8084 48.3055 22.043 47.8668 23.1062C47.4328 24.1575 47.8455 25.3684 48.8306 25.9372L60.519 32.6861C60.7887 32.841 60.8856 33.0799 60.9211 33.21C60.9554 33.3377 60.9897 33.5943 60.8348 33.864C60.5959 34.2755 60.0685 34.4162 59.657 34.1785L56.6485 32.4413C55.5629 31.8146 54.1746 32.1871 53.5466 33.2727C52.9199 34.3583 53.2924 35.7478 54.378 36.3745L57.3864 38.1117C58.2355 38.6013 59.1626 38.8343 60.0791 38.8343C61.9476 38.8343 63.7676 37.8646 64.7668 36.1345C65.4894 34.8845 65.6809 33.4276 65.3073 32.0345C64.9336 30.6403 64.0395 29.4755 62.7896 28.7529L52.5521 22.8424C52.7141 21.0071 52.124 19.1718 50.932 17.774L51.7621 16.3371C52.3889 15.2504 52.0164 13.862 50.9296 13.2353C49.8428 12.6085 48.4557 12.981 47.8289 14.0666L47 15.5034C45.193 15.1688 43.3068 15.5756 41.7978 16.634L31.5604 10.7223C28.98 9.23348 25.6688 10.1204 24.18 12.7008C23.4574 13.9507 23.2659 15.4065 23.6407 16.8007C24.0132 18.1938 24.9073 19.3598 26.1572 20.0812L39.8064 27.9606L23.474 56.2487C22.1613 58.5205 21.4684 61.1067 21.4684 63.7273V121.393L10.2884 141.422C9.677 142.517 10.0696 143.901 11.1647 144.511C11.5147 144.707 11.8943 144.799 12.2692 144.799C13.065 144.799 13.8373 144.381 14.2535 143.636L23.7401 126.639L33.2278 143.636C33.8392 144.731 35.2216 145.123 36.3167 144.512C37.4117 143.901 37.8031 142.517 37.1929 141.422L26.0094 121.386Z" fill="black"/>
<path d="M159.597 36.5528H147.776C146.998 34.8819 145.568 33.587 143.835 32.9732V31.3129C143.835 30.0594 142.82 29.0424 141.565 29.0424C140.31 29.0424 139.294 30.0594 139.294 31.3129V32.9744C137.563 33.5881 136.135 34.883 135.356 36.5528H123.535C120.557 36.5528 118.132 38.9771 118.132 41.956C118.132 44.9349 120.557 47.3591 123.535 47.3591H139.294V121.391L128.114 141.422C127.503 142.517 127.894 143.9 128.989 144.51C130.085 145.122 131.468 144.73 132.08 143.634L141.566 126.637L151.054 143.634C151.469 144.379 152.242 144.799 153.038 144.799C153.413 144.799 153.793 144.706 154.143 144.51C155.238 143.899 155.629 142.517 155.019 141.422L143.835 121.385V47.3591H159.597C162.577 47.3591 165 44.936 165 41.956C165 38.9771 162.577 36.5528 159.597 36.5528ZM159.597 42.8181H141.639C141.615 42.8169 141.59 42.8169 141.565 42.8169C141.54 42.8169 141.515 42.8181 141.49 42.8181H123.535C123.061 42.8181 122.675 42.4314 122.675 41.956C122.675 41.4806 123.06 41.0951 123.535 41.0951H137.033C138.171 41.0951 139.134 40.2519 139.284 39.1237C139.434 37.9967 140.395 37.1441 141.529 37.1252H141.565H141.603C142.737 37.1429 143.699 37.9956 143.85 39.1237C144 40.2519 144.962 41.0939 146.1 41.0939H159.598C160.072 41.0939 160.459 41.4806 160.459 41.956C160.459 42.4314 160.072 42.8181 159.597 42.8181Z" fill="black"/>
</svg>
