<svg width="40" height="32" viewBox="0 0 40 32" fill="none" xmlns="http://www.w3.org/2000/svg">
<rect x="2.5" y="0.5" width="31" height="31" rx="15.5" fill="white" stroke="black"/>
<path d="M18.4131 29.6779L1.02627 28.1568C0.708403 28.1289 0.47115 27.8462 0.49896 27.5283L2.68211 2.57482C2.70992 2.25695 2.99267 2.0197 3.31054 2.04751L20.6973 3.56865C21.0152 3.59646 21.2525 3.87921 21.2247 4.19708L19.0415 29.1506C19.0137 29.4685 18.731 29.7057 18.4131 29.6779Z" fill="#696867"/>
<path d="M20.6973 3.56864L19.1213 3.43076C19.4392 3.45857 19.6765 3.74131 19.6487 4.05918L17.4655 29.0127C17.4377 29.3306 17.1549 29.5678 16.8371 29.54L18.4131 29.6779C18.731 29.7057 19.0137 29.4684 19.0415 29.1506L21.2247 4.19707C21.2525 3.8792 21.0152 3.59645 20.6973 3.56864Z" fill="#544F4F"/>
<path d="M15.2502 8.88877C15.069 10.9595 13.2435 12.4915 11.1727 12.3103C9.10197 12.1292 7.57003 10.3035 7.75119 8.23269C7.93236 6.16192 9.75804 4.63018 11.8288 4.81135C13.8996 4.99252 15.4313 6.818 15.2502 8.88877Z" fill="#9A9999"/>
<path d="M11.8288 4.81134C11.5583 4.78768 11.2923 4.79397 11.0334 4.82613C12.6939 5.33616 13.8316 6.95057 13.6741 8.75088C13.5166 10.5514 12.1159 11.9437 10.392 12.1577C10.6413 12.2343 10.9022 12.2867 11.1727 12.3103C13.2435 12.4915 15.069 10.9595 15.2501 8.88876C15.4313 6.81799 13.8995 4.99251 11.8288 4.81134Z" fill="#696867"/>
<path d="M13.6776 8.75119C13.5724 9.95351 12.5124 10.8428 11.3102 10.7376C10.1079 10.6324 9.21864 9.57261 9.32383 8.37029C9.429 7.16817 10.4888 6.27868 11.6911 6.38387C12.8933 6.48904 13.7827 7.54907 13.6776 8.75119Z" fill="#ECECEC"/>
<path d="M15.8101 22.004C15.5471 25.0105 12.8966 27.2346 9.89003 26.9715C6.88329 26.7085 4.65925 24.058 4.92229 21.0514C5.18533 18.0449 7.83584 15.8209 10.8426 16.0839C13.8491 16.347 16.0731 18.9975 15.8101 22.004Z" fill="#9A9999"/>
<path d="M10.8426 16.0839C10.5748 16.0605 10.3102 16.057 10.0496 16.0718C12.6492 16.6841 14.4737 19.1272 14.2341 21.8661C13.9945 24.6048 11.7735 26.694 9.10701 26.8455C9.36108 26.9054 9.62223 26.9481 9.89003 26.9715C12.8966 27.2346 15.5471 25.0105 15.8101 22.004C16.0731 18.9975 13.8491 16.347 10.8426 16.0839V16.0839Z" fill="#696867"/>
<path d="M14.2213 21.865C14.0351 23.9941 12.158 25.5693 10.029 25.383C7.8997 25.1967 6.32471 23.3195 6.51097 21.1905C6.69726 19.0612 8.57429 17.4862 10.7035 17.6725C12.8326 17.8587 14.4076 19.7358 14.2213 21.865V21.865Z" fill="#ECECEC"/>
<path d="M11.6912 6.38385C11.4131 6.35953 11.143 6.38903 10.8903 6.46266C11.6751 6.84956 12.1825 7.68902 12.1016 8.61329C12.0207 9.53755 11.3753 10.2764 10.5352 10.5211C10.7713 10.6373 11.0322 10.7133 11.3103 10.7376C12.5124 10.8428 13.5724 9.95349 13.6776 8.75117C13.7828 7.54905 12.8933 6.48902 11.6912 6.38385Z" fill="#DBDEDF"/>
<path d="M10.7035 17.6725C10.4335 17.6488 10.1673 17.6539 9.90845 17.6844C11.6277 18.2014 12.808 19.8679 12.6453 21.7271C12.4827 23.5861 11.0309 25.0226 9.24803 25.233C9.49766 25.3082 9.75891 25.3592 10.029 25.3828C12.158 25.5691 14.035 23.9941 14.2213 21.865C14.4076 19.7358 12.8326 17.8587 10.7035 17.6725V17.6725Z" fill="#DBDEDF"/>
<path d="M4.60095 3.88104C4.58192 4.09856 4.39 4.2596 4.17247 4.24057C3.95495 4.22154 3.79391 4.02962 3.81294 3.81209C3.83197 3.59457 4.02389 3.43353 4.24141 3.45256C4.45894 3.47159 4.61998 3.66351 4.60095 3.88104Z" fill="#18191B"/>
<path d="M20.02 5.23C20.001 5.44753 19.8091 5.60857 19.5915 5.58954C19.374 5.5705 19.213 5.37858 19.232 5.16106C19.251 4.94354 19.443 4.7825 19.6605 4.80153C19.878 4.82056 20.039 5.01248 20.02 5.23Z" fill="#18191B"/>
<path d="M2.63635 26.3369C2.61732 26.5545 2.4254 26.7155 2.20787 26.6965C1.99035 26.6774 1.82931 26.4855 1.84834 26.268C1.86737 26.0505 2.05929 25.8894 2.27682 25.9085C2.49434 25.9275 2.65538 26.1194 2.63635 26.3369Z" fill="#18191B"/>
<path d="M18.0553 27.6859C18.0363 27.9034 17.8443 28.0645 17.6268 28.0454C17.4093 28.0264 17.2483 27.8345 17.2673 27.617C17.2863 27.3994 17.4782 27.2384 17.6958 27.2574C17.9133 27.2765 18.0743 27.4684 18.0553 27.6859Z" fill="#18191B"/>
<path d="M11.8633 4.41736C9.57852 4.21746 7.5571 5.91363 7.35723 8.19823C7.15733 10.483 8.8535 12.5045 11.1383 12.7043C13.4229 12.9042 15.4443 11.2081 15.6442 8.92325C15.8441 6.63865 14.1479 4.61723 11.8633 4.41736V4.41736ZM11.2072 11.9163C9.35708 11.7545 7.98336 10.1173 8.14523 8.26717C8.3071 6.417 9.94421 5.04349 11.7944 5.20536C13.6446 5.36723 15.0181 7.00414 14.8562 8.85431C14.6943 10.7045 13.0574 12.0782 11.2072 11.9163Z" fill="#18191B"/>
<path d="M11.7257 5.98988C10.3081 5.86585 9.05389 6.91823 8.92985 8.33603C8.80584 9.75341 9.85802 11.0076 11.2758 11.1316C12.6932 11.2556 13.9476 10.2033 14.0716 8.78587C14.1956 7.36808 13.1432 6.1139 11.7257 5.98988ZM11.3448 10.3436C10.3616 10.2576 9.63185 9.38792 9.71787 8.40476C9.80387 7.42181 10.6736 6.69187 11.6567 6.77788C12.6397 6.86388 13.3696 7.73356 13.2836 8.71672C13.1976 9.69988 12.3277 10.4296 11.3448 10.3436Z" fill="#18191B"/>
<path d="M9.85559 27.3655C13.0745 27.6472 15.9225 25.2574 16.2041 22.0385C16.4858 18.8194 14.096 15.9715 10.8771 15.6899C7.65795 15.4083 4.80996 17.7979 4.52832 21.017C4.2467 24.2359 6.63647 27.0839 9.85559 27.3655ZM10.8081 16.4779C13.5926 16.7215 15.6597 19.185 15.4161 21.9695C15.1725 24.754 12.709 26.8212 9.92453 26.5775C7.14004 26.3339 5.07271 23.8704 5.31633 21.0859C5.55994 18.3014 8.02364 16.2343 10.8081 16.4779Z" fill="#18191B"/>
<path d="M9.99454 25.7768C12.3376 25.9818 14.4104 24.2424 14.6154 21.8995C14.8204 19.5564 13.0811 17.4835 10.738 17.2785C8.39496 17.0735 6.322 18.8129 6.11701 21.156C5.91203 23.4989 7.65145 25.5718 9.99454 25.7768V25.7768ZM10.6691 18.0665C12.5776 18.2334 13.9943 19.9219 13.8274 21.8306C13.6604 23.739 11.9719 25.1558 10.0635 24.9888C8.15482 24.8218 6.73804 23.1334 6.90501 21.2249C7.072 19.3163 8.76045 17.8995 10.6691 18.0665Z" fill="#18191B"/>
<path d="M20.4878 12.6199C20.2703 12.6009 20.0784 12.7619 20.0594 12.9795L18.6476 29.1161C18.6388 29.2159 18.5474 29.2926 18.4476 29.2839L1.06081 27.7628C0.961078 27.754 0.884303 27.6625 0.893029 27.5628L1.83317 16.817C1.85221 16.5993 1.69116 16.4076 1.47363 16.3885C1.25611 16.3695 1.06421 16.5303 1.04516 16.7481L0.105023 27.4939C0.0581462 28.0297 0.456066 28.5039 0.991869 28.5508L18.3787 30.0719C18.9145 30.1188 19.3887 29.7209 19.4356 29.1851L20.8474 13.0484C20.8664 12.8309 20.7056 12.639 20.4878 12.6199V12.6199Z" fill="#18191B"/>
<path d="M20.7319 3.17466L3.34504 1.65351C2.80924 1.60663 2.33502 2.00455 2.28814 2.54036L1.18301 15.172C1.16398 15.3896 1.32502 15.5815 1.54254 15.6005C1.76007 15.6195 1.95199 15.4585 1.97102 15.241L3.07615 2.6093C3.08487 2.50956 3.17637 2.43279 3.2761 2.44151L20.6629 3.96266C20.7626 3.97139 20.8394 4.06289 20.8307 4.16262L20.1972 11.4034C20.1782 11.6212 20.339 11.8129 20.5567 11.8319C20.7745 11.851 20.9662 11.6901 20.9852 11.4724L21.6187 4.23156C21.6656 3.69576 21.2679 3.22155 20.7319 3.17466V3.17466Z" fill="#18191B"/>
<path d="M8.32442 13.7255C8.1069 13.7065 7.91498 13.8675 7.89595 14.085C7.8769 14.3028 8.03796 14.4945 8.25548 14.5135L13.663 14.9866C13.8807 15.0057 14.0724 14.8448 14.0914 14.6271C14.1105 14.4096 13.9496 14.2177 13.7319 14.1986L8.32442 13.7255Z" fill="#18191B"/>
<g clip-path="url(#clip0)">
<path d="M34.069 31.1736L19.902 29.9342C19.643 29.9115 19.4496 29.6811 19.4723 29.4221L21.2512 9.08963C21.2738 8.83063 21.5042 8.63731 21.7632 8.65997L35.9302 9.89942C36.1893 9.92208 36.3826 10.1525 36.3599 10.4115L34.581 30.744C34.5584 31.003 34.328 31.1963 34.069 31.1736Z" fill="#696867"/>
<path d="M35.9303 9.8994L34.6461 9.78705C34.9051 9.80971 35.0984 10.0401 35.0758 10.2991L33.2969 30.6316C33.2743 30.8906 33.0439 31.0839 32.7849 31.0613L34.069 31.1736C34.328 31.1963 34.5584 31.0029 34.5811 30.7439L36.3599 10.4114C36.3826 10.1524 36.1893 9.92206 35.9303 9.8994Z" fill="#544F4F"/>
<path d="M31.4918 14.2343C31.3442 15.9216 29.8567 17.1699 28.1694 17.0223C26.4822 16.8746 25.2339 15.387 25.3815 13.6997C25.5291 12.0124 27.0167 10.7644 28.704 10.912C30.3913 11.0596 31.6394 12.547 31.4918 14.2343Z" fill="#9A9999"/>
<path d="M28.7041 10.912C28.4837 10.8927 28.2669 10.8978 28.056 10.924C29.409 11.3396 30.336 12.6551 30.2077 14.122C30.0794 15.5891 28.938 16.7235 27.5334 16.8979C27.7365 16.9603 27.9491 17.003 28.1695 17.0223C29.8568 17.1699 31.3442 15.9216 31.4919 14.2343C31.6395 12.547 30.3914 11.0596 28.7041 10.912Z" fill="#696867"/>
<path d="M30.2105 14.1222C30.1248 15.1019 29.2611 15.8265 28.2816 15.7408C27.3019 15.6551 26.5773 14.7915 26.6631 13.8119C26.7488 12.8324 27.6123 12.1076 28.592 12.1933C29.5715 12.279 30.2962 13.1427 30.2105 14.1222Z" fill="#ECECEC"/>
<path d="M31.9481 24.9208C31.7338 27.3706 29.5741 29.1828 27.1243 28.9684C24.6744 28.7541 22.8622 26.5944 23.0765 24.1446C23.2909 21.6949 25.4505 19.8827 27.9005 20.097C30.3502 20.3114 32.1624 22.471 31.9481 24.9208Z" fill="#9A9999"/>
<path d="M27.9005 20.097C27.6823 20.0779 27.4667 20.0751 27.2544 20.0872C29.3726 20.5861 30.8592 22.5767 30.664 24.8085C30.4687 27.04 28.659 28.7423 26.4863 28.8658C26.6934 28.9145 26.9061 28.9493 27.1244 28.9684C29.5741 29.1828 31.7338 27.3706 31.9481 24.9208C32.1624 22.471 30.3503 20.3114 27.9005 20.097V20.097Z" fill="#696867"/>
<path d="M30.6535 24.8076C30.5018 26.5423 28.9723 27.8259 27.2375 27.6741C25.5026 27.5223 24.2193 25.9927 24.371 24.2579C24.5228 22.523 26.0523 21.2396 27.7872 21.3914C29.522 21.5432 30.8053 23.0726 30.6535 24.8076V24.8076Z" fill="#ECECEC"/>
<path d="M28.5919 12.1933C28.3653 12.1735 28.1452 12.1975 27.9393 12.2575C28.5788 12.5728 28.9922 13.2568 28.9263 14.0099C28.8604 14.763 28.3345 15.365 27.65 15.5644C27.8424 15.6591 28.055 15.721 28.2815 15.7408C29.261 15.8265 30.1248 15.1019 30.2105 14.1222C30.2962 13.1427 29.5714 12.279 28.5919 12.1933Z" fill="#DBDEDF"/>
<path d="M27.7872 21.3914C27.5672 21.3722 27.3503 21.3763 27.1394 21.4011C28.5402 21.8224 29.5019 23.1803 29.3694 24.6952C29.2369 26.21 28.054 27.3804 26.6013 27.5519C26.8047 27.6131 27.0175 27.6547 27.2376 27.6739C28.9724 27.8257 30.5018 26.5423 30.6536 24.8076C30.8053 23.0726 29.522 21.5432 27.7872 21.3914V21.3914Z" fill="#DBDEDF"/>
<path d="M22.8147 10.1539C22.7992 10.3312 22.6428 10.4624 22.4655 10.4469C22.2883 10.4314 22.1571 10.275 22.1726 10.0977C22.1881 9.9205 22.3445 9.78928 22.5217 9.80479C22.699 9.8203 22.8302 9.97668 22.8147 10.1539Z" fill="#18191B"/>
<path d="M35.3784 11.2531C35.3629 11.4303 35.2065 11.5616 35.0293 11.5461C34.852 11.5305 34.7208 11.3742 34.7363 11.1969C34.7518 11.0197 34.9082 10.8885 35.0854 10.904C35.2627 10.9195 35.3939 11.0759 35.3784 11.2531Z" fill="#18191B"/>
<path d="M21.2138 28.4513C21.1983 28.6286 21.042 28.7598 20.8647 28.7443C20.6875 28.7288 20.5563 28.5724 20.5718 28.3951C20.5873 28.2179 20.7437 28.0867 20.9209 28.1022C21.0981 28.1177 21.2294 28.2741 21.2138 28.4513Z" fill="#18191B"/>
<path d="M33.7776 29.5505C33.7621 29.7277 33.6057 29.859 33.4284 29.8434C33.2512 29.8279 33.12 29.6716 33.1355 29.4943C33.151 29.3171 33.3074 29.1859 33.4846 29.2014C33.6619 29.2169 33.7931 29.3733 33.7776 29.5505Z" fill="#18191B"/>
<path d="M28.7322 10.5909C26.8705 10.428 25.2234 11.8101 25.0606 13.6716C24.8977 15.5333 26.2798 17.1804 28.1415 17.3433C30.003 17.5061 31.6501 16.1241 31.8129 14.2624C31.9758 12.4009 30.5937 10.7538 28.7322 10.5909V10.5909ZM28.1976 16.7012C26.6901 16.5693 25.5708 15.2354 25.7027 13.7278C25.8346 12.2203 27.1685 11.1011 28.676 11.233C30.1836 11.3649 31.3028 12.6987 31.1709 14.2062C31.039 15.7138 29.7052 16.8331 28.1976 16.7012Z" fill="#18191B"/>
<path d="M28.6201 11.8722C27.465 11.7712 26.4431 12.6287 26.342 13.7839C26.2409 14.9388 27.0983 15.9607 28.2535 16.0618C29.4084 16.1628 30.4305 15.3054 30.5315 14.1505C30.6326 12.9952 29.7751 11.9733 28.6201 11.8722ZM28.3097 15.4197C27.5086 15.3496 26.914 14.641 26.9841 13.8399C27.0541 13.039 27.7628 12.4442 28.5639 12.5143C29.3648 12.5844 29.9596 13.293 29.8895 14.0941C29.8194 14.8952 29.1106 15.4898 28.3097 15.4197Z" fill="#18191B"/>
<path d="M27.0963 29.2894C29.7192 29.5189 32.0398 27.5717 32.2692 24.9489C32.4987 22.3259 30.5515 20.0054 27.9287 19.776C25.3057 19.5465 22.9851 21.4935 22.7556 24.1165C22.5261 26.7394 24.4733 29.06 27.0963 29.2894ZM27.8725 20.4181C30.1413 20.6166 31.8256 22.6239 31.6271 24.8927C31.4286 27.1615 29.4214 28.8459 27.1525 28.6474C24.8837 28.4489 23.1992 26.4416 23.3977 24.1727C23.5962 21.9039 25.6036 20.2196 27.8725 20.4181Z" fill="#18191B"/>
<path d="M27.2096 27.9949C29.1188 28.162 30.8077 26.7446 30.9747 24.8356C31.1417 22.9264 29.7246 21.2374 27.8154 21.0703C25.9062 20.9033 24.2171 22.3206 24.0501 24.2298C23.8831 26.1388 25.3004 27.8279 27.2096 27.9949V27.9949ZM27.7592 21.7124C29.3143 21.8485 30.4687 23.2242 30.3326 24.7794C30.1966 26.3345 28.8208 27.4889 27.2658 27.3528C25.7106 27.2168 24.5561 25.841 24.6922 24.286C24.8282 22.7308 26.204 21.5764 27.7592 21.7124Z" fill="#18191B"/>
<path d="M35.7596 17.2745C35.5824 17.259 35.426 17.3902 35.4105 17.5674L34.2602 30.7158C34.253 30.7971 34.1785 30.8597 34.0972 30.8526L19.9302 29.6131C19.8489 29.606 19.7864 29.5314 19.7935 29.4502L20.5595 20.6943C20.575 20.5169 20.4438 20.3607 20.2666 20.3452C20.0893 20.3297 19.933 20.4607 19.9174 20.6382L19.1514 29.394C19.1132 29.8306 19.4374 30.217 19.874 30.2552L34.0411 31.4946C34.4776 31.5328 34.864 31.2086 34.9022 30.772L36.0526 17.6236C36.0681 17.4464 35.937 17.29 35.7596 17.2745V17.2745Z" fill="#18191B"/>
<path d="M35.9584 9.57836L21.7914 8.3389C21.3548 8.30071 20.9684 8.62494 20.9302 9.06152L20.0298 19.354C20.0142 19.5312 20.1455 19.6876 20.3227 19.7031C20.4999 19.7186 20.6563 19.5874 20.6718 19.4102L21.5723 9.11769C21.5794 9.03643 21.654 8.97387 21.7352 8.98098L35.9023 10.2204C35.9835 10.2275 36.0461 10.3021 36.039 10.3834L35.5228 16.2833C35.5073 16.4607 35.6383 16.6169 35.8157 16.6324C35.9932 16.6479 36.1494 16.5169 36.1649 16.3395L36.6811 10.4395C36.7192 10.003 36.3952 9.61657 35.9584 9.57836V9.57836Z" fill="#18191B"/>
<path d="M25.8486 18.1753C25.6714 18.1598 25.515 18.291 25.4995 18.4683C25.484 18.6457 25.6152 18.8019 25.7925 18.8174L30.1985 19.2029C30.376 19.2184 30.5322 19.0874 30.5477 18.9099C30.5632 18.7327 30.4321 18.5763 30.2547 18.5608L25.8486 18.1753Z" fill="#18191B"/>
</g>
<defs>
<clipPath id="clip0">
<rect x="17.9175" y="8" width="22" height="22" transform="rotate(5 17.9175 8)" fill="white"/>
</clipPath>
</defs>
</svg>
