<svg width="141" height="133" viewBox="0 0 141 133" fill="none" xmlns="http://www.w3.org/2000/svg">
<g filter="url(#filter0_d)">
<g clip-path="url(#clip0)">
<path d="M90.9716 60.5236L61.5888 44.4466C59.8993 43.5222 57.9023 43.5567 56.2463 44.5379C54.5893 45.5201 53.601 47.2553 53.601 49.1812V81.0593C53.601 82.9761 54.5832 84.7082 56.2291 85.6915C57.0886 86.2049 58.0414 86.4627 58.9962 86.4627C59.8709 86.4627 60.7476 86.2465 61.5543 85.8122L90.9381 70.0122C92.6824 69.0736 93.7711 67.2603 93.7793 65.2786C93.7864 63.2968 92.7108 61.4754 90.9716 60.5236ZM61.395 77.0492V53.2238L83.3552 65.24L61.395 77.0492Z" fill="#705F5F"/>
<path d="M136.021 39.8811L136.015 39.8202C135.903 38.7497 134.781 29.2277 130.152 24.3845C124.802 18.6879 118.736 17.9959 115.819 17.6641C115.577 17.6367 115.356 17.6113 115.158 17.5849L114.926 17.5606C97.3428 16.282 70.7889 16.1075 70.5231 16.1065L70.4997 16.1055L70.4764 16.1065C70.2105 16.1075 43.6567 16.282 25.9156 17.5606L25.6812 17.5849C25.4925 17.6103 25.2845 17.6336 25.0582 17.66C22.1744 17.9928 16.1734 18.6859 10.8077 24.5884C6.39876 29.3799 5.12429 38.698 4.9934 39.7452L4.97818 39.8811C4.9386 40.3266 4 50.9313 4 61.5776V71.5299C4 82.1762 4.9386 92.781 4.97818 93.2274L4.98528 93.2944C5.09791 94.3477 6.21815 103.695 10.8259 108.54C15.8568 114.046 22.218 114.775 25.6396 115.166C26.1804 115.228 26.6462 115.281 26.9638 115.337L27.2713 115.38C37.4234 116.346 69.2537 116.821 70.6032 116.841L70.6438 116.842L70.6844 116.841C70.9503 116.84 97.5031 116.665 115.086 115.387L115.318 115.362C115.54 115.333 115.79 115.307 116.064 115.278C118.932 114.974 124.9 114.342 130.192 108.519C134.601 103.727 135.876 94.4086 136.006 93.3624L136.021 93.2264C136.061 92.78 137 82.1762 137 71.5299V61.5776C136.999 50.9313 136.061 40.3276 136.021 39.8811ZM129.206 71.5299C129.206 81.3838 128.345 91.5319 128.264 92.4634C127.933 95.0296 126.589 100.925 124.44 103.26C121.128 106.904 117.726 107.265 115.242 107.528C114.942 107.559 114.664 107.59 114.412 107.621C97.4057 108.851 71.8544 109.04 70.6773 109.047C69.3572 109.027 37.9926 108.548 28.15 107.633C27.6457 107.551 27.1008 107.488 26.5265 107.423C23.6132 107.089 19.6255 106.633 16.559 103.26L16.487 103.183C14.3764 100.984 13.0705 95.471 12.7386 92.4938C12.6767 91.7896 11.794 81.5218 11.794 71.5299V61.5776C11.794 51.735 12.6524 41.598 12.7356 40.6472C13.1303 37.6244 14.5002 32.0861 16.559 29.8477C19.9725 26.0933 23.5716 25.6772 25.9521 25.4022C26.1794 25.3759 26.3915 25.3515 26.5873 25.3261C43.8414 24.0902 69.5764 23.9066 70.4997 23.8995C71.4231 23.9055 97.1489 24.0902 114.25 25.3261C114.46 25.3525 114.689 25.3789 114.936 25.4073C117.384 25.6864 121.085 26.1085 124.481 29.731L124.513 29.7645C126.623 31.9633 127.929 37.5727 128.261 40.6097C128.32 41.2743 129.206 51.5645 129.206 61.5776V71.5299Z" fill="#705F5F"/>
</g>
</g>
<defs>
<filter id="filter0_d" x="0" y="0" width="141" height="141" filterUnits="userSpaceOnUse" color-interpolation-filters="sRGB">
<feFlood flood-opacity="0" result="BackgroundImageFix"/>
<feColorMatrix in="SourceAlpha" type="matrix" values="0 0 0 0 0 0 0 0 0 0 0 0 0 0 0 0 0 0 127 0"/>
<feOffset dy="4"/>
<feGaussianBlur stdDeviation="2"/>
<feColorMatrix type="matrix" values="0 0 0 0 0.8 0 0 0 0 0.160784 0 0 0 0 0.160784 0 0 0 0.25 0"/>
<feBlend mode="normal" in2="BackgroundImageFix" result="effect1_dropShadow"/>
<feBlend mode="normal" in="SourceGraphic" in2="effect1_dropShadow" result="shape"/>
</filter>
<clipPath id="clip0">
<rect x="4" width="133" height="133" fill="white"/>
</clipPath>
</defs>
</svg>
