<svg width="1280" height="151" viewBox="0 0 1280 151" fill="none" xmlns="http://www.w3.org/2000/svg">
<path d="M580.1 77.6004L560.3 122.2H545.8L567.6 74.5004C557.3 69.3004 550.5 59.9004 550.5 42.5004C550.5 18.1004 566 5.90039 584.3 5.90039H603V122.2H590.5V77.6004H580.1ZM590.5 16.4004H583.8C573.7 16.4004 564 23.1004 564 42.4004C564 61.1004 573 67.1004 583.8 67.1004H590.5V16.4004Z" fill="#E52D2D"/>
<path d="M663.499 40.2V122.2H650.999V85.4H632.099V122.2H619.399V40.2H632.099V75H650.999V40.2H663.499ZM728.699 138.3H717.299V122.2H682.199V138.3H670.799V111.8H675.799C683.299 94.4 684.099 69 684.099 47.2V40.2H722.199V111.8H728.699V138.3ZM709.699 50.4H695.499V51.9C695.499 69.2 694.699 94.4 687.899 111.8H709.699V50.4V50.4ZM763.699 123.3C746.799 123.3 736.399 109.8 736.399 84.6C736.399 58.2 743.699 39 761.099 39C774.799 39 783.699 49.2 783.699 77.1V84.1H749.499C749.499 102.6 754.699 112.4 764.799 112.4C771.999 112.4 777.699 109.1 780.899 106.9L783.799 116.7C778.699 120.7 771.799 123.3 763.699 123.3ZM749.699 73.7H770.699C770.699 59.7 768.399 49.5 761.099 49.5C753.299 49.5 750.499 59.1 749.699 73.7ZM809.399 81.4V122.2H796.699V40.2H809.399V78.1L829.099 40.2H841.999L821.699 78.8L844.999 122.2H830.999L809.399 81.4ZM846.499 81.2C846.499 55.5 856.399 39.1 875.599 39.1C882.899 39.1 887.199 41.1 890.699 43.3L888.899 55.3C885.499 52.4 880.599 49.6 875.399 49.6C866.299 49.6 859.799 59.9 859.799 80.5C859.799 101 864.699 112.7 874.899 112.7C881.099 112.7 885.799 110.3 888.699 107.7L891.599 117.1C887.199 120.8 881.999 123.3 874.499 123.3C857.099 123.3 846.499 109.2 846.499 81.2Z" fill="white"/>
<path d="M994.7 122.2H986.9H994.7V5.90039V122.2ZM938.1 122.2H931V5.90039V122.2H938.1Z" fill="white"/>
<path d="M994.699 122.2H986.899V40.7004C986.899 35.2004 987.199 29.3004 987.499 23.5004H986.899C985.399 30.0004 984.299 34.7004 982.999 39.6004L965.599 104.4H959.199L941.999 40.0004C940.399 34.0004 939.099 28.8004 938.099 23.4004H937.599C937.899 28.9004 938.099 34.8004 938.099 40.6004V122.1H934.499H930.899V5.90039H940.299L959.999 80.2004C960.799 83.3004 961.999 89.3004 962.399 93.7004H962.899C963.599 89.3004 964.899 83.1004 965.699 80.2004L985.499 5.90039H994.599V122.2H994.699Z" fill="white"/>
<path d="M1045.5 111.101C1041.6 118.901 1035.7 123.801 1027.6 123.801C1016.5 123.801 1008.9 115.001 1008.9 100.001C1008.9 82.4006 1018.5 73.3006 1036.2 73.3006H1045.2V63.1006C1045.2 50.6006 1040.5 45.2006 1031.5 45.2006C1024.5 45.2006 1018.2 48.5006 1014.2 54.2006L1012.1 46.9006C1015.4 42.7006 1022.2 38.6006 1031.5 38.6006C1045 38.6006 1052.6 46.1006 1052.6 62.4006V107.201C1052.6 112.901 1053.4 119.201 1054.4 122.301H1047.4C1046.8 120.101 1046 117.001 1045.5 111.101ZM1045.2 101.501V78.9006H1036.4C1022.9 78.9006 1016.4 85.1006 1016.4 99.4006C1016.4 110.901 1021.4 117.601 1029.3 117.601C1036.9 117.601 1042.3 110.301 1045.2 101.501Z" fill="white"/>
<path d="M1077.9 116.501V147.601H1070.3V40.2006H1077L1077.6 53.7006C1081.2 45.9006 1087.2 38.6006 1096.3 38.6006C1110 38.6006 1118 55.0006 1118 78.7006C1118 108.801 1107.9 123.601 1092.6 123.601C1086.4 123.701 1081 120.601 1077.9 116.501ZM1110.3 79.4006C1110.3 57.9006 1104.4 45.2006 1095 45.2006C1087.7 45.2006 1081.5 53.0006 1077.9 61.8006V107.701C1081.2 114.401 1085.7 117.601 1093 117.601C1103.5 117.601 1110.3 105.301 1110.3 79.4006Z" fill="white"/>
<path d="M1140.3 122.2H1132.6V40.2002H1140.3V78.8002L1167.8 40.2002H1175.3L1148.3 78.3002L1177.2 122.2H1168.8L1140.3 79.7002V122.2Z" fill="white"/>
<path d="M1206.2 117.2C1217.1 117.2 1222.8 108.4 1222.8 108.4L1225.2 114.6C1225.2 114.6 1219 123.9 1206 123.9C1188.6 123.9 1180.6 108.1 1180.6 81.3002C1180.6 54.5002 1190.7 38.7002 1204.5 38.7002C1218.6 38.7002 1227.8 53.5002 1225.2 82.6002H1188.1C1188.5 104.9 1194.3 117.2 1206.2 117.2ZM1188.3 76.5002H1218.1C1219.4 54.7002 1212.9 44.9002 1204.6 44.9002C1196 44.9002 1189 56.0002 1188.3 76.5002Z" fill="white"/>
<path d="M1258.9 122.2H1251.3H1258.9ZM1277.8 46.5002V40.2002V46.5002Z" fill="white"/>
<path d="M1258.9 122.2H1251.3V46.5002H1232.3V40.2002H1277.8V46.5002H1258.9V122.2Z" fill="white"/>
<path d="M94.0028 65.451L78.194 63.034L71.9228 62.0541C71.5962 61.9888 71.2696 61.9235 70.8776 61.8581C70.8123 61.8581 70.6816 61.7928 70.6163 61.7928C70.355 61.7275 70.0937 61.6622 69.8324 61.5968C69.7671 61.5968 69.6364 61.5315 69.5711 61.5315C69.3098 61.4662 69.0485 61.3355 68.7872 61.2702C68.7219 61.2702 68.6566 61.2049 68.5912 61.2049C68.3299 61.0742 68.0033 60.9436 67.742 60.8129C67.6767 60.8129 67.6767 60.7476 67.6113 60.7476C67.2847 60.617 67.0234 60.421 66.6968 60.2903C66.6968 60.2903 66.6315 60.2903 66.6315 60.225C66.3048 60.029 65.9782 59.833 65.6516 59.6371C65.6516 59.6371 65.6516 59.6371 65.5863 59.6371C65.2596 59.4411 64.933 59.2451 64.6064 58.9838C64.2798 58.7878 63.9531 58.5265 63.6265 58.2652C61.2748 56.5015 59.315 54.2804 58.2045 51.994L55.3955 46.2454L52.6518 40.4968L48.4057 31.7432L44.0942 40.3661L41.1546 46.0494L38.2803 51.7327C35.9286 56.5015 29.6573 60.9436 24.4313 61.6622L18.0948 62.5114L11.7582 63.3606L2.2207 64.6671L13.5873 76.0337L18.0948 80.5412C18.3561 80.7372 18.552 80.9985 18.748 81.2598C18.8787 81.3904 18.944 81.5211 19.0746 81.6517C19.2053 81.7824 19.2706 81.913 19.4013 82.0437C19.5319 82.2396 19.6626 82.4356 19.7932 82.5663C19.8585 82.6969 19.9239 82.7622 19.9892 82.8929C20.1198 83.0889 20.2505 83.3502 20.3811 83.6115C20.4465 83.6768 20.4465 83.7421 20.5118 83.8074C20.6424 84.0687 20.8384 84.33 20.9691 84.5913C20.9691 84.6567 21.0344 84.6567 21.0344 84.722C21.165 85.0486 21.361 85.3099 21.4917 85.6365V85.7019C21.6223 86.0285 21.753 86.3551 21.8836 86.6818C22.0143 87.0084 22.1449 87.335 22.2756 87.727C23.3208 90.7973 23.7127 94.1288 23.2555 96.8725L22.1449 103.144L21.0344 109.415L19.3359 118.887L27.8936 114.445L33.5769 111.505L39.2602 108.566C39.5215 108.435 39.8481 108.304 40.1747 108.174C40.3707 108.108 40.5667 108.043 40.7626 107.978C40.8933 107.912 41.0239 107.912 41.1546 107.847C41.4159 107.782 41.6772 107.651 41.9385 107.586C42.0038 107.586 42.0691 107.521 42.1345 107.521C42.4611 107.455 42.7877 107.39 43.049 107.325H43.1144C43.441 107.259 43.8329 107.194 44.1596 107.129C45.2048 106.933 46.3806 106.867 47.4911 106.867C50.6921 106.867 53.9584 107.455 56.3754 108.762L61.9934 111.767L76.1036 119.344L73.4906 103.536L72.4454 97.2645C72.3801 96.9378 72.3801 96.6112 72.3148 96.2193C72.3148 96.1539 72.3148 96.0233 72.3148 95.9579C72.3148 95.6966 72.3148 95.4353 72.2494 95.1087C72.2494 95.0434 72.2494 94.9127 72.2494 94.8474C72.2494 94.5861 72.2494 94.2595 72.2494 93.9982C72.2494 93.9329 72.2494 93.8675 72.2494 93.8022C72.2494 93.4756 72.3148 93.149 72.3148 92.8223C72.3148 92.757 72.3148 92.757 72.3148 92.6917C72.3801 92.3651 72.3801 91.9731 72.4454 91.6465C72.4454 91.6465 72.4454 91.6465 72.4454 91.5812C72.6414 90.4053 72.968 89.2948 73.36 88.1189C74.3399 85.3099 75.8423 82.6969 77.6714 80.9331L82.2442 76.491L94.0028 65.451Z" fill="#F0C94D"/>
<path d="M93.3495 65.451L77.5407 63.034L71.2695 62.0541C70.9429 61.9888 70.6163 61.9235 70.2243 61.8581C70.159 61.8581 70.0283 61.7928 69.963 61.7928C69.7017 61.7275 69.4404 61.6622 69.1791 61.5968C69.1138 61.5968 68.9831 61.5315 68.9178 61.5315C68.6565 61.4662 68.3952 61.3355 68.1339 61.2702C68.0686 61.2702 68.0032 61.2049 67.9379 61.2049C67.6766 61.0742 67.35 60.9436 67.0887 60.8129C67.0234 60.8129 67.0234 60.7476 66.958 60.7476C66.6314 60.617 66.3701 60.421 66.0435 60.2903C66.0435 60.2903 65.9782 60.2903 65.9782 60.225C65.6515 60.029 65.3249 59.833 64.9983 59.6371C64.9983 59.6371 64.9983 59.6371 64.9329 59.6371C64.6063 59.4411 64.2797 59.2451 63.9531 58.9838C63.6264 58.7878 63.2998 58.5265 62.9732 58.2652C60.6215 56.5015 58.6617 54.2804 57.5512 51.994L54.7422 46.2454L51.9985 40.4968L47.7524 31.7432L43.4409 40.3661L40.5013 46.0494L37.627 51.7327C35.2752 56.5015 29.004 60.9436 23.778 61.6622L17.4414 62.5114L11.1049 63.3606L1.56738 64.6671L12.934 76.0337L17.4414 80.5412C17.7027 80.7372 17.8987 80.9985 18.0947 81.2598C18.2253 81.3904 18.2907 81.5211 18.4213 81.6517C18.552 81.7824 18.6173 81.913 18.7479 82.0437C18.8786 82.2396 19.0092 82.4356 19.1399 82.5663C19.2052 82.6969 19.2705 82.7622 19.3359 82.8929C19.4665 83.0889 19.5972 83.3502 19.7278 83.6115C19.7931 83.6768 19.7931 83.7421 19.8585 83.8074C19.9891 84.0687 20.1851 84.33 20.3158 84.5913C20.3158 84.6567 20.3811 84.6567 20.3811 84.722C20.5117 85.0486 20.7077 85.3099 20.8384 85.6365V85.7019C20.969 86.0285 21.0997 86.3551 21.2303 86.6818C21.361 87.0084 21.4916 87.335 21.6223 87.727C22.6675 90.7973 23.0594 94.1288 22.6021 96.8725L21.4916 103.144L20.3811 109.415L18.6826 118.887L27.2402 114.445L32.9235 111.505L38.6068 108.566C38.8681 108.435 39.1948 108.304 39.5214 108.174C39.7174 108.108 39.9133 108.043 40.1093 107.978C40.24 107.912 40.3706 107.912 40.5013 107.847C40.7626 107.782 41.0239 107.651 41.2852 107.586C41.3505 107.586 41.4158 107.521 41.4812 107.521C41.8078 107.455 42.1344 107.39 42.3957 107.325H42.461C42.7877 107.259 43.1796 107.194 43.5062 107.129C44.5514 106.933 45.7273 106.867 46.8378 106.867C50.0388 106.867 53.305 107.455 55.7221 108.762L61.3401 111.767L75.4503 119.344L72.8373 103.536L71.7921 97.2645C71.7268 96.9378 71.7268 96.6112 71.6615 96.2193C71.6615 96.1539 71.6615 96.0233 71.6615 95.9579C71.6615 95.6966 71.6615 95.4353 71.5961 95.1087C71.5961 95.0434 71.5961 94.9127 71.5961 94.8474C71.5961 94.5861 71.5961 94.2595 71.5961 93.9982C71.5961 93.9329 71.5961 93.8675 71.5961 93.8022C71.5961 93.4756 71.6615 93.149 71.6615 92.8223C71.6615 92.757 71.6615 92.757 71.6615 92.6917C71.7268 92.3651 71.7268 91.9731 71.7921 91.6465C71.7921 91.6465 71.7921 91.6465 71.7921 91.5812C71.9881 90.4053 72.3147 89.2948 72.7067 88.1189C73.6865 85.3099 75.189 82.6969 77.0181 80.9331L81.5909 76.491L93.3495 65.451Z" fill="#F0C94D"/>
<path d="M194.604 65.4511L178.796 63.0341L172.524 62.0542C172.198 61.9889 171.871 61.9236 171.479 61.8582C171.414 61.8582 171.283 61.7929 171.218 61.7929C170.957 61.7276 170.695 61.6623 170.434 61.5969C170.369 61.5969 170.238 61.5316 170.173 61.5316C169.911 61.4663 169.65 61.3356 169.389 61.2703C169.324 61.2703 169.258 61.205 169.193 61.205C168.932 61.0743 168.605 60.9437 168.344 60.813C168.278 60.813 168.278 60.7477 168.213 60.7477C167.886 60.6171 167.625 60.4211 167.298 60.2904C167.298 60.2904 167.233 60.2904 167.233 60.2251C166.907 60.0291 166.58 59.8332 166.253 59.6372C166.253 59.6372 166.253 59.6372 166.188 59.6372C165.861 59.4412 165.535 59.2452 165.208 58.9839C164.881 58.788 164.555 58.5266 164.228 58.2653C161.876 56.5016 159.917 54.2805 158.806 51.9941L155.997 46.2455L153.254 40.4969L149.073 31.8086L144.761 40.4315L141.887 46.1148L139.013 51.7981C136.596 56.5669 130.39 61.009 125.098 61.7276L118.762 62.5768L112.425 63.426L102.888 64.7326L114.189 76.0338L118.696 80.5413C118.958 80.7373 119.154 80.9986 119.35 81.2599C119.48 81.3905 119.546 81.5212 119.676 81.6518C119.807 81.7825 119.872 81.9131 120.003 82.0438C120.134 82.2397 120.264 82.4357 120.395 82.5664C120.46 82.697 120.526 82.7623 120.591 82.893C120.722 83.089 120.852 83.3503 120.983 83.6116C121.048 83.6769 121.048 83.7422 121.113 83.8075C121.244 84.0688 121.44 84.3301 121.571 84.5914C121.571 84.6568 121.636 84.6568 121.636 84.7221C121.767 85.0487 121.963 85.31 122.093 85.6367V85.702C122.224 86.0286 122.355 86.3552 122.485 86.6819C122.616 87.0085 122.747 87.3351 122.877 87.7271C123.922 90.7974 124.314 94.1289 123.857 96.8726L122.747 103.144L121.636 109.415L119.938 118.887L128.495 114.445L134.179 111.505L139.862 108.566C140.123 108.435 140.45 108.305 140.776 108.174C140.972 108.109 141.168 108.043 141.364 107.978C141.495 107.913 141.626 107.913 141.756 107.847C142.018 107.782 142.279 107.651 142.54 107.586C142.605 107.586 142.671 107.521 142.736 107.521C143.063 107.455 143.389 107.39 143.651 107.325H143.716C144.043 107.259 144.435 107.194 144.761 107.129C145.806 106.933 146.982 106.867 148.093 106.867C151.294 106.867 154.56 107.455 156.977 108.762L162.595 111.767L176.705 119.345L174.092 103.536L173.047 97.2646C172.982 96.9379 172.982 96.6113 172.916 96.2194C172.916 96.154 172.916 96.0234 172.916 95.9581C172.916 95.6968 172.916 95.4355 172.851 95.1088C172.851 95.0435 172.851 94.9129 172.851 94.8475C172.851 94.5862 172.851 94.2596 172.851 93.9983C172.851 93.933 172.851 93.8676 172.851 93.8023C172.851 93.4757 172.916 93.1491 172.916 92.8224C172.916 92.7571 172.916 92.7571 172.916 92.6918C172.982 92.3652 172.982 91.9732 173.047 91.6466C173.047 91.6466 173.047 91.6466 173.047 91.5813C173.243 90.4054 173.57 89.2949 173.962 88.119C174.942 85.31 176.444 82.697 178.273 80.9332L182.846 76.4911L194.604 65.4511Z" fill="#F0C94D"/>
<path d="M295.858 65.3857L280.049 62.9687L273.778 61.9888C273.452 61.9235 273.125 61.8581 272.733 61.7928C272.668 61.7928 272.537 61.7275 272.472 61.7275C272.21 61.6622 271.949 61.5968 271.688 61.5315C271.622 61.5315 271.492 61.4662 271.426 61.4662C271.165 61.4009 270.904 61.2702 270.643 61.2049C270.577 61.2049 270.512 61.1396 270.447 61.1396C270.185 61.0089 269.859 60.8783 269.597 60.7476C269.532 60.7476 269.532 60.6823 269.467 60.6823C269.14 60.5516 268.879 60.3557 268.552 60.225C268.552 60.225 268.487 60.225 268.487 60.1597C268.16 59.9637 267.834 59.7677 267.507 59.5717C267.507 59.5717 267.507 59.5717 267.442 59.5717C267.115 59.3758 266.788 59.1798 266.462 58.9185C266.135 58.7225 265.808 58.4612 265.482 58.1999C263.13 56.4361 261.17 54.2151 260.06 51.9287L257.251 46.1801L254.507 40.4314L250.326 31.7432L246.015 40.3661L243.01 45.9841L240.136 51.6674C237.719 56.4361 231.513 60.8783 226.221 61.5968L219.885 62.4461L213.548 63.2953L204.011 64.6018L215.377 75.9031L219.885 80.4105C220.146 80.6065 220.342 80.8678 220.538 81.1291C220.669 81.2598 220.734 81.3904 220.865 81.5211C220.995 81.6517 221.061 81.7824 221.191 81.913C221.322 82.109 221.453 82.305 221.583 82.4356C221.649 82.5663 221.714 82.6316 221.779 82.7622C221.91 82.9582 222.041 83.2195 222.171 83.4808C222.237 83.5461 222.237 83.6115 222.302 83.6768C222.432 83.9381 222.628 84.1994 222.759 84.4607C222.759 84.526 222.824 84.526 222.824 84.5913C222.955 84.918 223.151 85.1793 223.282 85.5059V85.5712C223.412 85.8979 223.543 86.2245 223.674 86.5511C223.804 86.8777 223.935 87.2044 224.066 87.5963C225.111 90.6666 225.503 93.9982 225.046 96.7419L223.935 103.013L222.824 109.284L221.126 118.756L229.684 114.314L235.367 111.375L241.05 108.435C241.312 108.304 241.638 108.174 241.965 108.043C242.161 107.978 242.357 107.912 242.553 107.847C242.683 107.782 242.814 107.782 242.945 107.717C243.206 107.651 243.467 107.521 243.729 107.455C243.794 107.455 243.859 107.39 243.925 107.39C244.251 107.325 244.578 107.259 244.839 107.194H244.904C245.231 107.129 245.623 107.063 245.95 106.998C246.995 106.802 248.171 106.737 249.281 106.737C252.482 106.737 255.748 107.325 258.165 108.631L263.783 111.636L277.894 119.214L275.281 103.405L274.235 97.1338C274.17 96.8072 274.17 96.4806 274.105 96.0886C274.105 96.0233 274.105 95.8926 274.105 95.8273C274.105 95.566 274.105 95.3047 274.039 94.9781C274.039 94.9127 274.039 94.7821 274.039 94.7168C274.039 94.4555 274.039 94.1288 274.039 93.8675C274.039 93.8022 274.039 93.7369 274.039 93.6716C274.039 93.3449 274.105 93.0183 274.105 92.6917C274.105 92.6264 274.105 92.6264 274.105 92.561C274.17 92.2344 274.17 91.8425 274.235 91.5158C274.235 91.5158 274.235 91.5158 274.235 91.4505C274.431 90.2746 274.758 89.1641 275.15 87.9883C276.13 85.1793 277.632 82.5663 279.461 80.8025L284.034 76.3604L295.858 65.3857Z" fill="#F0C94D"/>
<path d="M397.113 65.3857L381.304 62.9687L375.033 61.9888C374.706 61.9235 374.38 61.8581 373.988 61.7928C373.923 61.7928 373.792 61.7275 373.727 61.7275C373.465 61.6622 373.204 61.5968 372.943 61.5315C372.877 61.5315 372.747 61.4662 372.681 61.4662C372.42 61.4009 372.159 61.2702 371.897 61.2049C371.832 61.2049 371.767 61.1396 371.701 61.1396C371.44 61.0089 371.114 60.8783 370.852 60.7476C370.787 60.7476 370.787 60.6823 370.722 60.6823C370.395 60.5516 370.134 60.3557 369.807 60.225C369.807 60.225 369.742 60.225 369.742 60.1597C369.415 59.9637 369.088 59.7677 368.762 59.5717C368.762 59.5717 368.762 59.5717 368.697 59.5717C368.37 59.3758 368.043 59.1798 367.717 58.9185C367.39 58.7225 367.063 58.4612 366.737 58.1999C364.385 56.4361 362.425 54.2151 361.315 51.9287L358.506 46.1801L355.762 40.4314L351.581 31.7432L347.27 40.3661L344.265 45.9841L341.391 51.6674C338.973 56.4361 332.768 60.8783 327.476 61.5968L321.14 62.4461L314.803 63.2953L305.266 64.6018L316.632 75.9031L321.14 80.4105C321.401 80.6065 321.597 80.8678 321.793 81.1291C321.924 81.2598 321.989 81.3904 322.12 81.5211C322.25 81.6517 322.316 81.7824 322.446 81.913C322.577 82.109 322.707 82.305 322.838 82.4356C322.903 82.5663 322.969 82.6316 323.034 82.7622C323.165 82.9582 323.295 83.2195 323.426 83.4808C323.491 83.5461 323.491 83.6115 323.557 83.6768C323.687 83.9381 323.883 84.1994 324.014 84.4607C324.014 84.526 324.079 84.526 324.079 84.5913C324.21 84.918 324.406 85.1793 324.537 85.5059V85.5712C324.667 85.8979 324.798 86.2245 324.929 86.5511C325.059 86.8777 325.19 87.2044 325.321 87.5963C326.366 90.6666 326.758 93.9982 326.3 96.7419L325.19 103.013L324.079 109.284L322.381 118.756L330.938 114.314L336.622 111.375L342.305 108.435C342.566 108.304 342.893 108.174 343.22 108.043C343.416 107.978 343.612 107.912 343.808 107.847C343.938 107.782 344.069 107.782 344.2 107.717C344.461 107.651 344.722 107.521 344.983 107.455C345.049 107.455 345.114 107.39 345.179 107.39C345.506 107.325 345.833 107.259 346.094 107.194H346.159C346.486 107.129 346.878 107.063 347.204 106.998C348.25 106.802 349.426 106.737 350.536 106.737C353.737 106.737 357.003 107.325 359.42 108.631L365.038 111.636L379.149 119.214L376.536 103.405L375.49 97.1338C375.425 96.8072 375.425 96.4806 375.36 96.0886C375.36 96.0233 375.36 95.8926 375.36 95.8273C375.36 95.566 375.36 95.3047 375.294 94.9781C375.294 94.9127 375.294 94.7821 375.294 94.7168C375.294 94.4555 375.294 94.1288 375.294 93.8675C375.294 93.8022 375.294 93.7369 375.294 93.6716C375.294 93.3449 375.36 93.0183 375.36 92.6917C375.36 92.6264 375.36 92.6264 375.36 92.561C375.425 92.2344 375.425 91.8425 375.49 91.5158C375.49 91.5158 375.49 91.5158 375.49 91.4505C375.686 90.2746 376.013 89.1641 376.405 87.9883C377.385 85.1793 378.887 82.5663 380.716 80.8025L385.289 76.3604L397.113 65.3857Z" fill="#F0C94D"/>
<path d="M498.367 65.4511L482.558 63.0341L476.287 62.0542C475.961 61.9889 475.634 61.9236 475.242 61.8582C475.177 61.8582 475.046 61.7929 474.981 61.7929C474.719 61.7276 474.458 61.6623 474.197 61.5969C474.131 61.5969 474.001 61.5316 473.935 61.5316C473.674 61.4663 473.413 61.3356 473.152 61.2703C473.086 61.2703 473.021 61.205 472.956 61.205C472.694 61.0743 472.368 60.9437 472.106 60.813C472.041 60.813 472.041 60.7477 471.976 60.7477C471.649 60.6171 471.388 60.4211 471.061 60.2904C471.061 60.2904 470.996 60.2904 470.996 60.2251C470.669 60.0291 470.343 59.8332 470.016 59.6372C470.016 59.6372 470.016 59.6372 469.951 59.6372C469.624 59.4412 469.297 59.2452 468.971 58.9839C468.644 58.788 468.317 58.5266 467.991 58.2653C465.639 56.5016 463.679 54.2805 462.569 51.9941L459.76 46.2455L457.016 40.4969L452.835 31.8086L448.524 40.4315L445.65 46.1148L442.775 51.7981C440.358 56.5669 434.152 61.009 428.861 61.7276L422.524 62.5768L416.188 63.426L406.65 64.7326L417.952 76.0338L422.459 80.5413C422.72 80.7373 422.916 80.9986 423.112 81.2599C423.243 81.3905 423.308 81.5212 423.439 81.6518C423.57 81.7825 423.635 81.9131 423.766 82.0438C423.896 82.2397 424.027 82.4357 424.158 82.5664C424.223 82.697 424.288 82.7623 424.354 82.893C424.484 83.089 424.615 83.3503 424.746 83.6116C424.811 83.6769 424.811 83.7422 424.876 83.8075C425.007 84.0688 425.203 84.3301 425.333 84.5914C425.333 84.6568 425.399 84.6568 425.399 84.7221C425.529 85.0487 425.725 85.31 425.856 85.6367V85.702C425.987 86.0286 426.117 86.3552 426.248 86.6819C426.379 87.0085 426.509 87.3351 426.64 87.7271C427.685 90.7974 428.077 94.1289 427.62 96.8726L426.509 103.144L425.399 109.415L423.7 118.887L432.258 114.445L437.941 111.505L443.624 108.566C443.886 108.435 444.212 108.305 444.539 108.174C444.735 108.109 444.931 108.043 445.127 107.978C445.258 107.913 445.388 107.913 445.519 107.847C445.78 107.782 446.042 107.651 446.303 107.586C446.368 107.586 446.433 107.521 446.499 107.521C446.825 107.455 447.152 107.39 447.413 107.325H447.479C447.805 107.259 448.197 107.194 448.524 107.129C449.569 106.933 450.745 106.867 451.856 106.867C455.056 106.867 458.323 107.455 460.74 108.762L466.358 111.767L480.468 119.345L477.855 103.536L476.81 97.2646C476.744 96.9379 476.744 96.6113 476.679 96.2194C476.679 96.154 476.679 96.0234 476.679 95.9581C476.679 95.6968 476.679 95.4355 476.614 95.1088C476.614 95.0435 476.614 94.9129 476.614 94.8475C476.614 94.5862 476.614 94.2596 476.614 93.9983C476.614 93.933 476.614 93.8676 476.614 93.8023C476.614 93.4757 476.679 93.1491 476.679 92.8224C476.679 92.7571 476.679 92.7571 476.679 92.6918C476.744 92.3652 476.744 91.9732 476.81 91.6466C476.81 91.6466 476.81 91.6466 476.81 91.5813C477.006 90.4054 477.332 89.2949 477.724 88.119C478.704 85.31 480.207 82.697 482.036 80.9332L486.609 76.4911L498.367 65.4511Z" fill="#F0C94D"/>
</svg>
