<svg width="175" height="160" viewBox="0 0 175 160" fill="none" xmlns="http://www.w3.org/2000/svg">
<g filter="url(#filter0_d)">
<path fill-rule="evenodd" clip-rule="evenodd" d="M69.0067 16.2882C74.9606 15.7988 80.996 15.8804 86.8684 16.9407C99.4286 19.0612 111.336 24.852 120.797 33.4157C134.581 45.8128 142.982 64.1638 142.982 82.6779C143.389 99.4792 137.028 116.281 125.772 128.678C115.822 139.851 102.038 147.518 87.2762 150.046C80.7514 151.188 73.9819 151.351 67.3756 150.617C54.6522 149.149 42.3367 143.848 32.4679 135.692C17.7872 123.702 8.57092 105.107 8 86.1034C8 83.7382 8 81.2914 8 78.9261C8.97872 65.1425 14.2801 51.6851 23.007 40.9193C34.2623 26.9725 51.2267 17.8378 69.0067 16.2882ZM43.7232 28.5222C43.6416 30.0718 43.7232 31.6214 43.6416 33.0895C43.6416 50.2986 43.6416 67.5078 43.6416 84.7169C37.9325 84.7169 32.2233 84.7169 26.4325 84.7169C26.4325 97.6033 26.4325 110.49 26.4325 123.376C26.4325 123.539 26.5141 123.866 26.5141 123.947C38.0956 138.057 56.0387 146.947 74.3897 146.865C74.3897 126.149 74.3897 105.352 74.3897 84.6353C68.6805 84.6353 62.9713 84.6353 57.1806 84.6353C57.1806 64.0007 57.1806 43.2845 57.1806 22.6498C52.4501 24.1179 47.9643 26.1569 43.7232 28.5222ZM93.23 84.7169C87.5208 84.7169 81.8116 84.7169 76.0209 84.7169C76.0209 105.433 76.0209 126.231 76.0209 146.947C94.1272 147.192 111.989 138.709 123.733 124.926C124.06 124.518 123.897 123.866 123.978 123.376C123.978 110.49 123.978 97.6033 123.978 84.7169C118.269 84.7169 112.56 84.7169 106.769 84.7169C106.769 66.0397 106.769 47.3625 106.769 28.6853C106.769 28.5222 106.687 28.2775 106.606 28.1959C102.365 25.8307 97.8789 23.8732 93.23 22.5683C93.1485 43.2845 93.23 64.0007 93.23 84.7169ZM12.1596 84.7169C12.078 97.6033 16.5638 110.327 24.0673 120.766C24.312 121.093 24.5566 121.419 24.8829 121.663C24.9644 109.348 24.8829 97.0324 24.8829 84.7169C20.5602 84.7169 16.3191 84.7169 12.1596 84.7169ZM125.609 84.7169C125.609 97.3587 125.528 110 125.691 122.642C134.01 111.876 138.985 98.3374 138.985 84.7169C134.499 84.7169 130.014 84.7169 125.609 84.7169Z" fill="black"/>
</g>
<path d="M66.0636 130.963L3.61527 125.499C2.47358 125.4 1.62143 124.384 1.72132 123.242L9.56255 33.6166C9.66244 32.4749 10.678 31.6227 11.8197 31.7226L74.2681 37.1861C75.4097 37.286 76.2619 38.3016 76.162 39.4433L68.3208 129.069C68.2209 130.211 67.2053 131.063 66.0636 130.963Z" fill="#696867"/>
<path d="M74.2685 37.1847L68.6079 36.6895C69.7496 36.7893 70.6018 37.8049 70.5019 38.9466L62.6606 128.572C62.5607 129.714 61.5452 130.566 60.4035 130.466L66.0641 130.962C67.2058 131.061 68.2213 130.209 68.3212 129.068L76.1624 39.4418C76.2623 38.3001 75.4102 37.2846 74.2685 37.1847Z" fill="#544F4F"/>
<path d="M54.7037 56.2938C54.053 63.7315 47.4964 69.2338 40.0588 68.5831C32.6212 67.9324 27.1189 61.375 27.7696 53.9374C28.4203 46.4998 34.9776 40.9982 42.4152 41.649C49.8528 42.2997 55.3544 48.8562 54.7037 56.2938Z" fill="#9A9999"/>
<path d="M42.4128 41.648C41.4414 41.563 40.4858 41.5856 39.5562 41.7011C45.5202 43.533 49.6065 49.3315 49.0408 55.7977C48.475 62.2646 43.4439 67.2654 37.2524 68.0338C38.1478 68.309 39.0849 68.4972 40.0564 68.5822C47.494 69.2329 54.0506 63.7305 54.7013 56.2929C55.352 48.8553 49.8504 42.2987 42.4128 41.648Z" fill="#696867"/>
<path d="M49.0544 55.8C48.6766 60.1184 44.8693 63.3124 40.5517 62.9347C36.2333 62.5569 33.0392 58.7503 33.417 54.4319C33.7948 50.1143 37.6013 46.9195 41.9197 47.2973C46.2374 47.6751 49.4321 51.4824 49.0544 55.8Z" fill="#ECECEC"/>
<path d="M56.7146 103.399C55.7698 114.197 46.25 122.185 35.4514 121.241C24.6521 120.296 16.664 110.776 17.6087 99.9774C18.5535 89.1788 28.0733 81.1907 38.8726 82.1355C49.6712 83.0803 57.6593 92.6001 56.7146 103.399Z" fill="#9A9999"/>
<path d="M38.8708 82.1353C37.909 82.0512 36.9587 82.0386 36.0227 82.0919C45.3598 84.2909 51.9128 93.0658 51.0522 102.903C50.1916 112.74 42.2143 120.244 32.6372 120.788C33.5497 121.003 34.4877 121.156 35.4496 121.24C46.2481 122.185 55.768 114.197 56.7128 103.399C57.6575 92.5999 49.6694 83.0801 38.8708 82.1353V82.1353Z" fill="#696867"/>
<path d="M51.0077 102.9C50.3387 110.547 43.5969 116.204 35.95 115.535C28.3023 114.866 22.6454 108.124 23.3144 100.477C23.9835 92.8292 30.7252 87.1723 38.3729 87.8413C46.0198 88.5104 51.6768 95.2521 51.0077 102.9V102.9Z" fill="#ECECEC"/>
<path d="M41.9192 47.2945C40.9204 47.2071 39.9501 47.3131 39.0424 47.5776C41.8612 48.9672 43.6836 51.9823 43.3932 55.302C43.1028 58.6217 40.7844 61.2752 37.7671 62.1543C38.6152 62.5716 39.5524 62.8445 40.5511 62.9318C44.8687 63.3096 48.676 60.1156 49.0538 55.7972C49.4315 51.4795 46.2368 47.6722 41.9192 47.2945Z" fill="#DBDEDF"/>
<path d="M38.3728 87.8423C37.4028 87.7575 36.4469 87.7756 35.5171 87.8851C41.692 89.7422 45.9313 95.7278 45.347 102.406C44.7629 109.083 39.5486 114.242 33.145 114.998C34.0416 115.268 34.98 115.451 35.9499 115.536C43.5969 116.205 50.3386 110.548 51.0076 102.901C51.6767 95.2531 46.0197 88.5114 38.3728 87.8423V87.8423Z" fill="#DBDEDF"/>
<path d="M16.457 38.3063C16.3886 39.0876 15.6993 39.666 14.918 39.5977C14.1367 39.5293 13.5583 38.84 13.6267 38.0587C13.695 37.2774 14.3844 36.699 15.1656 36.7674C15.9469 36.8357 16.5253 37.525 16.457 38.3063Z" fill="#18191B"/>
<path d="M71.8368 43.151C71.7685 43.9323 71.0792 44.5107 70.2979 44.4424C69.5166 44.374 68.9382 43.6847 69.0066 42.9034C69.0749 42.1221 69.7642 41.5437 70.5455 41.6121C71.3268 41.6804 71.9052 42.3698 71.8368 43.151Z" fill="#18191B"/>
<path d="M9.39984 118.962C9.33148 119.743 8.64216 120.321 7.86088 120.253C7.07961 120.185 6.5012 119.495 6.56955 118.714C6.6379 117.933 7.32723 117.354 8.1085 117.423C8.88978 117.491 9.46819 118.18 9.39984 118.962Z" fill="#18191B"/>
<path d="M64.7797 123.805C64.7114 124.587 64.022 125.165 63.2408 125.097C62.4595 125.028 61.8811 124.339 61.9494 123.558C62.0178 122.776 62.7071 122.198 63.4884 122.266C64.2697 122.335 64.8481 123.024 64.7797 123.805Z" fill="#18191B"/>
<path d="M42.5403 40.2327C34.3339 39.5148 27.0736 45.6069 26.3557 53.8125C25.6378 62.0189 31.7299 69.2792 39.9363 69.9972C48.1419 70.7151 55.4022 64.6229 56.1202 56.4166C56.8381 48.211 50.7459 40.9506 42.5403 40.2327V40.2327ZM40.1839 67.1669C33.5386 66.5855 28.6046 60.7054 29.186 54.0601C29.7674 47.4149 35.6474 42.4816 42.2927 43.063C48.938 43.6444 53.8713 49.5237 53.2899 56.169C52.7085 62.8142 46.8292 67.7483 40.1839 67.1669Z" fill="#18191B"/>
<path d="M42.0444 45.8801C36.9528 45.4347 32.4481 49.2145 32.0026 54.3068C31.5572 59.3976 35.3363 63.9022 40.4287 64.3477C45.5195 64.7931 50.0249 61.0134 50.4703 55.9225C50.9158 50.8302 47.1359 46.3256 42.0444 45.8801ZM40.6763 61.5175C37.145 61.2085 34.524 58.0849 34.833 54.5537C35.1419 51.0232 38.2655 48.4015 41.7967 48.7104C45.3272 49.0193 47.949 52.1429 47.64 55.6742C47.3311 59.2054 44.2068 61.8263 40.6763 61.5175Z" fill="#18191B"/>
<path d="M35.3284 122.654C46.8898 123.665 57.119 115.082 58.1305 103.52C59.1421 91.9583 50.5587 81.7298 38.9973 80.7183C27.4351 79.7067 17.2059 88.2893 16.1944 99.8515C15.1829 111.413 23.7662 121.642 35.3284 122.654ZM38.7496 83.5486C48.7507 84.4236 56.1752 93.2717 55.3002 103.273C54.4253 113.274 45.5771 120.698 35.576 119.823C25.5749 118.948 18.1497 110.1 19.0247 100.099C19.8996 90.098 28.7486 82.6736 38.7496 83.5486Z" fill="#18191B"/>
<path d="M35.8256 116.948C44.2413 117.684 51.686 111.436 52.4222 103.022C53.1585 94.6058 46.9117 87.1604 38.4961 86.4241C30.0804 85.6879 22.6349 91.9354 21.8986 100.351C21.1624 108.766 27.4099 116.211 35.8256 116.948V116.948ZM38.2484 89.2544C45.103 89.8541 50.1917 95.9186 49.5919 102.774C48.9922 109.628 42.9278 114.717 36.0732 114.117C29.2179 113.518 24.1292 107.453 24.7289 100.599C25.3287 93.7433 31.3931 88.6547 38.2484 89.2544Z" fill="#18191B"/>
<path d="M73.5146 69.6937C72.7333 69.6253 72.044 70.2037 71.9756 70.985L66.905 128.943C66.8736 129.301 66.545 129.577 66.1868 129.546L3.73841 124.082C3.3802 124.051 3.10445 123.722 3.13579 123.364L6.51249 84.7683C6.5809 83.9863 6.00243 83.2977 5.22115 83.2294C4.43988 83.161 3.75062 83.7387 3.6822 84.5207L0.305503 123.117C0.137135 125.041 1.56635 126.744 3.49079 126.913L65.9392 132.376C67.8636 132.545 69.5669 131.115 69.7352 129.191L74.8059 71.2326C74.8743 70.4513 74.2966 69.7621 73.5146 69.6937V69.6937Z" fill="#18191B"/>
<path d="M74.3927 35.7689L11.9443 30.3054C10.0199 30.137 8.31659 31.5662 8.14822 33.4907L4.17891 78.86C4.11056 79.6413 4.68897 80.3306 5.47025 80.399C6.25153 80.4673 6.94085 79.8889 7.0092 79.1077L10.9785 33.7383C11.0098 33.3801 11.3385 33.1043 11.6967 33.1357L74.1451 38.5992C74.5033 38.6305 74.779 38.9592 74.7477 39.3174L72.4724 65.3243C72.4039 66.1063 72.9817 66.7949 73.7637 66.8633C74.5457 66.9317 75.2342 66.354 75.3027 65.572L77.578 39.565C77.7463 37.6406 76.3179 35.9374 74.3927 35.7689V35.7689Z" fill="#18191B"/>
<path d="M29.8302 73.6658C29.0489 73.5974 28.3596 74.1759 28.2912 74.9571C28.2228 75.7392 28.8013 76.4277 29.5826 76.4961L49.0047 78.1953C49.7867 78.2637 50.4752 77.686 50.5436 76.904C50.612 76.1227 50.0343 75.4334 49.2523 75.365L29.8302 73.6658Z" fill="#18191B"/>
<g clip-path="url(#clip0)">
<path d="M122.295 136.336L71.4114 131.884C70.4811 131.803 69.7868 130.975 69.8682 130.045L76.2573 57.0164C76.3387 56.0861 77.1662 55.3918 78.0965 55.4732L128.98 59.9249C129.911 60.0063 130.605 60.8338 130.524 61.7641L124.134 134.792C124.053 135.723 123.225 136.417 122.295 136.336Z" fill="#696867"/>
<path d="M128.98 59.924L124.367 59.5205C125.297 59.6019 125.992 60.4294 125.91 61.3597L119.521 134.388C119.44 135.318 118.612 136.013 117.682 135.931L122.294 136.335C123.225 136.416 124.052 135.722 124.134 134.792L130.523 61.7632C130.604 60.8329 129.91 60.0054 128.98 59.924Z" fill="#544F4F"/>
<path d="M113.039 75.4935C112.508 81.5538 107.166 86.0372 101.106 85.507C95.0454 84.9768 90.562 79.6337 91.0922 73.5735C91.6224 67.5132 96.9654 63.0304 103.026 63.5606C109.086 64.0908 113.569 69.4332 113.039 75.4935Z" fill="#9A9999"/>
<path d="M103.026 63.5602C102.234 63.4909 101.456 63.5093 100.698 63.6034C105.558 65.0961 108.887 69.8208 108.426 75.0895C107.965 80.3588 103.866 84.4336 98.8211 85.0597C99.5507 85.2839 100.314 85.4373 101.106 85.5065C107.166 86.0367 112.509 81.5533 113.039 75.493C113.569 69.4328 109.086 64.0904 103.026 63.5602Z" fill="#696867"/>
<path d="M108.436 75.091C108.128 78.6097 105.026 81.2122 101.507 80.9044C97.9888 80.5965 95.3862 77.4949 95.6941 73.9762C96.0019 70.4581 99.1035 67.855 102.622 68.1628C106.14 68.4706 108.743 71.5729 108.436 75.091Z" fill="#ECECEC"/>
<path d="M114.677 113.877C113.907 122.676 106.15 129.184 97.3512 128.415C88.5517 127.645 82.0429 119.888 82.8127 111.089C83.5825 102.29 91.3394 95.7813 100.139 96.5511C108.938 97.3209 115.447 105.078 114.677 113.877Z" fill="#9A9999"/>
<path d="M100.139 96.5504C99.3554 96.4818 98.5811 96.4716 97.8185 96.515C105.426 98.3068 110.766 105.457 110.065 113.472C109.363 121.488 102.864 127.602 95.0599 128.045C95.8035 128.22 96.5677 128.345 97.3515 128.414C106.15 129.184 113.907 122.675 114.677 113.876C115.447 105.077 108.938 97.3202 100.139 96.5504V96.5504Z" fill="#696867"/>
<path d="M110.028 113.469C109.482 119.7 103.989 124.31 97.7582 123.765C91.5268 123.219 86.9175 117.726 87.4626 111.495C88.0078 105.263 93.501 100.654 99.7325 101.199C105.963 101.744 110.573 107.237 110.028 113.469V113.469Z" fill="#ECECEC"/>
<path d="M102.623 68.1617C101.809 68.0905 101.018 68.1769 100.279 68.3924C102.575 69.5246 104.06 71.9814 103.824 74.6863C103.587 77.3913 101.698 79.5534 99.2394 80.2697C99.9304 80.6097 100.694 80.8321 101.508 80.9033C105.026 81.211 108.128 78.6086 108.436 75.0899C108.744 71.5718 106.141 68.4695 102.623 68.1617Z" fill="#DBDEDF"/>
<path d="M99.7324 101.199C98.9421 101.13 98.1632 101.144 97.4056 101.234C102.437 102.747 105.891 107.624 105.415 113.065C104.939 118.506 100.69 122.71 95.4728 123.325C96.2033 123.545 96.9679 123.695 97.7583 123.764C103.989 124.309 109.482 119.699 110.027 113.469C110.573 107.237 105.963 101.744 99.7324 101.199V101.199Z" fill="#DBDEDF"/>
<path d="M81.8728 60.8363C81.8171 61.4729 81.2554 61.9442 80.6188 61.8885C79.9822 61.8328 79.5109 61.2711 79.5666 60.6345C79.6223 59.9979 80.184 59.5266 80.8206 59.5823C81.4572 59.638 81.9285 60.1997 81.8728 60.8363Z" fill="#18191B"/>
<path d="M126.997 64.7855C126.942 65.4221 126.38 65.8934 125.743 65.8377C125.107 65.782 124.635 65.2203 124.691 64.5837C124.747 63.9471 125.308 63.4759 125.945 63.5315C126.582 63.5872 127.053 64.1489 126.997 64.7855Z" fill="#18191B"/>
<path d="M76.1232 126.557C76.0676 127.194 75.5059 127.665 74.8693 127.609C74.2327 127.553 73.7614 126.992 73.8171 126.355C73.8728 125.719 74.4345 125.247 75.071 125.303C75.7076 125.359 76.1789 125.92 76.1232 126.557Z" fill="#18191B"/>
<path d="M121.248 130.503C121.192 131.14 120.63 131.611 119.994 131.555C119.357 131.5 118.886 130.938 118.942 130.302C118.997 129.665 119.559 129.194 120.196 129.249C120.832 129.305 121.303 129.867 121.248 130.503Z" fill="#18191B"/>
<path d="M103.127 62.4076C96.4399 61.8226 90.5241 66.7866 89.9391 73.4726C89.3541 80.1593 94.3181 86.0751 101.005 86.6601C107.691 87.2451 113.607 82.2811 114.192 75.5945C114.777 68.9084 109.813 62.9926 103.127 62.4076V62.4076ZM101.207 84.354C95.7918 83.8802 91.7716 79.0891 92.2453 73.6744C92.719 68.2597 97.5101 64.2401 102.925 64.7138C108.339 65.1875 112.359 69.978 111.885 75.3927C111.412 80.8074 106.621 84.8277 101.207 84.354Z" fill="#18191B"/>
<path d="M102.723 67.0079C98.5744 66.6449 94.9039 69.7248 94.5409 73.8741C94.178 78.0221 97.2573 81.6925 101.407 82.0556C105.555 82.4185 109.226 79.3386 109.589 75.1906C109.952 71.0413 106.872 67.3708 102.723 67.0079ZM101.608 79.7494C98.731 79.4977 96.5954 76.9525 96.8471 74.0752C97.0988 71.1985 99.644 69.0623 102.521 69.314C105.398 69.5657 107.534 72.1109 107.283 74.9882C107.031 77.8655 104.485 80.0011 101.608 79.7494Z" fill="#18191B"/>
<path d="M97.2502 129.566C106.671 130.39 115.006 123.396 115.83 113.976C116.654 104.555 109.66 96.2203 100.24 95.3961C90.8187 94.5719 82.4838 101.565 81.6596 110.986C80.8354 120.407 87.8292 128.742 97.2502 129.566ZM100.038 97.7023C108.187 98.4153 114.237 105.625 113.524 113.774C112.811 121.923 105.601 127.973 97.452 127.26C89.303 126.547 83.2528 119.337 83.9657 111.188C84.6787 103.039 91.8889 96.9894 100.038 97.7023Z" fill="#18191B"/>
<path d="M97.6574 124.917C104.515 125.517 110.581 120.426 111.181 113.57C111.78 106.713 106.691 100.646 99.8333 100.046C92.9761 99.4461 86.9094 104.537 86.3095 111.394C85.7096 118.25 90.8001 124.317 97.6574 124.917V124.917ZM99.6315 102.352C105.217 102.841 109.363 107.782 108.874 113.368C108.386 118.953 103.444 123.1 97.8591 122.611C92.2733 122.122 88.127 117.181 88.6156 111.596C89.1043 106.01 94.0457 101.863 99.6315 102.352Z" fill="#18191B"/>
<path d="M128.367 86.413C127.73 86.3573 127.168 86.8286 127.113 87.4652L122.981 134.69C122.955 134.982 122.688 135.207 122.396 135.181L71.5119 130.73C71.22 130.704 70.9953 130.436 71.0209 130.145L73.7723 98.6961C73.828 98.0589 73.3567 97.4978 72.7201 97.4421C72.0835 97.3864 71.5218 97.8571 71.4661 98.4943L68.7147 129.943C68.5775 131.511 69.7421 132.899 71.3101 133.036L122.194 137.488C123.762 137.625 125.15 136.46 125.287 134.892L129.419 87.667C129.474 87.0304 129.004 86.4688 128.367 86.413V86.413Z" fill="#18191B"/>
<path d="M129.081 58.7699L78.1968 54.3182C76.6287 54.181 75.2409 55.3455 75.1037 56.9136L71.8695 93.8812C71.8138 94.5178 72.2851 95.0795 72.9216 95.1352C73.5582 95.1909 74.1199 94.7196 74.1756 94.083L77.4099 57.1154C77.4354 56.8235 77.7032 56.5988 77.995 56.6243L128.879 61.0761C129.171 61.1016 129.395 61.3694 129.37 61.6613L127.516 82.8521C127.46 83.4893 127.931 84.0503 128.568 84.1061C129.205 84.1618 129.766 83.6911 129.822 83.0539L131.676 61.863C131.813 60.295 130.649 58.9072 129.081 58.7699V58.7699Z" fill="#18191B"/>
<path d="M92.7698 89.6487C92.1332 89.593 91.5715 90.0643 91.5158 90.7009C91.4601 91.3381 91.9314 91.8992 92.568 91.9549L108.393 93.3394C109.031 93.3952 109.592 92.9244 109.647 92.2872C109.703 91.6506 109.232 91.089 108.595 91.0333L92.7698 89.6487Z" fill="#18191B"/>
</g>
<defs>
<filter id="filter0_d" x="4" y="16" width="143" height="143.062" filterUnits="userSpaceOnUse" color-interpolation-filters="sRGB">
<feFlood flood-opacity="0" result="BackgroundImageFix"/>
<feColorMatrix in="SourceAlpha" type="matrix" values="0 0 0 0 0 0 0 0 0 0 0 0 0 0 0 0 0 0 127 0"/>
<feOffset dy="4"/>
<feGaussianBlur stdDeviation="2"/>
<feColorMatrix type="matrix" values="0 0 0 0 0 0 0 0 0 0 0 0 0 0 0 0 0 0 0.05 0"/>
<feBlend mode="normal" in2="BackgroundImageFix" result="effect1_dropShadow"/>
<feBlend mode="normal" in="SourceGraphic" in2="effect1_dropShadow" result="shape"/>
</filter>
<clipPath id="clip0">
<rect width="79.0176" height="79.0176" fill="white" transform="translate(64.2832 53.1016) rotate(5)"/>
</clipPath>
</defs>
</svg>
