<svg width="175" height="160" viewBox="0 0 175 160" fill="none" xmlns="http://www.w3.org/2000/svg">
<g clip-path="url(#clip0)">
<g filter="url(#filter0_d)">
<path fill-rule="evenodd" clip-rule="evenodd" d="M69.0067 16.2882C74.9606 15.7988 80.996 15.8804 86.8684 16.9407C99.4286 19.0612 111.336 24.852 120.797 33.4157C134.581 45.8128 142.982 64.1638 142.982 82.6779C143.389 99.4792 137.028 116.281 125.772 128.678C115.822 139.851 102.038 147.518 87.2762 150.046C80.7514 151.188 73.9819 151.351 67.3756 150.617C54.6522 149.149 42.3367 143.848 32.4679 135.692C17.7872 123.702 8.57092 105.107 8 86.1034C8 83.7382 8 81.2914 8 78.9261C8.97872 65.1425 14.2801 51.6851 23.007 40.9193C34.2623 26.9725 51.2267 17.8378 69.0067 16.2882ZM43.7232 28.5222C43.6416 30.0718 43.7232 31.6214 43.6416 33.0895C43.6416 50.2986 43.6416 67.5078 43.6416 84.7169C37.9325 84.7169 32.2233 84.7169 26.4325 84.7169C26.4325 97.6033 26.4325 110.49 26.4325 123.376C26.4325 123.539 26.5141 123.866 26.5141 123.947C38.0956 138.057 56.0387 146.947 74.3897 146.865C74.3897 126.149 74.3897 105.352 74.3897 84.6353C68.6805 84.6353 62.9713 84.6353 57.1806 84.6353C57.1806 64.0007 57.1806 43.2845 57.1806 22.6498C52.4501 24.1179 47.9643 26.1569 43.7232 28.5222ZM93.23 84.7169C87.5208 84.7169 81.8116 84.7169 76.0209 84.7169C76.0209 105.433 76.0209 126.231 76.0209 146.947C94.1272 147.192 111.989 138.709 123.733 124.926C124.06 124.518 123.897 123.866 123.978 123.376C123.978 110.49 123.978 97.6033 123.978 84.7169C118.269 84.7169 112.56 84.7169 106.769 84.7169C106.769 66.0397 106.769 47.3625 106.769 28.6853C106.769 28.5222 106.687 28.2775 106.606 28.1959C102.365 25.8307 97.8789 23.8732 93.23 22.5683C93.1485 43.2845 93.23 64.0007 93.23 84.7169ZM12.1596 84.7169C12.078 97.6033 16.5638 110.327 24.0673 120.766C24.312 121.093 24.5566 121.419 24.8829 121.663C24.9644 109.348 24.8829 97.0324 24.8829 84.7169C20.5602 84.7169 16.3191 84.7169 12.1596 84.7169ZM125.609 84.7169C125.609 97.3587 125.528 110 125.691 122.642C134.01 111.876 138.985 98.3374 138.985 84.7169C134.499 84.7169 130.014 84.7169 125.609 84.7169Z" fill="black"/>
</g>
<g filter="url(#filter1_d)">
<g clip-path="url(#clip1)" filter="url(#filter2_d)">
<path d="M74.3626 126.942C74.3626 126.942 75.0547 118.593 81.5939 114.912C86.4297 112.191 93.9024 106.835 97.8952 101.728C99.3088 99.9191 98.9907 97.3033 97.1806 95.8933C95.6285 94.6798 93.4864 94.747 92.016 95.9329C92.016 95.9329 88.582 98.7759 81.7016 96.229C76.6285 94.3508 79.8316 88.6878 79.8316 88.6878C79.8316 88.6878 71.6576 81.9732 71.6147 82.0231C67.3919 86.9231 66.9326 81.1854 66.9326 81.1854C66.1174 74.7981 70.4108 68.729 70.4108 68.729C72.3858 66.3919 72.0929 62.8963 69.7565 60.9205C67.4121 58.9366 63.9226 59.2362 61.9463 61.5732C61.3665 62.2586 54.3654 70.6507 48.779 82.1603C48.779 82.1603 43.7787 92.4156 35.4791 94.3286C35.4677 94.3311 29.6114 95.9614 25.6122 99.6666C14.6349 109.838 14.3897 127.824 25.5251 140.347C36.6605 152.87 54.753 154.96 65.9367 145.017C71.1718 140.361 74.0146 133.789 74.3626 126.942Z" fill="#D80027"/>
<path d="M29.5258 142.924C18.3907 130.401 18.6357 112.415 29.6132 102.243C33.6124 98.5378 39.469 96.9078 39.4802 96.9054C47.7797 94.9926 52.7613 84.7755 52.7794 84.7384C52.7797 84.7381 52.7803 84.7368 52.7803 84.7368C58.3666 73.2274 65.3677 64.835 65.9475 64.1496C67.2087 62.6585 69.0852 62.0013 70.8876 62.233C70.5888 61.7513 70.2131 61.3062 69.7572 60.9205C67.4128 58.9366 63.9233 59.2361 61.947 61.5731C61.3672 62.2586 54.3661 70.6507 48.7797 82.1603C48.7797 82.1603 43.7794 92.4156 35.4799 94.3286C35.4685 94.3311 29.6121 95.9613 25.6129 99.6666C14.6354 109.838 14.3901 127.824 25.5256 140.347C28.1822 143.335 31.2357 145.727 34.4963 147.506C32.731 146.179 31.062 144.651 29.5258 142.924Z" fill="#A5001E"/>
<path d="M88.8833 101.612C88.3465 100.751 87.0277 100.786 86.0549 100.953C85.6952 101.056 85.3142 101.152 84.9116 101.233C84.9092 101.234 84.9057 101.235 84.9057 101.235L84.9066 101.234C82.173 101.788 78.5317 101.693 74.9736 99.0425C74.9733 99.0422 74.973 99.042 74.9727 99.0418C72.3593 96.9288 72.7541 94.2543 73.435 91.9131C72.1541 90.8635 70.8692 89.6329 69.5197 88.5402C66.9485 90.3919 64.1475 88.6203 63.3645 87.9877C63.3645 87.9877 63.3642 87.9875 63.3639 87.9872C62.2506 87.0871 61.7741 85.6995 61.5696 84.7209C61.2194 83.5236 60.6363 82.676 60.6363 82.676C60.6363 82.676 55.7934 76.066 53.9632 87.8058C53.9632 87.8058 53.1832 100.73 43.7147 107.302C43.74 107.323 28.6684 115.343 50.274 132.979C50.274 132.979 54.9977 137.451 55.9562 142.806C55.9562 142.806 56.1181 145.223 57.8027 144.451C59.0593 143.744 60.2519 142.904 61.3568 141.921C65.6201 138.13 68.126 132.904 68.4335 126.856C68.4335 126.856 69.3031 117.259 76.6098 113.146C79.9653 111.258 84.3137 108.231 87.7578 105.052C89.9809 102.78 88.8854 101.65 88.8833 101.612Z" fill="white"/>
<path d="M46.6561 109.639C56.1245 103.066 56.9046 90.1425 56.9046 90.1425C57.8202 84.2701 59.4895 82.989 60.9296 83.1755C60.7602 82.861 60.6346 82.6769 60.6346 82.6769C60.6346 82.6769 55.7917 76.067 53.9613 87.8067C53.9613 87.8067 53.1812 100.73 43.7128 107.303C43.738 107.324 28.6665 115.344 50.2721 132.98C50.2721 132.98 54.9957 137.452 55.9542 142.807C55.9542 142.807 56.1159 145.224 57.8008 144.452C58.0738 144.298 58.3436 144.137 58.6102 143.97C57.2079 139.197 53.2151 135.316 53.2151 135.316C31.6098 117.68 46.6813 109.659 46.6561 109.639Z" fill="#D8D7DA"/>
<path d="M60.7952 133.329C62.6749 133.13 64.0374 131.445 63.8383 129.566C63.6393 127.686 61.9541 126.323 60.0744 126.522C58.1947 126.721 56.8322 128.407 57.0313 130.286C57.2303 132.166 58.9155 133.528 60.7952 133.329Z" fill="#57565C"/>
<path d="M61.4999 139.99C62.5698 139.876 63.3453 138.917 63.232 137.847C63.1187 136.777 62.1595 136.002 61.0896 136.115C60.0197 136.228 59.2442 137.188 59.3575 138.258C59.4708 139.328 60.43 140.103 61.4999 139.99Z" fill="#57565C"/>
<path d="M46.1676 134.135L34.1552 124.423C33.0341 123.517 32.8585 121.858 33.7649 120.737L34.5337 119.786C35.4401 118.665 37.099 118.489 38.2201 119.396L50.2325 129.108C51.3536 130.014 51.5292 131.673 50.6228 132.794L49.854 133.745C48.9478 134.866 47.2887 135.042 46.1676 134.135Z" fill="#57565C"/>
<path d="M36.675 123.218L37.4438 122.267C38.3505 121.146 40.0091 120.97 41.1304 121.877L38.2203 119.396C37.0993 118.489 35.4404 118.665 34.5337 119.786L33.7649 120.737C32.8585 121.858 33.0341 123.517 34.1552 124.424L36.5794 126.384C35.918 125.449 35.9222 124.149 36.675 123.218Z" fill="#2D2D30"/>
<path d="M54.6262 124.094C54.1239 124.148 53.6009 124.009 53.1767 123.666L42.9396 115.39C42.0912 114.704 41.9596 113.461 42.6454 112.613C43.3313 111.765 44.5743 111.633 45.4222 112.319L55.6593 120.595C56.5077 121.281 56.6394 122.524 55.9536 123.372C55.6111 123.796 55.1286 124.041 54.6262 124.094Z" fill="#ACABB1"/>
<path d="M60.4134 116.455C59.9108 116.508 59.3881 116.37 58.9639 116.027L49.1879 108.123C48.3398 107.437 48.2081 106.194 48.8939 105.346C49.5802 104.498 50.8232 104.367 51.6708 105.052L61.4468 112.956C62.2949 113.642 62.4266 114.885 61.7408 115.733C61.3981 116.157 60.9158 116.402 60.4134 116.455Z" fill="#ACABB1"/>
<path d="M65.641 108.148C65.1386 108.202 64.6157 108.063 64.1915 107.72L55.5385 100.724C54.6904 100.039 54.5587 98.7954 55.2445 97.9477C55.9305 97.0998 57.1735 96.9682 58.0214 97.6537L66.6744 104.649C67.5225 105.335 67.6541 106.578 66.9684 107.426C66.6254 107.85 66.1431 108.095 65.641 108.148Z" fill="#ACABB1"/>
<path d="M108.998 50.3097L103.072 45.5187L62.7626 92.2925C62.0878 93.1271 62.5807 93.8652 63.2147 94.3777L69.502 99.461C70.1373 99.9747 71.0259 100.223 71.6404 99.4634L108.998 50.3097Z" fill="#57565C"/>
<path d="M65.4935 94.7303L105.803 47.9565L103.072 45.5187L62.7626 92.2925C62.0878 93.1271 62.5807 93.8651 63.2147 94.3777L65.3014 96.0648C65.105 95.6699 65.1001 95.2169 65.4935 94.7303Z" fill="#2D2D30"/>
<path d="M66.2713 88.2889C66.2591 88.279 66.2452 88.2724 66.2326 88.2636L65.393 89.2377C65.4129 89.2587 65.4317 89.2803 65.4547 89.2988L73.9886 96.1985C74.016 96.2207 74.046 96.2385 74.0759 96.2556L74.8518 95.2348C74.8363 95.2195 74.8226 95.2027 74.8051 95.1885L66.2713 88.2889Z" fill="#FFDAAA"/>
<path d="M69.1332 84.8984L77.5416 91.6963L78.3279 90.6619L69.9816 83.9139L69.1332 84.8984Z" fill="#FFDAAA"/>
<path d="M72.8808 80.5527L81.0148 87.1292L81.8009 86.0948L73.7287 79.5683L72.8808 80.5527Z" fill="#FFDAAA"/>
<path d="M76.6259 76.204L84.4861 82.5591L85.2725 81.5247L77.4743 75.2196L76.6259 76.204Z" fill="#FFDAAA"/>
<path d="M80.3735 71.8593L87.9597 77.9928L88.7458 76.9582L81.2216 70.8749L80.3735 71.8593Z" fill="#FFDAAA"/>
<path d="M84.119 67.5095L91.431 73.4214L92.2174 72.387L84.9675 66.5252L84.119 67.5095Z" fill="#FFDAAA"/>
<path d="M87.8651 63.1647L94.9031 68.8552L95.6892 67.8205L88.7131 62.1806L87.8651 63.1647Z" fill="#FFDAAA"/>
<path d="M91.6122 58.8163L98.3761 64.2852L99.1625 63.2508L92.4601 57.8319L91.6122 58.8163Z" fill="#FFDAAA"/>
<path d="M102.634 58.6804L96.2062 53.4833L95.3578 54.4677L101.848 59.7148L102.634 58.6804Z" fill="#FFDAAA"/>
<path d="M106.108 54.1129L99.9533 49.1376L99.1054 50.1218L105.321 55.1473L106.108 54.1129Z" fill="#FFDAAA"/>
<path d="M66.2311 88.2636L65.3915 89.2377C65.4115 89.2587 65.4302 89.2802 65.4532 89.2988L68.2354 91.5482L69.0838 90.5638L66.2698 88.2886C66.2576 88.279 66.244 88.2726 66.2311 88.2636Z" fill="#FFB655"/>
<path d="M69.1318 84.8984L71.9816 87.2024L72.8297 86.218L69.9799 83.9139L69.1318 84.8984Z" fill="#FFB655"/>
<path d="M72.8793 80.5527L75.7291 82.8568L76.5773 81.8726L73.7275 79.5682L72.8793 80.5527Z" fill="#FFB655"/>
<path d="M76.6249 76.204L79.4747 78.5081L80.3232 77.5239L77.4731 75.2196L76.6249 76.204Z" fill="#FFB655"/>
<path d="M80.3725 71.8583L83.2225 74.1624L84.0707 73.178L81.2206 70.8739L80.3725 71.8583Z" fill="#FFB655"/>
<path d="M84.1176 67.5095L86.9674 69.8138L87.8158 68.8293L84.966 66.5252L84.1176 67.5095Z" fill="#FFB655"/>
<path d="M87.8651 63.1647L90.7147 65.4688L91.5631 64.4846L88.7133 62.1805L87.8651 63.1647Z" fill="#FFB655"/>
<path d="M91.6108 58.8163L94.4606 61.1204L95.3087 60.1362L92.4587 57.8319L91.6108 58.8163Z" fill="#FFB655"/>
<path d="M95.3564 54.4677L98.2062 56.7718L99.0546 55.7873L96.2048 53.4833L95.3564 54.4677Z" fill="#FFB655"/>
<path d="M99.9521 49.1376L99.1039 50.1218L101.954 52.4258L102.802 51.4414L99.9521 49.1376Z" fill="#FFB655"/>
<path d="M136.421 26.2284L136.42 26.227C136.369 26.127 136.304 26.0338 136.228 25.9499C136.02 25.7211 135.797 25.5096 135.563 25.3205C132.3 22.6824 127.984 24.9454 127.802 25.0432L104.531 37.5262C104.041 37.7894 103.775 38.3375 103.872 38.8853L104.454 42.1724L102.864 44.1397C102.416 44.6928 102.502 45.5035 103.055 45.9507L108.563 50.4034C108.564 50.4045 108.565 50.4056 108.567 50.4067C109.12 50.8539 109.931 50.768 110.378 50.215C110.405 50.1814 110.43 50.1468 110.453 50.1114L112.165 47.954C120.39 50.0826 124.468 45.3318 124.685 45.1044C125.598 44.1475 125.933 43.1475 125.986 43.0101C128.89 35.4585 130.5 35.4471 131.052 35.2992C131.249 35.2464 131.509 35.1923 131.774 35.4751C132.601 36.3556 133.385 36.5473 134.007 35.9027C138.587 31.157 137.26 27.5954 136.421 26.2284Z" fill="#FFC477"/>
<path d="M106.1 47.1806L107.691 45.2133L107.109 41.9262C107.012 41.3784 107.278 40.8303 107.768 40.5671L131.038 28.0842C131.188 28.004 134.109 26.474 136.954 27.3701C136.794 26.8996 136.597 26.5153 136.421 26.2284L136.42 26.227C136.368 26.127 136.304 26.0337 136.228 25.9499C136.02 25.721 135.796 25.5096 135.563 25.3205C132.3 22.6824 127.984 24.9454 127.801 25.0432L104.531 37.5262C104.041 37.7894 103.775 38.3375 103.872 38.8853L104.454 42.1724L102.863 44.1397C102.416 44.6928 102.502 45.5035 103.055 45.9507L105.836 48.1992C105.778 47.8493 105.86 47.4779 106.1 47.1806Z" fill="#FFA733"/>
<path d="M110.114 41.772L105.192 31.9291C104.704 30.9539 105.1 29.7678 106.075 29.2802C107.05 28.7923 108.236 29.1877 108.724 30.1631L113.646 40.006C114.134 40.9812 113.738 42.1673 112.763 42.6549C112.546 42.7638 110.894 43.2437 110.114 41.772Z" fill="#57565C"/>
<path d="M107.291 34.188C109.026 34.0043 110.284 32.4488 110.1 30.7137C109.916 28.9786 108.361 27.7209 106.626 27.9046C104.89 28.0884 103.633 29.6439 103.817 31.379C104 33.1141 105.556 34.3717 107.291 34.188Z" fill="#2D2D30"/>
<path d="M117.45 37.8538L112.528 28.0109C112.04 27.0357 112.435 25.8497 113.41 25.362C114.385 24.8747 115.572 25.2695 116.059 26.245L120.981 36.0878C121.469 37.0631 121.074 38.2491 120.099 38.7367C119.881 38.8456 118.295 39.3732 117.45 37.8538Z" fill="#57565C"/>
<path d="M114.626 30.2661C116.361 30.0824 117.619 28.5269 117.435 26.7918C117.251 25.0567 115.696 23.799 113.961 23.9828C112.225 24.1665 110.968 25.722 111.152 27.4571C111.335 29.1922 112.891 30.4499 114.626 30.2661Z" fill="#2D2D30"/>
<path d="M125.138 33.9742L120.216 24.1313C119.729 23.1561 120.124 21.97 121.099 21.4824C122.075 20.9943 123.261 21.3901 123.749 22.3653L128.671 32.2082C129.158 33.1835 128.763 34.3695 127.788 34.8571C127.57 34.9658 126.096 35.5453 125.138 33.9742Z" fill="#57565C"/>
<path d="M122.317 26.3902C124.052 26.2064 125.31 24.6509 125.126 22.9158C124.942 21.1807 123.387 19.9231 121.651 20.1068C119.916 20.2905 118.659 21.846 118.842 23.5811C119.026 25.3162 120.582 26.5739 122.317 26.3902Z" fill="#2D2D30"/>
</g>
</g>
</g>
<defs>
<filter id="filter0_d" x="4" y="16" width="143" height="143.062" filterUnits="userSpaceOnUse" color-interpolation-filters="sRGB">
<feFlood flood-opacity="0" result="BackgroundImageFix"/>
<feColorMatrix in="SourceAlpha" type="matrix" values="0 0 0 0 0 0 0 0 0 0 0 0 0 0 0 0 0 0 127 0"/>
<feOffset dy="4"/>
<feGaussianBlur stdDeviation="2"/>
<feColorMatrix type="matrix" values="0 0 0 0 0 0 0 0 0 0 0 0 0 0 0 0 0 0 0.05 0"/>
<feBlend mode="normal" in2="BackgroundImageFix" result="effect1_dropShadow"/>
<feBlend mode="normal" in="SourceGraphic" in2="effect1_dropShadow" result="shape"/>
</filter>
<filter id="filter1_d" x="3.56689" y="15.5674" width="149.866" height="149.866" filterUnits="userSpaceOnUse" color-interpolation-filters="sRGB">
<feFlood flood-opacity="0" result="BackgroundImageFix"/>
<feColorMatrix in="SourceAlpha" type="matrix" values="0 0 0 0 0 0 0 0 0 0 0 0 0 0 0 0 0 0 127 0"/>
<feOffset dy="4"/>
<feGaussianBlur stdDeviation="2"/>
<feColorMatrix type="matrix" values="0 0 0 0 0 0 0 0 0 0 0 0 0 0 0 0 0 0 0.25 0"/>
<feBlend mode="normal" in2="BackgroundImageFix" result="effect1_dropShadow"/>
<feBlend mode="normal" in="SourceGraphic" in2="effect1_dropShadow" result="shape"/>
</filter>
<filter id="filter2_d" x="3.56689" y="15.5674" width="149.866" height="149.866" filterUnits="userSpaceOnUse" color-interpolation-filters="sRGB">
<feFlood flood-opacity="0" result="BackgroundImageFix"/>
<feColorMatrix in="SourceAlpha" type="matrix" values="0 0 0 0 0 0 0 0 0 0 0 0 0 0 0 0 0 0 127 0"/>
<feOffset dy="4"/>
<feGaussianBlur stdDeviation="2"/>
<feColorMatrix type="matrix" values="0 0 0 0 0 0 0 0 0 0 0 0 0 0 0 0 0 0 0.02 0"/>
<feBlend mode="normal" in2="BackgroundImageFix" result="effect1_dropShadow"/>
<feBlend mode="normal" in="SourceGraphic" in2="effect1_dropShadow" result="shape"/>
</filter>
<clipPath id="clip0">
<rect width="175" height="160" fill="white"/>
</clipPath>
<clipPath id="clip1">
<rect width="129" height="129" fill="white" transform="translate(7.56689 29.1504) rotate(-6.04429)"/>
</clipPath>
</defs>
</svg>
