<svg xmlns="http://www.w3.org/2000/svg">
	<symbol id="dropdown-icon" viewBox="0 0 491.996 491.996">
		<path
			d="M484.132,124.986l-16.116-16.228c-5.072-5.068-11.82-7.86-19.032-7.86c-7.208,0-13.964,2.792-19.036,7.86l-183.84,183.848
			L62.056,108.554c-5.064-5.068-11.82-7.856-19.028-7.856s-13.968,2.788-19.036,7.856l-16.12,16.128
			c-10.496,10.488-10.496,27.572,0,38.06l219.136,219.924c5.064,5.064,11.812,8.632,19.084,8.632h0.084
			c7.212,0,13.96-3.572,19.024-8.632l218.932-219.328c5.072-5.064,7.856-12.016,7.864-19.224
			C491.996,136.902,489.204,130.046,484.132,124.986z"
		/>
	</symbol>

	<symbol id="skype-icon" viewBox="0 0 58 50">
		<path
			d="M54.9664 29.3675C54.0577 28.1115 53.6366 26.5775 53.6383 25.0272C53.6384 25.0182 53.6384 25.0092 53.6384 25.0001C53.6384 11.193 42.4455 0 28.6383 0C25.6179 0 22.7237 0.537576 20.0437 1.52001C18.5938 2.05145 17.0055 2.15359 15.5191 1.73487C14.2061 1.36501 12.8035 1.20901 11.3505 1.30901C5.24685 1.72901 0.333097 6.7312 0.0168087 12.8411C-0.134193 15.7574 0.740386 18.4627 2.31011 20.6325C3.21884 21.8885 3.63998 23.4225 3.63813 24.9728C3.63813 24.9818 3.63813 24.9908 3.63813 24.9999C3.63813 38.807 14.8309 50 28.6382 50C31.6588 50 34.553 49.4624 37.2328 48.48C38.6827 47.9486 40.271 47.8464 41.7575 48.2651C43.0705 48.635 44.4729 48.791 45.9261 48.691C52.0297 48.271 56.9433 43.2689 57.2597 37.1592C57.4107 34.2429 56.5362 31.5374 54.9664 29.3675ZM29.5535 20.518C34.5944 21.7168 42.2119 23.5282 42.2119 31.919C42.2119 36.0524 40.1763 39.2056 36.4798 40.7975C33.8421 41.9335 30.8568 42.0868 28.2843 42.0868C20.3791 42.0868 15.3862 35.9399 15.1775 35.6782C13.8829 34.0544 14.1494 31.6884 15.7732 30.3938C17.3967 29.0987 19.7627 29.3658 21.0576 30.9891C21.0691 31.003 24.055 34.4321 28.2843 34.5663C33.3772 34.7279 34.5408 33.2126 34.6912 31.9191C34.8751 30.3394 33.4698 29.1797 27.8132 27.8345C23.0186 26.6942 15.7721 24.9711 15.7721 17.2434C15.7721 14.837 16.7508 6.9852 29.3455 6.9852C37.2981 6.9852 41.9923 13.2465 42.1883 13.5131C43.4183 15.1864 43.0592 17.5401 41.3859 18.77C39.7199 19.9946 37.381 19.6442 36.1463 17.9912C36.0577 17.8773 33.3707 14.8878 29.3455 14.5057C26.2998 14.2164 23.2926 15.3147 23.2926 16.9371C23.2926 18.6562 24.1562 19.2344 29.5535 20.518Z"
			fill="#00AAF2"
		/>
	</symbol>

	<symbol id="telegram-icon" viewBox="0 0 51 51">
		<path d="M25.5 51C39.5833 51 51 39.5833 51 25.5C51 11.4167 39.5833 0 25.5 0C11.4167 0 0 11.4167 0 25.5C0 39.5833 11.4167 51 25.5 51Z" />
		<path
			d="M35.2283 15.1084C35.2283 15.1084 37.8814 14.0766 37.6603 16.5824C37.5866 17.6142 36.9234 21.2254 36.4075 25.1315L34.6387 36.7023C34.6387 36.7023 34.4913 38.3974 33.1647 38.6922C31.8381 38.987 29.8482 37.6604 29.4797 37.3656C29.1849 37.1445 23.9523 33.828 22.1098 32.2067C21.5939 31.7645 21.0043 30.8801 22.1835 29.8483L29.9219 22.4783C30.8063 21.5939 31.6907 19.5304 28.0057 22.0361L17.6878 29.0376C17.6878 29.0376 16.5086 29.7746 14.2976 29.1113L9.50717 27.6373C9.50717 27.6373 7.73838 26.5318 10.7601 25.4263C18.13 21.9624 27.195 18.4249 35.2283 15.1084Z"
			fill="white"
		/>
	</symbol>

	<symbol id="viber-icon" viewBox="0 0 51 51">
		<path d="M25.5 51C39.5833 51 51 39.5833 51 25.5C51 11.4167 39.5833 0 25.5 0C11.4167 0 0 11.4167 0 25.5C0 39.5833 11.4167 51 25.5 51Z" fill="#6F3FAA" />
		<path
			d="M38.9899 17.9223L38.9816 17.8887C38.3002 15.1342 35.2285 12.1785 32.4075 11.5637L32.3758 11.5571C27.8131 10.6867 23.1867 10.6867 18.625 11.5571L18.5922 11.5637C15.7723 12.1785 12.7004 15.1344 12.0182 17.8887L12.0106 17.9223C11.1683 21.7689 11.1683 25.67 12.0106 29.5167L12.0182 29.5503C12.6714 32.1872 15.5144 35.0071 18.23 35.7826V38.8573C18.23 39.9703 19.5862 40.5168 20.3574 39.7137L23.4727 36.4755C24.1484 36.5132 24.8245 36.5343 25.5003 36.5343C27.797 36.5343 30.0948 36.3171 32.3757 35.882L32.4074 35.8754C35.2284 35.2605 38.3001 32.3047 38.9815 29.5504L38.9898 29.5168C39.8321 25.67 39.8321 21.7691 38.9899 17.9223ZM36.5245 28.9589C36.0696 30.756 33.7373 32.99 31.8842 33.4028C29.4582 33.8642 27.0129 34.0613 24.5701 33.9937C24.5215 33.9923 24.4748 34.0112 24.441 34.0461C24.0942 34.4019 22.1664 36.3811 22.1664 36.3811L19.7471 38.8642C19.5702 39.0487 19.2594 38.9231 19.2594 38.6686V33.5749C19.2594 33.4908 19.1993 33.4194 19.1167 33.403C19.1162 33.4028 19.1158 33.4028 19.1153 33.4027C17.2621 32.9899 14.9307 30.7559 14.475 28.9588C13.7168 25.4819 13.7168 21.9571 14.475 18.4801C14.9307 16.6831 17.2621 14.449 19.1153 14.0363C23.3523 13.2304 27.6482 13.2304 31.8843 14.0363C33.7383 14.449 36.0697 16.6831 36.5246 18.4801C37.2835 21.9572 37.2835 25.482 36.5245 28.9589Z"
			fill="white"
		/>
		<path
			d="M29.5313 31.3103C29.2464 31.2237 28.975 31.1657 28.7227 31.0612C26.1098 29.9771 23.7053 28.5786 21.8006 26.4349C20.7175 25.2159 19.8697 23.8396 19.1531 22.3831C18.8132 21.6924 18.5269 20.9747 18.2349 20.2615C17.9688 19.6113 18.3608 18.9395 18.7736 18.4494C19.161 17.9895 19.6595 17.6377 20.1994 17.3782C20.6208 17.1758 21.0363 17.2926 21.3441 17.6497C22.0093 18.4219 22.6205 19.2335 23.1152 20.1286C23.4195 20.6791 23.336 21.3521 22.7845 21.7267C22.6504 21.8177 22.5283 21.9247 22.4035 22.0275C22.2939 22.1177 22.1909 22.2087 22.1158 22.3307C21.9786 22.5539 21.9721 22.8174 22.0603 23.0602C22.7403 24.9289 23.8865 26.3822 25.7677 27.1651C26.0687 27.2903 26.3709 27.436 26.7177 27.3957C27.2985 27.3278 27.4865 26.6907 27.8935 26.3579C28.2913 26.0327 28.7997 26.0284 29.2281 26.2996C29.6567 26.5709 30.0721 26.862 30.4851 27.1563C30.8905 27.4452 31.294 27.7276 31.6678 28.057C32.0274 28.3736 32.1512 28.789 31.9487 29.2186C31.5782 30.0056 31.0388 30.6602 30.2609 31.0781C30.0413 31.1959 29.7789 31.234 29.5313 31.3103C29.2464 31.2237 29.7789 31.234 29.5313 31.3103Z"
			fill="white"
		/>
		<path
			d="M25.5075 16.4784C28.925 16.5742 31.7321 18.8422 32.3336 22.221C32.4361 22.7967 32.4726 23.3852 32.5182 23.9696C32.5374 24.2154 32.3982 24.4488 32.133 24.4521C31.8591 24.4554 31.7359 24.2261 31.7179 23.9806C31.6828 23.4943 31.6584 23.0057 31.5913 22.5236C31.2376 19.9777 29.2076 17.8714 26.6735 17.4195C26.2921 17.3515 25.9021 17.3336 25.5157 17.2931C25.2715 17.2675 24.9518 17.2528 24.8977 16.9492C24.8524 16.6947 25.0671 16.492 25.3095 16.479C25.3751 16.4751 25.4414 16.4782 25.5075 16.4784C28.9252 16.5742 25.4414 16.4782 25.5075 16.4784Z"
			fill="white"
		/>
		<path
			d="M30.7011 23.2111C30.6954 23.2538 30.6926 23.3541 30.6675 23.4486C30.5768 23.7916 30.0565 23.8345 29.9368 23.4884C29.9013 23.3857 29.896 23.2688 29.8958 23.1582C29.8946 22.4344 29.7373 21.7113 29.3722 21.0814C28.997 20.4341 28.4237 19.8901 27.7514 19.5607C27.3448 19.3617 26.9052 19.2379 26.4596 19.1643C26.2648 19.132 26.068 19.1126 25.8723 19.0853C25.6351 19.0523 25.5084 18.9012 25.5197 18.6675C25.5302 18.4486 25.6903 18.2909 25.9289 18.3045C26.7132 18.349 27.4708 18.5187 28.1682 18.8878C29.586 19.6388 30.396 20.824 30.6325 22.4066C30.6432 22.4785 30.6603 22.5494 30.6658 22.6213C30.6791 22.7988 30.6876 22.9766 30.7011 23.2111C30.6954 23.2536 30.6876 22.9766 30.7011 23.2111Z"
			fill="white"
		/>
		<path
			d="M28.5753 23.1283C28.2894 23.1335 28.1364 22.9751 28.1068 22.7131C28.0864 22.5304 28.0701 22.3452 28.0264 22.1673C27.9406 21.8169 27.7544 21.4924 27.4598 21.2777C27.3207 21.1764 27.163 21.1026 26.998 21.0548C26.7883 20.9942 26.5703 21.0109 26.3613 20.9597C26.1341 20.904 26.0083 20.7199 26.0441 20.5069C26.0766 20.3128 26.2652 20.1614 26.4773 20.1769C27.8023 20.2725 28.7493 20.9575 28.8845 22.5174C28.8941 22.6275 28.9053 22.7437 28.8809 22.8492C28.8389 23.0292 28.7054 23.1195 28.5753 23.1283C28.2893 23.1334 28.7054 23.1195 28.5753 23.1283Z"
			fill="white"
		/>
		<path d="M29.5312 31.3102C29.7788 31.2339 29.2463 31.2236 29.5312 31.3102V31.3102Z" fill="white" />
		<path d="M25.5159 16.4784C25.513 16.4784 25.5102 16.4781 25.5073 16.4781C25.5045 16.4779 25.5081 16.4781 25.5159 16.4784Z" fill="white" />
		<path d="M25.5073 16.478C25.5102 16.478 25.513 16.4783 25.5159 16.4783C25.7055 16.4851 28.7903 16.5701 25.5073 16.478Z" fill="white" />
		<path d="M30.7008 23.2111C30.6873 22.9766 30.6952 23.2536 30.7008 23.2111V23.2111Z" fill="white" />
		<path d="M28.5751 23.1281C28.5796 23.1278 28.5839 23.1255 28.5882 23.125C28.5761 23.125 28.5576 23.1253 28.5386 23.126C28.5509 23.1263 28.5622 23.1282 28.5751 23.1281Z" fill="white" />
		<path d="M28.5753 23.1286C28.5624 23.1288 28.5511 23.1269 28.5387 23.1265C28.4769 23.1282 28.413 23.1314 28.5753 23.1286Z" fill="white" />
		<path d="M28.5882 23.125C28.5838 23.1255 28.5795 23.1278 28.5752 23.1281C28.6087 23.1258 28.6058 23.125 28.5882 23.125Z" fill="white" />
	</symbol>

	<symbol id="cell-icon" viewBox="0 0 24 51">
		<path fill-rule="evenodd" clip-rule="evenodd" d="M9.9215 20.0283L10.1073 12.5409H1.22632L1.05908 20.0283H9.9215Z" fill="#4B00C8" />
		<path
			fill-rule="evenodd"
			clip-rule="evenodd"
			d="M20.5489 8.08195C18.8209 3.79022 17.5761 1.09624 16.8331 0H11.6679C14.0647 4.34748 15.5696 9.12243 16.2199 14.3431C16.5357 16.8884 16.6474 20.5671 16.5171 25.3606C16.4244 31.4176 15.1239 37.53 12.6157 43.6798C11.6309 46.1137 10.4604 48.5661 9.08545 51H14.8264C16.3686 48.6591 17.7434 46.2251 18.9139 43.6798C19.4714 42.4722 19.9916 41.2459 20.4559 40.0011C22.3138 34.8546 23.2986 30.0613 23.3916 25.6208C23.5216 19.1366 22.5741 13.3027 20.5489 8.08195Z"
			fill="#4B00C8"
		/>
		<path fill-rule="evenodd" clip-rule="evenodd" d="M0.185752 33.3125L0 40.7441H8.95518L9.14094 33.3125H0.185752Z" fill="#4B00C8" />
	</symbol>

	<symbol id="fon-icon" viewBox="0 0 53 53">
		<path d="M0 50C0 51.6569 1.34315 53 3 53H50C51.6569 53 53 51.6569 53 50V3C53 1.34315 51.6569 0 50 0H3C1.34315 0 0 1.34315 0 3V50Z" fill="#FF0000" />
		<path d="M26.4968 5C33.9913 5 42 18.7536 42 30.6639C42 40.0193 36.6425 48 26.4968 48C16.3435 48 11 40.0193 11 30.6639C11 18.7536 19.0013 5 26.4968 5Z" fill="white" />
	</symbol>

	<symbol id="a1-icon" viewBox="0 0 49 50">
		<path
			d="M22.8908 39.3439C15.3752 39.6651 15.2912 39.6453 13.6704 46.904C13.2998 48.5593 12.6575 49.0534 11.1257 49.1671C8.65511 49.3499 6.22896 49.8193 3.77318 49.9775C0.348912 50.1998 -0.673917 48.7669 0.418092 45.6242C4.63131 33.5545 8.83957 21.4814 13.0429 9.40509C14.0806 6.44036 16.2152 5.58553 19.3133 5.6547C25.4108 5.78812 27.7974 8.79733 29.1118 14.6181C31.276 24.209 34.5471 33.5479 37.3685 42.9906C38.2777 46.0492 38.0949 46.3061 34.8633 46.5976H34.6212C28.0741 47.1659 27.9604 47.2005 26.2211 40.9894C25.6331 38.8449 24.3089 39.2599 22.8908 39.3439ZM22.3225 26.7834C23.5875 26.6598 23.4738 28.4288 24.7042 28.5919C24.2392 24.8626 23.3439 21.1998 22.0359 17.6767C21.3886 19.337 20.8352 20.6019 20.8846 22.025C19.3726 24.7426 18.9773 27.826 18.0187 30.7265C17.8161 31.3342 18.0187 31.7147 18.7945 31.9074C22.5202 32.7968 23.543 31.8234 22.5844 28.2163C22.4609 27.7469 22.4263 27.2627 22.3225 26.7834V26.7834Z"
			fill="#E50B0B"
		/>
		<path
			d="M39.681 13.966C33.4847 16.7232 33.1734 15.9425 33.4155 10.013C33.4031 9.57947 33.511 9.15096 33.7273 8.77503C33.9436 8.39909 34.2599 8.09045 34.641 7.88335C37.156 6.16875 39.6909 4.60732 41.0349 1.45976C41.9737 -0.739079 44.7062 0.184924 46.6382 0.234336C48.3084 0.273866 48.1206 1.8847 48.1206 3.12001C48.1206 11.7622 48.0712 20.4143 48.1552 29.0466C48.1799 31.2701 47.2608 31.9273 45.1905 31.8532C39.6909 31.6556 39.6909 31.6951 39.6909 26.235L39.681 13.966ZM46.3912 17.5187V8.88147C46.7124 11.0408 45.4276 14.3613 46.3912 17.5187Z"
			fill="#2B2B2B"
		/>
		<path
			d="M22.3224 26.7784C22.4064 27.2725 22.4607 27.7666 22.5843 28.2163C23.5429 31.8233 22.52 32.7968 18.7944 31.9073C18.0334 31.7245 17.8061 31.3342 18.0186 30.7264C18.9772 27.8259 19.3725 24.7426 20.8845 22.0249L21.9073 25.3108L22.0309 25.9532L22.3224 26.7784Z"
			fill="#FDFDFD"
		/>
		<path
			d="M21.9322 25.3109L20.9094 22.025C20.86 20.602 21.4035 19.337 22.0607 17.6768C23.3686 21.1999 24.264 24.8627 24.7289 28.5919C23.4986 28.4289 23.6122 26.6599 22.3473 26.7834C22.2534 26.5067 22.1546 26.23 22.0557 25.9533C22.3473 25.6717 22.2386 25.4691 21.9322 25.3109Z"
			fill="#2B2B2B"
		/>
		<path d="M46.3911 17.5189C45.4276 14.3812 46.7123 11.0607 46.3911 8.90137V17.5189Z" fill="#FDFDFD" />
		<path d="M21.9321 25.311C22.2632 25.4692 22.3719 25.6718 22.0557 25.9534L21.9321 25.311Z" fill="#E50B0B" />
	</symbol>

	<symbol id="phone-btn-icon" viewBox="0 0 33 33">
		<g clip-path="url(#clip0)">
			<path
				d="M28.189 16.504H26.523C26.523 11.067 22.101 6.646 16.667 6.646L16.666 4.982C23.021 4.979 28.189 10.149 28.189 16.504ZM16.666 7.856L16.665 9.52C20.518 9.52 23.648 12.653 23.646 16.503L25.312 16.502C25.312 11.735 21.436 7.856 16.666 7.856ZM16.333 0C7.326 0 0 7.326 0 16.334C0 25.34 7.326 32.666 16.333 32.666C16.89 32.666 17.34 32.216 17.34 31.66C17.34 31.101 16.89 30.65 16.333 30.65C8.437 30.65 2.015 24.226 2.015 16.334C2.015 8.438 8.437 2.015 16.333 2.015C24.229 2.015 30.65 8.439 30.65 16.334C30.65 19.633 28.894 22.902 26.381 24.288C25.468 24.79 24.478 25.039 23.422 25.049C24.056 24.672 24.605 24.162 25.013 23.52C25.093 23.399 25.199 23.292 25.251 23.161C25.579 22.372 25.608 21.477 25.806 20.643C26.049 19.579 21.148 17.5 20.722 18.829C20.568 19.321 20.332 20.877 20.023 21.287C19.748 21.653 19.07 21.479 18.646 21.119C17.529 20.167 16.282 18.768 15.188 17.662L15.19 17.661C15.162 17.632 15.128 17.6 15.098 17.569C15.067 17.54 15.036 17.507 15.005 17.477V17.479C13.899 16.383 12.499 15.139 11.548 14.02C11.188 13.596 11.014 12.918 11.38 12.643C11.79 12.332 13.346 12.1 13.838 11.944C15.164 11.52 13.088 6.616 12.022 6.86C11.19 7.055 10.295 7.087 9.506 7.413C9.372 7.47 9.268 7.573 9.147 7.653C6.348 9.427 5.987 13.735 8.719 16.945C9.76 18.173 10.846 19.361 11.964 20.521L11.958 20.525C11.989 20.556 12.021 20.585 12.053 20.615C12.083 20.646 12.112 20.677 12.141 20.71L12.147 20.704C13.307 21.822 14.682 23.469 16.916 24.959C21.619 28.1 25.228 27.223 27.354 26.057C31.024 24.036 32.666 19.719 32.666 16.338C32.666 7.326 25.339 0 16.333 0Z"
				fill="#9B9B9B"
			/>
		</g>
		<clipPath id="clip0">
			<rect width="32.666" height="32.666" fill="white" />
		</clipPath>
	</symbol>

	<symbol id="search-icon" viewBox="0 0 511.999 511.999">
    <path d="M508.874,478.708L360.142,329.976c28.21-34.827,45.191-79.103,45.191-127.309c0-111.75-90.917-202.667-202.667-202.667    S0,90.917,0,202.667s90.917,202.667,202.667,202.667c48.206,0,92.482-16.982,127.309-45.191l148.732,148.732    c4.167,4.165,10.919,4.165,15.086,0l15.081-15.082C513.04,489.627,513.04,482.873,508.874,478.708z M202.667,362.667    c-88.229,0-160-71.771-160-160s71.771-160,160-160s160,71.771,160,160S290.896,362.667,202.667,362.667z"></path>
  </symbol>

	<symbol id="favorite-icon" viewBox="0 0 58 54">
		<path fill-rule="evenodd" clip-rule="evenodd" d="M29.1667 53L25.0825 49.2594C10.5767 36.0256 1 27.2975 1 16.5858C1 7.85777 7.81633 1 16.4917 1C21.3927 1 26.0965 3.29537 29.1667 6.92262C32.2368 3.29537 36.9407 1 41.8417 1C50.517 1 57.3333 7.85777 57.3333 16.5858C57.3333 27.2975 47.7567 36.0256 33.2508 49.2877L29.1667 53Z"/>
  </symbol>

	<symbol id="compare-icon" viewBox="0 0 52 52">
		<path d="M40.45 25.5C40.45 24.3678 41.3678 23.45 42.5 23.45C43.6322 23.45 44.55 24.3678 44.55 25.5V49.5C44.55 50.6322 43.6322 51.55 42.5 51.55C41.3678 51.55 40.45 50.6322 40.45 49.5V25.5Z"  stroke-width="0.9"/>
		<path d="M18.45 16.5C18.45 15.3678 19.3678 14.45 20.5 14.45C21.6322 14.45 22.55 15.3678 22.55 16.5V49.5C22.55 50.6322 21.6322 51.55 20.5 51.55C19.3678 51.55 18.45 50.6322 18.45 49.5V16.5Z"  stroke-width="0.9"/>
		<path d="M29.325 2.4375C29.325 1.33983 30.2148 0.45 31.3125 0.45C32.4102 0.45 33.3 1.33983 33.3 2.4375V49.5625C33.3 50.6602 32.4102 51.55 31.3125 51.55C30.2148 51.55 29.325 50.6602 29.325 49.5625V2.4375Z"  stroke-width="0.9"/>
		<path d="M7.45 33.5C7.45 32.3678 8.36782 31.45 9.5 31.45C10.6322 31.45 11.55 32.3678 11.55 33.5V49.5C11.55 50.6322 10.6322 51.55 9.5 51.55C8.36782 51.55 7.45 50.6322 7.45 49.5V33.5Z"  stroke-width="0.9"/>
  </symbol>

	<symbol id="cart-icon" viewBox="0 0 54 54">
			<path d="M1 6.19982H0.5V6.69982H1V6.19982ZM6.19982 6.19982L6.65158 5.98555L6.51606 5.69982H6.19982V6.19982ZM15.5595 25.9331L15.9974 26.1744L16.121 25.9502L16.0113 25.7189L15.5595 25.9331ZM12.0496 32.3029L12.4838 32.551L12.4875 32.5442L12.0496 32.3029ZM47.7984 39.9987V40.4987H48.2984V39.9987H47.7984ZM47.7984 34.7988H48.2984V34.2988H47.7984V34.7988ZM17.0414 34.1489L16.5564 34.0276L16.5414 34.0873V34.1489H17.0414ZM17.1194 33.8369L16.6817 33.5952L16.6502 33.6523L16.6344 33.7156L17.1194 33.8369ZM19.4594 29.599V29.099H19.1643L19.0217 29.3573L19.4594 29.599ZM43.3785 26.9211L42.9407 26.6796L42.9401 26.6807L43.3785 26.9211ZM52.6862 10.0477L53.124 10.2892L53.1261 10.2855L52.6862 10.0477ZM50.3983 6.19982L50.3995 5.69982H50.3983V6.19982ZM11.9456 6.19982L11.4931 6.4125L11.6282 6.69982H11.9456V6.19982ZM9.50171 1L9.95422 0.787319L9.81918 0.5H9.50171V1ZM16.5996 42.0986C13.4603 42.0986 10.9258 44.6657 10.9258 47.7985H11.9258C11.9258 45.2114 14.0191 43.0986 16.5996 43.0986V42.0986ZM10.9258 47.7985C10.9258 50.9312 13.4603 53.4983 16.5996 53.4983V52.4983C14.0191 52.4983 11.9258 50.3855 11.9258 47.7985H10.9258ZM16.5996 53.4983C19.7356 53.4983 22.2994 50.9345 22.2994 47.7985H21.2994C21.2994 50.3822 19.1834 52.4983 16.5996 52.4983V53.4983ZM22.2994 47.7985C22.2994 44.6624 19.7356 42.0986 16.5996 42.0986V43.0986C19.1834 43.0986 21.2994 45.2147 21.2994 47.7985H22.2994ZM0.5 1V6.19982H1.5V1H0.5ZM1 6.69982H6.19982V5.69982H1V6.69982ZM5.74806 6.41409L15.1077 26.1474L16.0113 25.7189L6.65158 5.98555L5.74806 6.41409ZM15.1216 25.6918L11.6117 32.0616L12.4875 32.5442L15.9974 26.1744L15.1216 25.6918ZM11.6155 32.0549C11.1557 32.8595 10.8996 33.8031 10.8996 34.7988H11.8996C11.8996 33.9746 12.1116 33.2023 12.4837 32.551L11.6155 32.0549ZM10.8996 34.7988C10.8996 37.9349 13.4634 40.4987 16.5995 40.4987V39.4987C14.0157 39.4987 11.8996 37.3826 11.8996 34.7988H10.8996ZM16.5995 40.4987H47.7984V39.4987H16.5995V40.4987ZM48.2984 39.9987V34.7988H47.2984V39.9987H48.2984ZM47.7984 34.2988H17.6914V35.2988H47.7984V34.2988ZM17.6914 34.2988C17.6435 34.2988 17.6078 34.2811 17.5835 34.2568C17.5592 34.2325 17.5414 34.1967 17.5414 34.1489H16.5414C16.5414 34.789 17.0513 35.2988 17.6914 35.2988V34.2988ZM17.5265 34.2701L17.6045 33.9581L16.6344 33.7156L16.5564 34.0276L17.5265 34.2701ZM17.5572 34.0786L19.8971 29.8407L19.0217 29.3573L16.6817 33.5952L17.5572 34.0786ZM19.4594 30.099H38.8287V29.099H19.4594V30.099ZM38.8287 30.099C40.9643 30.099 42.8467 28.9308 43.8169 27.1615L42.9401 26.6807C42.1425 28.1353 40.593 29.099 38.8287 29.099V30.099ZM43.8164 27.1626L53.124 10.2892L52.2484 9.80619L42.9407 26.6796L43.8164 27.1626ZM53.1261 10.2855C53.6461 9.32357 53.6223 8.15914 53.0635 7.21925L52.2039 7.73033C52.583 8.36778 52.5991 9.15752 52.2464 9.8099L53.1261 10.2855ZM53.0635 7.21925C52.5046 6.27936 51.4929 5.70235 50.3995 5.69982L50.3972 6.69982C51.1388 6.70153 51.8249 7.09288 52.2039 7.73033L53.0635 7.21925ZM50.3983 5.69982H11.9456V6.69982H50.3983V5.69982ZM12.3981 5.98714L9.95422 0.787319L9.0492 1.21268L11.4931 6.4125L12.3981 5.98714ZM9.50171 0.5H1V1.5H9.50171V0.5ZM42.5986 42.0986C39.4593 42.0986 36.9248 44.6657 36.9248 47.7985H37.9248C37.9248 45.2114 40.0181 43.0986 42.5986 43.0986V42.0986ZM36.9248 47.7985C36.9248 50.9312 39.4593 53.4983 42.5986 53.4983V52.4983C40.0181 52.4983 37.9248 50.3855 37.9248 47.7985H36.9248ZM42.5986 53.4983C45.7347 53.4983 48.2984 50.9345 48.2984 47.7985H47.2984C47.2984 50.3822 45.1824 52.4983 42.5986 52.4983V53.4983ZM48.2984 47.7985C48.2984 44.6624 45.7347 42.0986 42.5986 42.0986V43.0986C45.1824 43.0986 47.2984 45.2147 47.2984 47.7985H48.2984Z" fill="#9B9B9B"/>
	</symbol>

	<symbol id="profile-icon" viewBox="0 0 46 54">
		<path d="M22.9719 53.0001L22.9719 52.5001H22.9719L22.9719 53.0001ZM1 41.2085L0.500057 41.201L0.497722 41.3558L0.583336 41.4849L1 41.2085ZM44.9437 41.2085L45.3604 41.4849L45.446 41.3558L45.4437 41.201L44.9437 41.2085ZM22.9719 1.5C28.7746 1.5 33.4578 6.18319 33.4578 11.9859H34.4578C34.4578 5.63091 29.3269 0.5 22.9719 0.5V1.5ZM33.4578 11.9859C33.4578 17.7887 28.7746 22.4719 22.9719 22.4719V23.4719C29.3269 23.4719 34.4578 18.341 34.4578 11.9859H33.4578ZM22.9719 22.4719C17.1691 22.4719 12.4859 17.7887 12.4859 11.9859H11.4859C11.4859 18.341 16.6168 23.4719 22.9719 23.4719V22.4719ZM12.4859 11.9859C12.4859 6.18319 17.1691 1.5 22.9719 1.5V0.5C16.6168 0.5 11.4859 5.63091 11.4859 11.9859H12.4859ZM22.9719 52.5001C14.3022 52.5001 6.20906 48.1568 1.41666 40.9321L0.583336 41.4849C5.56101 48.9889 13.967 53.5001 22.9719 53.5001L22.9719 52.5001ZM1.49994 41.216C1.5247 39.5738 2.36004 38.0781 3.79142 36.7367C5.22491 35.3933 7.22234 34.2392 9.47357 33.2976C13.9781 31.4135 19.3781 30.4296 22.9719 30.4296V29.4296C19.2416 29.4296 13.7107 30.4415 9.08771 32.375C6.77521 33.3422 4.65978 34.5524 3.10762 36.007C1.55335 37.4636 0.530229 39.1995 0.500057 41.201L1.49994 41.216ZM22.9719 30.4296C26.5471 30.4296 31.9472 31.4135 36.4566 33.2977C38.7102 34.2393 40.7111 35.3935 42.1475 36.737C43.5818 38.0786 44.419 39.5742 44.4438 41.216L45.4437 41.201C45.4135 39.1991 44.3876 37.463 42.8306 36.0067C41.2756 34.5522 39.1568 33.3421 36.8421 32.375C32.2148 30.4415 26.6839 29.4296 22.9719 29.4296V30.4296ZM44.527 40.9321C39.7346 48.1568 31.6415 52.5001 22.9719 52.5001L22.9719 53.5001C31.9767 53.5001 40.3827 48.9889 45.3604 41.4849L44.527 40.9321Z" fill="#9B9B9B"/>
</symbol>
</svg>
